<svg width="143" height="37" viewBox="0 0 143 37" fill="none" xmlns="http://www.w3.org/2000/svg">
<path d="M33.7709 18.994C34.0729 10.5003 27.4434 3.36959 18.9634 3.06705C10.4834 2.7645 3.36411 9.4047 3.06206 17.8984C2.76 26.392 9.38954 33.5227 17.8695 33.8253C26.3495 34.1278 33.4688 27.4876 33.7709 18.994Z" fill="#311A62"/>
<path d="M18.4179 28.8463C24.1518 28.8463 28.8001 24.1906 28.8001 18.4474C28.8001 12.7042 24.1518 8.04846 18.4179 8.04846C12.6839 8.04846 8.03564 12.7042 8.03564 18.4474C8.03564 24.1906 12.6839 28.8463 18.4179 28.8463Z" fill="url(#paint0_linear_247_50)"/>
<path fill-rule="evenodd" clip-rule="evenodd" d="M18.4175 0C28.5892 0 36.8352 8.25928 36.8352 18.4474C36.8352 18.9159 36.817 19.3792 36.7832 19.8374L31.5986 18.4474C31.5986 11.1564 25.6967 5.24502 18.4175 5.24502V0Z" fill="url(#paint1_linear_247_50)"/>
<path fill-rule="evenodd" clip-rule="evenodd" d="M36.8353 18.4474C36.8353 28.6355 28.5893 36.8948 18.4176 36.8948C17.9498 36.8948 17.4872 36.8765 17.0298 36.8427L18.4176 31.6497C25.6968 31.6497 31.5987 25.7384 31.5987 18.4474H36.8353Z" fill="url(#paint2_linear_247_50)"/>
<path fill-rule="evenodd" clip-rule="evenodd" d="M0.00244141 18.4474C0.00244141 9.5139 6.34353 2.06155 14.7663 0.3644C14.878 0.340973 14.9924 0.32015 15.1041 0.299326L15.2107 0.281105C15.3302 0.260281 15.4497 0.239457 15.5693 0.221236L15.6576 0.208221C15.785 0.19 15.9097 0.171779 16.0371 0.156161L16.1072 0.148352C16.2424 0.132734 16.3749 0.117116 16.5101 0.101499L16.562 0.0962926C16.7024 0.0832776 16.8427 0.0702627 16.9856 0.0598507H17.0194C17.165 0.0468358 17.3131 0.0364238 17.4612 0.0286149H17.4846C17.6379 0.0208059 17.7887 0.012997 17.942 0.010394H17.9446H17.9524C18.1083 0.00518799 18.2643 0.00518799 18.4202 0.00518799C18.888 0.00518799 19.3506 0.0234089 19.8079 0.0572477L18.4202 5.25021C11.1409 5.25021 5.23904 11.1616 5.23904 18.4526H0.00244141V18.4474Z" fill="url(#paint3_linear_247_50)"/>
<path fill-rule="evenodd" clip-rule="evenodd" d="M18.4177 36.8921C8.24602 36.8921 0 28.6328 0 18.4447C0 17.9762 0.0181948 17.5129 0.0519793 17.0547L5.234 18.4447C5.234 25.7357 11.1359 31.6471 18.4151 31.6471V36.8921H18.4177Z" fill="url(#paint4_linear_247_50)"/>
<path fill-rule="evenodd" clip-rule="evenodd" d="M64 26.9651V25.033H65.4919V25.2312H64.2333V25.8917H65.3605V26.0899H64.2333V26.767H65.5076V26.9651H64ZM67.1406 26.9982C66.8446 26.9982 66.5976 26.9028 66.3996 26.7101C66.2035 26.5174 66.1055 26.2807 66.1055 26C66.1055 25.7193 66.2055 25.4862 66.4035 25.2917C66.6015 25.0972 66.8505 25 67.1504 25C67.3229 25 67.4699 25.0257 67.5935 25.0789C67.715 25.1321 67.8346 25.2092 67.9503 25.3119L67.7973 25.4661C67.5993 25.2899 67.3817 25.2018 67.1484 25.2018C66.9152 25.2018 66.7309 25.2789 66.578 25.4312C66.425 25.5835 66.3486 25.7743 66.3486 26C66.3486 26.2257 66.425 26.4128 66.578 26.567C66.7309 26.7211 66.921 26.7982 67.1465 26.7982C67.2798 26.7982 67.3974 26.7743 67.5013 26.7284C67.6033 26.6826 67.7072 26.6128 67.813 26.5193L67.9659 26.6716C67.8503 26.7798 67.7287 26.8624 67.5993 26.9174C67.4719 26.9725 67.319 27 67.1386 27L67.1406 26.9982ZM68.5952 26.9651V25.033H68.8285V26.7633H69.9911V26.9651H68.5952ZM70.6615 26.9651V25.033H70.8948V26.9651H70.6615ZM71.7201 26.9651V25.033H72.4926C72.7278 25.033 72.916 25.0881 73.0552 25.1982C73.1944 25.3083 73.265 25.4587 73.265 25.6514C73.265 25.844 73.1885 26.0073 73.0336 26.1174C72.8788 26.2275 72.6866 26.2826 72.4533 26.2826H71.9515V26.9651H71.7182H71.7201ZM71.9534 26.0844H72.4632C72.6337 26.0844 72.7709 26.0459 72.8748 25.967C72.9787 25.8881 73.0297 25.7835 73.0297 25.6532C73.0297 25.5229 72.9807 25.4147 72.8807 25.3431C72.7807 25.2697 72.6455 25.2349 72.4749 25.2349H71.9534V26.0844ZM74.6196 26.9927C74.304 26.9927 74.0217 26.8899 73.7766 26.6844L73.9217 26.5248C74.0315 26.6183 74.1432 26.6881 74.253 26.7321C74.3648 26.7761 74.4902 26.7982 74.6294 26.7982C74.7686 26.7982 74.8784 26.767 74.9627 26.7064C75.047 26.644 75.0901 26.5651 75.0901 26.4642C75.0901 26.3706 75.0529 26.2954 74.9784 26.2404C74.9039 26.1853 74.7627 26.1376 74.553 26.0973C74.3079 26.0477 74.1295 25.9798 74.0217 25.8954C73.9139 25.811 73.859 25.6899 73.859 25.5339C73.859 25.378 73.9237 25.255 74.0511 25.156C74.1785 25.0569 74.3412 25.0073 74.5373 25.0073C74.8098 25.0073 75.0529 25.0862 75.2626 25.244L75.1274 25.4128C74.945 25.2734 74.7451 25.2037 74.5314 25.2037C74.4 25.2037 74.2942 25.233 74.2138 25.2936C74.1334 25.3541 74.0923 25.4294 74.0923 25.5211C74.0923 25.6128 74.1315 25.6917 74.2079 25.7468C74.2863 25.8018 74.4334 25.8514 74.651 25.8954C74.8843 25.9431 75.0548 26.0092 75.1627 26.0954C75.2705 26.1817 75.3234 26.2991 75.3234 26.4477C75.3234 26.611 75.2568 26.7431 75.1254 26.844C74.9941 26.945 74.8255 26.9945 74.6177 26.9945L74.6196 26.9927ZM76.0213 26.9651V25.033H77.5132V25.2312H76.2546V25.8917H77.3819V26.0899H76.2546V26.767H77.5289V26.9651H76.0213ZM79.8696 26.9651V25.2349H79.1776V25.033H80.7989V25.2349H80.1068V26.9651H79.8716H79.8696ZM81.4556 26.9651V25.033H81.6889V25.8917H82.8808V25.033H83.1141V26.9651H82.8808V26.0954H81.6889V26.9651H81.4556ZM83.9179 26.9651V25.033H85.4098V25.2312H84.1512V25.8917H85.2784V26.0899H84.1512V26.767H85.4255V26.9651H83.9179ZM87.7995 26.9798L87.0624 25.033H87.3153L87.9054 26.6422L88.472 25.0275H88.6641L89.2307 26.6422L89.8207 25.033H90.0658L89.3287 26.9798H89.1307L88.5641 25.4128L87.9956 26.9798H87.8015H87.7995ZM92.3183 26.7046C92.1203 26.9009 91.8674 26.9982 91.5596 26.9982C91.2519 26.9982 91.0009 26.9009 90.8049 26.7064C90.6088 26.5119 90.5108 26.2752 90.5108 26C90.5108 25.7248 90.6108 25.4899 90.8088 25.2954C91.0068 25.0991 91.2597 25.0018 91.5675 25.0018C91.8753 25.0018 92.1262 25.0991 92.3222 25.2936C92.5183 25.4881 92.6163 25.7248 92.6163 26C92.6163 26.2752 92.5163 26.5101 92.3183 26.7046ZM90.9833 26.5651C91.1381 26.7193 91.3322 26.7963 91.5655 26.7963C91.7988 26.7963 91.9929 26.7193 92.1458 26.5651C92.2987 26.411 92.3752 26.222 92.3752 25.9982C92.3752 25.7743 92.2987 25.5872 92.1438 25.433C91.989 25.2789 91.7949 25.2018 91.5616 25.2018C91.3283 25.2018 91.1342 25.2789 90.9813 25.433C90.8284 25.5872 90.7519 25.7761 90.7519 26C90.7519 26.2239 90.8284 26.411 90.9833 26.5651ZM93.3299 26.9651V25.033H94.218C94.4709 25.033 94.6669 25.0972 94.8041 25.2257C94.91 25.3248 94.9629 25.4532 94.9629 25.6128C94.9629 25.7725 94.912 25.8917 94.81 25.989C94.7081 26.0844 94.5728 26.1468 94.4023 26.1761L95.0355 26.9651H94.7493L94.1513 26.2147H93.5612V26.9651H93.3279H93.3299ZM93.5632 26.0183H94.1964C94.3532 26.0183 94.4807 25.9817 94.5807 25.9101C94.6787 25.8385 94.7277 25.7395 94.7277 25.6147C94.7277 25.4899 94.6806 25.4018 94.5885 25.3339C94.4944 25.2661 94.365 25.233 94.2003 25.233H93.5632V26.0165V26.0183ZM95.6844 26.9651V25.033H95.9177V26.7633H97.0802V26.9651H95.6844ZM97.7311 26.9651V25.033H98.4486C98.772 25.033 99.0347 25.1248 99.2386 25.3083C99.4425 25.4917 99.5444 25.7211 99.5444 26C99.5444 26.2789 99.4425 26.5064 99.2367 26.6899C99.0308 26.8734 98.7681 26.9651 98.4486 26.9651H97.7311ZM97.9643 26.7633H98.4486C98.7054 26.7633 98.9132 26.6917 99.07 26.5468C99.2269 26.4018 99.3053 26.2202 99.3053 25.9982C99.3053 25.7761 99.2269 25.5963 99.07 25.4514C98.9132 25.3064 98.7054 25.233 98.4505 25.233H97.9663V26.7615L97.9643 26.7633ZM101.942 26.978L101.205 25.0312H101.458L102.048 26.6404L102.614 25.0257H102.807L103.373 26.6404L103.963 25.0312H104.208L103.471 26.978H103.273L102.707 25.411L102.138 26.978H101.944H101.942ZM104.871 26.9633V25.0312H105.104V26.9633H104.871ZM106.475 26.9633V25.233H105.781V25.0312H107.402V25.233H106.708V26.9633H106.473H106.475ZM108.061 26.9633V25.0312H108.294V25.8899H109.486V25.0312H109.719V26.9633H109.486V26.0936H108.294V26.9633H108.061ZM113.346 26.7028C113.148 26.8991 112.895 26.9963 112.587 26.9963C112.279 26.9963 112.028 26.8991 111.832 26.7046C111.636 26.5101 111.538 26.2734 111.538 25.9982C111.538 25.7229 111.638 25.4881 111.836 25.2936C112.034 25.0972 112.287 25 112.595 25C112.903 25 113.154 25.0972 113.35 25.2917C113.546 25.4862 113.644 25.7229 113.644 25.9982C113.644 26.2734 113.544 26.5083 113.346 26.7028ZM112.011 26.5633C112.166 26.7174 112.36 26.7945 112.593 26.7945C112.826 26.7945 113.02 26.7174 113.173 26.5633C113.326 26.4092 113.403 26.2202 113.403 25.9963C113.403 25.7725 113.326 25.5853 113.171 25.4312C113.016 25.2771 112.822 25.2 112.589 25.2C112.356 25.2 112.162 25.2771 112.009 25.4312C111.856 25.5853 111.779 25.7743 111.779 25.9982C111.779 26.222 111.856 26.4092 112.011 26.5633ZM115.183 26.9945C114.922 26.9945 114.712 26.9211 114.557 26.7743C114.403 26.6275 114.324 26.422 114.324 26.1541V25.0312H114.557V26.1413C114.557 26.3486 114.612 26.5101 114.724 26.622C114.836 26.7358 114.991 26.7927 115.189 26.7927C115.387 26.7927 115.536 26.7376 115.645 26.6294C115.755 26.5211 115.81 26.3633 115.81 26.1541V25.0312H116.043V26.1376C116.043 26.4128 115.965 26.6257 115.81 26.7725C115.655 26.9193 115.445 26.9927 115.183 26.9927V26.9945ZM116.816 26.9633V25.0312H117.704C117.957 25.0312 118.153 25.0954 118.29 25.2239C118.396 25.3229 118.449 25.4514 118.449 25.611C118.449 25.7706 118.398 25.8899 118.296 25.9872C118.194 26.0826 118.059 26.145 117.888 26.1743L118.521 26.9633H118.235L117.637 26.2128H117.047V26.9633H116.814H116.816ZM117.049 26.0165H117.682C117.839 26.0165 117.967 25.9798 118.067 25.9083C118.165 25.8367 118.214 25.7376 118.214 25.6128C118.214 25.4881 118.167 25.4 118.074 25.3321C117.98 25.2642 117.851 25.2312 117.686 25.2312H117.049V26.0147V26.0165ZM120.296 26.9633V25.0312H120.529V26.9633H120.296ZM121.354 26.9633V25.0312H122.072C122.393 25.0312 122.658 25.1229 122.862 25.3064C123.066 25.4899 123.168 25.7193 123.168 25.9982C123.168 26.2771 123.066 26.5046 122.86 26.6881C122.654 26.8716 122.391 26.9633 122.072 26.9633H121.354ZM121.587 26.7615H122.072C122.328 26.7615 122.536 26.6899 122.693 26.545C122.85 26.4 122.928 26.2183 122.928 25.9963C122.928 25.7743 122.85 25.5945 122.693 25.4495C122.536 25.3046 122.33 25.2312 122.074 25.2312H121.589V26.7596L121.587 26.7615ZM123.881 26.9633V25.0312H125.373V25.2294H124.114V25.8899H125.242V26.0881H124.114V26.7651H125.389V26.9633H123.881ZM125.9 26.9633L126.841 25.0165H127.059L128 26.9633H127.749L127.508 26.4532H126.385L126.14 26.9633H125.9ZM126.475 26.2569H127.416L126.947 25.2716L126.475 26.2569Z" fill="white"/>
<path fill-rule="evenodd" clip-rule="evenodd" d="M51.3061 12.346C51.0775 12.5849 50.8977 12.8594 50.7648 13.1655C50.6319 13.4716 50.5654 13.8033 50.5654 14.1588V14.2299H61.242V15.8116H50.5654V15.8827C50.5654 16.2283 50.6319 16.5541 50.7648 16.8602C50.8977 17.1663 51.0794 17.4348 51.312 17.6659C51.5446 17.8969 51.8143 18.0786 52.123 18.2129C52.4318 18.3472 52.7562 18.4143 53.0983 18.4143H61.242V19.996H53.1002C52.5315 19.996 51.996 19.8855 51.4996 19.6643C51.0012 19.4431 50.5674 19.1469 50.1961 18.7717C49.8267 18.3985 49.5335 17.9581 49.3205 17.4546C49.1075 16.951 49 16.4159 49 15.8511V14.1528C49 13.5782 49.1094 13.0411 49.3283 12.5415C49.5472 12.0419 49.8404 11.6074 50.2117 11.2322C50.5811 10.859 51.0169 10.5628 51.5152 10.3476C52.0136 10.1323 52.5432 10.0237 53.1022 10.0237H61.2459V11.5916H53.1002C52.7387 11.5916 52.4064 11.6588 52.1035 11.793C51.8006 11.9273 51.5348 12.109 51.3061 12.34V12.346ZM65.4067 18.7895C65.0276 18.4064 64.7305 17.9641 64.5175 17.4664C64.3045 16.9668 64.197 16.4317 64.197 15.8551V14.1568C64.197 13.59 64.3064 13.0569 64.5253 12.5533C64.7442 12.0498 65.0373 11.6114 65.4087 11.2362C65.778 10.863 66.2139 10.5667 66.7122 10.3515C67.2106 10.1363 67.7441 10.0276 68.3128 10.0276H76.4409V11.5956H68.3128C67.961 11.5956 67.6327 11.6627 67.3239 11.797C67.0151 11.9313 66.7474 12.1149 66.5187 12.3499C66.2901 12.5849 66.1083 12.8574 65.9715 13.1694C65.8347 13.4814 65.7644 13.8092 65.7644 14.1548V15.8531C65.7644 16.1987 65.8308 16.5265 65.9637 16.8385C66.0966 17.1505 66.2764 17.423 66.5051 17.658C66.7337 17.893 66.9995 18.0766 67.3024 18.2109C67.6053 18.3452 67.9337 18.4123 68.2855 18.4123H76.4429V19.9941H68.3148C67.7461 19.9941 67.2106 19.8855 66.7142 19.6702C66.2158 19.455 65.7819 19.1588 65.4106 18.7855L65.4067 18.7895ZM81.4577 10.0296V15.8412C81.4577 16.2066 81.5242 16.5423 81.6571 16.8483C81.79 17.1544 81.9698 17.423 82.1984 17.654C82.4271 17.8831 82.6929 18.0687 82.9958 18.207C83.2987 18.3452 83.631 18.4163 83.9925 18.4163H92.1206V19.998H83.9925C83.4238 19.998 82.8922 19.8894 82.3978 19.6742C81.9033 19.4589 81.4675 19.1588 81.0884 18.7757C80.719 18.4024 80.4258 17.9621 80.2128 17.4585C79.9998 16.955 79.8923 16.4159 79.8923 15.8412V10.0296H81.4577ZM94.9603 19.998V10.0296H96.5257V19.998H94.9603ZM100.96 19.998H99.4084V10.0434H109.274C109.692 10.0434 110.091 10.1244 110.47 10.2883C110.849 10.4522 111.181 10.6734 111.467 10.9577C111.752 11.2401 111.979 11.5699 112.151 11.9431C112.321 12.3163 112.407 12.7152 112.407 13.1378C112.407 13.5604 112.319 13.9712 112.143 14.3464C111.967 14.7216 111.732 15.0494 111.437 15.3318C111.142 15.6141 110.802 15.8353 110.413 15.9933C110.024 16.1513 109.622 16.2303 109.204 16.2303H100.96V20V19.998ZM109.231 14.69C109.45 14.69 109.655 14.6485 109.85 14.5675C110.046 14.4866 110.216 14.376 110.362 14.2358C110.509 14.0976 110.63 13.9336 110.726 13.7461C110.822 13.5585 110.873 13.3551 110.882 13.1339C110.873 12.9226 110.82 12.7231 110.726 12.5375C110.63 12.3499 110.507 12.188 110.357 12.0478C110.204 11.9096 110.028 11.799 109.829 11.716C109.63 11.6351 109.42 11.5936 109.202 11.5936H100.958V14.686H109.229L109.231 14.69ZM115.559 19.998V18.4163H124.741C124.92 18.4163 125.088 18.3827 125.247 18.3156C125.403 18.2484 125.538 18.1556 125.653 18.0352C125.767 17.9147 125.856 17.7765 125.923 17.6185C125.989 17.4605 126.023 17.2907 126.023 17.107C126.023 16.7417 125.899 16.4337 125.653 16.1789C125.407 15.9242 125.102 15.7978 124.743 15.7978H117.91C117.521 15.7978 117.154 15.7227 116.806 15.5746C116.46 15.4265 116.155 15.2192 115.895 14.9566C115.633 14.6919 115.428 14.3859 115.276 14.0363C115.123 13.6868 115.047 13.3096 115.047 12.9068C115.047 12.5039 115.121 12.1268 115.268 11.7773C115.414 11.4277 115.62 11.1197 115.88 10.857C116.141 10.5924 116.444 10.3851 116.79 10.231C117.136 10.077 117.509 10 117.908 10H127.076V11.5679H117.908C117.539 11.5679 117.236 11.6943 117.003 11.9491C116.771 12.2038 116.64 12.5079 116.612 12.8633C116.642 13.2464 116.777 13.5683 117.019 13.827C117.261 14.0857 117.558 14.216 117.908 14.216H124.741C125.129 14.216 125.497 14.293 125.845 14.4471C126.191 14.6011 126.492 14.8065 126.75 15.0652C127.006 15.3239 127.211 15.628 127.361 15.9795C127.514 16.329 127.59 16.7002 127.59 17.0952C127.59 17.4901 127.516 17.8772 127.369 18.2306C127.223 18.5861 127.021 18.8922 126.763 19.1509C126.507 19.4096 126.206 19.6169 125.858 19.769C125.513 19.923 125.139 20 124.741 20H115.559V19.998ZM133.062 12.346C132.834 12.5849 132.654 12.8594 132.521 13.1655C132.388 13.4716 132.321 13.8033 132.321 14.1588V14.2299H142.998V15.8116H132.321V15.8827C132.321 16.2283 132.388 16.5541 132.521 16.8602C132.654 17.1663 132.835 17.4348 133.068 17.6659C133.301 17.8969 133.57 18.0786 133.879 18.2129C134.188 18.3472 134.512 18.4143 134.854 18.4143H142.998V19.996H134.854C134.286 19.996 133.75 19.8855 133.254 19.6643C132.755 19.4431 132.321 19.1469 131.95 18.7717C131.581 18.3985 131.288 17.9581 131.075 17.4546C130.862 16.951 130.754 16.4159 130.754 15.8511V14.1528C130.754 13.5782 130.864 13.0411 131.082 12.5415C131.301 12.0419 131.594 11.6074 131.966 11.2322C132.335 10.859 132.771 10.5628 133.269 10.3476C133.768 10.1323 134.297 10.0237 134.856 10.0237H143V11.5916H134.856C134.495 11.5916 134.164 11.6588 133.86 11.793C133.557 11.9273 133.291 12.109 133.062 12.34V12.346Z" fill="white"/>
<defs>
<linearGradient id="paint0_linear_247_50" x1="18.4179" y1="8.04846" x2="18.4179" y2="28.8437" gradientUnits="userSpaceOnUse">
<stop stop-color="#311A62"/>
<stop offset="0.5" stop-color="#3D2482"/>
<stop offset="1" stop-color="#67368B"/>
</linearGradient>
<linearGradient id="paint1_linear_247_50" x1="21.0319" y1="1.21299" x2="34.342" y2="15.1931" gradientUnits="userSpaceOnUse">
<stop offset="0.1" stop-color="#EFA0F3"/>
<stop offset="0.49" stop-color="#CE61E9"/>
<stop offset="1" stop-color="#8A5FE2"/>
</linearGradient>
<linearGradient id="paint2_linear_247_50" x1="35.1747" y1="21.7532" x2="22.0712" y2="33.3286" gradientUnits="userSpaceOnUse">
<stop stop-color="#8A5FE2"/>
<stop offset="0.49" stop-color="#615EDD"/>
<stop offset="1" stop-color="#A77ED7"/>
</linearGradient>
<linearGradient id="paint3_linear_247_50" x1="2.62724" y1="14.1108" x2="15.3052" y2="3.60173" gradientUnits="userSpaceOnUse">
<stop stop-color="#B9CAE5"/>
<stop offset="0.49" stop-color="white"/>
<stop offset="1" stop-color="#EFA0F3"/>
</linearGradient>
<linearGradient id="paint4_linear_247_50" x1="14.5819" y1="35.3173" x2="3.38917" y2="20.357" gradientUnits="userSpaceOnUse">
<stop stop-color="#A77ED7"/>
<stop offset="0.49" stop-color="#E7A2D4"/>
<stop offset="1" stop-color="#B9CAE5"/>
</linearGradient>
</defs>
</svg>
