<svg width="1176" height="161" viewBox="0 0 1176 161" fill="none" xmlns="http://www.w3.org/2000/svg">
<mask id="path-1-outside-1_97_15474" maskUnits="userSpaceOnUse" x="-2" y="-2" width="1180" height="165" fill="black">
<rect fill="white" x="-2" y="-2" width="1180" height="165"/>
<path d="M85.9313 160.499C69.7499 160.499 55.1722 157.146 42.1979 150.44C29.2237 143.588 19.0193 134.113 11.5846 122.013C4.29571 109.768 0.65127 95.9191 0.65127 80.4667C0.65127 65.0142 4.29571 51.2382 11.5846 39.1387C19.0193 26.8933 29.2237 17.4178 42.1979 10.712C55.1722 3.86045 69.7499 0.434669 85.9313 0.434669C100.801 0.434669 114.066 3.05867 125.729 8.30667C137.391 13.5547 147.012 21.1351 154.593 31.048L122.011 60.1307C112.536 48.1769 101.384 42.2 88.5553 42.2C77.7677 42.2 69.0939 45.6987 62.5339 52.696C55.9739 59.5476 52.6939 68.8044 52.6939 80.4667C52.6939 92.1289 55.9739 101.459 62.5339 108.456C69.0939 115.308 77.7677 118.733 88.5553 118.733C101.384 118.733 112.536 112.756 122.011 100.803L154.593 129.885C147.012 139.798 137.391 147.379 125.729 152.627C114.066 157.875 100.801 160.499 85.9313 160.499ZM246.54 160.499C230.067 160.499 215.271 157.073 202.151 150.221C189.031 143.37 178.754 133.894 171.319 121.795C163.884 109.549 160.167 95.7733 160.167 80.4667C160.167 65.16 163.884 51.4569 171.319 39.3573C178.754 27.112 189.031 17.5636 202.151 10.712C215.271 3.86045 230.067 0.434669 246.54 0.434669C263.013 0.434669 277.81 3.86045 290.93 10.712C304.05 17.5636 314.327 27.112 321.762 39.3573C329.196 51.4569 332.914 65.16 332.914 80.4667C332.914 95.7733 329.196 109.549 321.762 121.795C314.327 133.894 304.05 143.37 290.93 150.221C277.81 157.073 263.013 160.499 246.54 160.499ZM246.54 118.733C252.954 118.733 258.713 117.203 263.815 114.141C269.063 110.934 273.218 106.488 276.279 100.803C279.34 94.9716 280.871 88.1929 280.871 80.4667C280.871 72.7404 279.34 66.0347 276.279 60.3493C273.218 54.5182 269.063 50.072 263.815 47.0107C258.713 43.8036 252.954 42.2 246.54 42.2C240.126 42.2 234.295 43.8036 229.047 47.0107C223.945 50.072 219.863 54.5182 216.802 60.3493C213.74 66.0347 212.21 72.7404 212.21 80.4667C212.21 88.1929 213.74 94.9716 216.802 100.803C219.863 106.488 223.945 110.934 229.047 114.141C234.295 117.203 240.126 118.733 246.54 118.733ZM488.31 157L487.873 87.2453L454.636 143.224H431.894L398.657 89.6507V157H351.644V3.93333H394.065L443.921 85.496L492.465 3.93333H534.886L535.324 157H488.31ZM611.879 42.856V69.096H675.73V108.019H611.879V157H560.274V3.93333H684.695V42.856H611.879ZM780.181 160.499C763.708 160.499 748.912 157.073 735.792 150.221C722.672 143.37 712.394 133.894 704.96 121.795C697.525 109.549 693.808 95.7733 693.808 80.4667C693.808 65.16 697.525 51.4569 704.96 39.3573C712.394 27.112 722.672 17.5636 735.792 10.712C748.912 3.86045 763.708 0.434669 780.181 0.434669C796.654 0.434669 811.45 3.86045 824.57 10.712C837.69 17.5636 847.968 27.112 855.402 39.3573C862.837 51.4569 866.554 65.16 866.554 80.4667C866.554 95.7733 862.837 109.549 855.402 121.795C847.968 133.894 837.69 143.37 824.57 150.221C811.45 157.073 796.654 160.499 780.181 160.499ZM780.181 118.733C786.595 118.733 792.353 117.203 797.456 114.141C802.704 110.934 806.858 106.488 809.92 100.803C812.981 94.9716 814.512 88.1929 814.512 80.4667C814.512 72.7404 812.981 66.0347 809.92 60.3493C806.858 54.5182 802.704 50.072 797.456 47.0107C792.353 43.8036 786.595 42.2 780.181 42.2C773.767 42.2 767.936 43.8036 762.688 47.0107C757.585 50.072 753.504 54.5182 750.442 60.3493C747.381 66.0347 745.85 72.7404 745.85 80.4667C745.85 88.1929 747.381 94.9716 750.442 100.803C753.504 106.488 757.585 110.934 762.688 114.141C767.936 117.203 773.767 118.733 780.181 118.733ZM950.884 118.515H936.89V157H885.284V3.93333H958.975C973.115 3.93333 985.434 6.26577 995.93 10.9307C1006.43 15.5956 1014.52 22.3013 1020.2 31.048C1025.89 39.7947 1028.73 49.9991 1028.73 61.6613C1028.73 72.5947 1026.25 82.1431 1021.29 90.3067C1016.34 98.4702 1009.2 104.957 999.866 109.768L1032.01 157H976.906L950.884 118.515ZM976.687 61.6613C976.687 55.976 974.938 51.6027 971.439 48.5413C967.94 45.3342 962.692 43.7307 955.695 43.7307H936.89V79.592H955.695C962.692 79.592 967.94 78.0613 971.439 75C974.938 71.7929 976.687 67.3467 976.687 61.6613ZM1079.32 43.9493H1034.49V3.93333H1175.75V43.9493H1130.92V157H1079.32V43.9493Z"/>
</mask>
<path d="M85.9313 160.499C69.7499 160.499 55.1722 157.146 42.1979 150.44C29.2237 143.588 19.0193 134.113 11.5846 122.013C4.29571 109.768 0.65127 95.9191 0.65127 80.4667C0.65127 65.0142 4.29571 51.2382 11.5846 39.1387C19.0193 26.8933 29.2237 17.4178 42.1979 10.712C55.1722 3.86045 69.7499 0.434669 85.9313 0.434669C100.801 0.434669 114.066 3.05867 125.729 8.30667C137.391 13.5547 147.012 21.1351 154.593 31.048L122.011 60.1307C112.536 48.1769 101.384 42.2 88.5553 42.2C77.7677 42.2 69.0939 45.6987 62.5339 52.696C55.9739 59.5476 52.6939 68.8044 52.6939 80.4667C52.6939 92.1289 55.9739 101.459 62.5339 108.456C69.0939 115.308 77.7677 118.733 88.5553 118.733C101.384 118.733 112.536 112.756 122.011 100.803L154.593 129.885C147.012 139.798 137.391 147.379 125.729 152.627C114.066 157.875 100.801 160.499 85.9313 160.499ZM246.54 160.499C230.067 160.499 215.271 157.073 202.151 150.221C189.031 143.37 178.754 133.894 171.319 121.795C163.884 109.549 160.167 95.7733 160.167 80.4667C160.167 65.16 163.884 51.4569 171.319 39.3573C178.754 27.112 189.031 17.5636 202.151 10.712C215.271 3.86045 230.067 0.434669 246.54 0.434669C263.013 0.434669 277.81 3.86045 290.93 10.712C304.05 17.5636 314.327 27.112 321.762 39.3573C329.196 51.4569 332.914 65.16 332.914 80.4667C332.914 95.7733 329.196 109.549 321.762 121.795C314.327 133.894 304.05 143.37 290.93 150.221C277.81 157.073 263.013 160.499 246.54 160.499ZM246.54 118.733C252.954 118.733 258.713 117.203 263.815 114.141C269.063 110.934 273.218 106.488 276.279 100.803C279.34 94.9716 280.871 88.1929 280.871 80.4667C280.871 72.7404 279.34 66.0347 276.279 60.3493C273.218 54.5182 269.063 50.072 263.815 47.0107C258.713 43.8036 252.954 42.2 246.54 42.2C240.126 42.2 234.295 43.8036 229.047 47.0107C223.945 50.072 219.863 54.5182 216.802 60.3493C213.74 66.0347 212.21 72.7404 212.21 80.4667C212.21 88.1929 213.74 94.9716 216.802 100.803C219.863 106.488 223.945 110.934 229.047 114.141C234.295 117.203 240.126 118.733 246.54 118.733ZM488.31 157L487.873 87.2453L454.636 143.224H431.894L398.657 89.6507V157H351.644V3.93333H394.065L443.921 85.496L492.465 3.93333H534.886L535.324 157H488.31ZM611.879 42.856V69.096H675.73V108.019H611.879V157H560.274V3.93333H684.695V42.856H611.879ZM780.181 160.499C763.708 160.499 748.912 157.073 735.792 150.221C722.672 143.37 712.394 133.894 704.96 121.795C697.525 109.549 693.808 95.7733 693.808 80.4667C693.808 65.16 697.525 51.4569 704.96 39.3573C712.394 27.112 722.672 17.5636 735.792 10.712C748.912 3.86045 763.708 0.434669 780.181 0.434669C796.654 0.434669 811.45 3.86045 824.57 10.712C837.69 17.5636 847.968 27.112 855.402 39.3573C862.837 51.4569 866.554 65.16 866.554 80.4667C866.554 95.7733 862.837 109.549 855.402 121.795C847.968 133.894 837.69 143.37 824.57 150.221C811.45 157.073 796.654 160.499 780.181 160.499ZM780.181 118.733C786.595 118.733 792.353 117.203 797.456 114.141C802.704 110.934 806.858 106.488 809.92 100.803C812.981 94.9716 814.512 88.1929 814.512 80.4667C814.512 72.7404 812.981 66.0347 809.92 60.3493C806.858 54.5182 802.704 50.072 797.456 47.0107C792.353 43.8036 786.595 42.2 780.181 42.2C773.767 42.2 767.936 43.8036 762.688 47.0107C757.585 50.072 753.504 54.5182 750.442 60.3493C747.381 66.0347 745.85 72.7404 745.85 80.4667C745.85 88.1929 747.381 94.9716 750.442 100.803C753.504 106.488 757.585 110.934 762.688 114.141C767.936 117.203 773.767 118.733 780.181 118.733ZM950.884 118.515H936.89V157H885.284V3.93333H958.975C973.115 3.93333 985.434 6.26577 995.93 10.9307C1006.43 15.5956 1014.52 22.3013 1020.2 31.048C1025.89 39.7947 1028.73 49.9991 1028.73 61.6613C1028.73 72.5947 1026.25 82.1431 1021.29 90.3067C1016.34 98.4702 1009.2 104.957 999.866 109.768L1032.01 157H976.906L950.884 118.515ZM976.687 61.6613C976.687 55.976 974.938 51.6027 971.439 48.5413C967.94 45.3342 962.692 43.7307 955.695 43.7307H936.89V79.592H955.695C962.692 79.592 967.94 78.0613 971.439 75C974.938 71.7929 976.687 67.3467 976.687 61.6613ZM1079.32 43.9493H1034.49V3.93333H1175.75V43.9493H1130.92V157H1079.32V43.9493Z" fill="#642BB0"/>
<path d="M42.1979 150.44L41.264 152.209L41.2718 152.213L41.2796 152.217L42.1979 150.44ZM11.5846 122.013L9.86602 123.036L9.87321 123.048L9.88058 123.06L11.5846 122.013ZM11.5846 39.1387L9.87502 38.1007L9.87144 38.1066L11.5846 39.1387ZM42.1979 10.712L43.1162 12.4887L43.1241 12.4847L43.1319 12.4805L42.1979 10.712ZM125.729 8.30667L124.908 10.1305L125.729 8.30667ZM154.593 31.048L155.924 32.5401L157.307 31.3056L156.181 29.8331L154.593 31.048ZM122.011 60.1307L120.444 61.373L121.761 63.0348L123.343 61.6227L122.011 60.1307ZM62.5339 52.696L63.9786 54.0791L63.9858 54.0715L63.993 54.0639L62.5339 52.696ZM62.5339 108.456L61.0749 109.824L61.082 109.832L61.0893 109.839L62.5339 108.456ZM122.011 100.803L123.343 99.3106L121.761 97.8986L120.444 99.5603L122.011 100.803ZM154.593 129.885L156.181 131.1L157.307 129.628L155.924 128.393L154.593 129.885ZM125.729 152.627L124.908 150.803L125.729 152.627ZM85.9313 158.499C70.0344 158.499 55.777 155.207 43.1162 148.663L41.2796 152.217C54.5673 159.085 69.4654 162.499 85.9313 162.499V158.499ZM43.1319 148.671C30.4633 141.981 20.5294 132.75 13.2886 120.966L9.88058 123.06C17.5091 135.475 27.9841 145.196 41.264 152.209L43.1319 148.671ZM13.3032 120.99C6.21392 109.08 2.65127 95.5904 2.65127 80.4667H-1.34873C-1.34873 96.2478 2.37751 110.456 9.86602 123.036L13.3032 120.99ZM2.65127 80.4667C2.65127 65.3426 6.21395 51.9298 13.2978 40.1707L9.87144 38.1066C2.37747 50.5466 -1.34873 64.6858 -1.34873 80.4667H2.65127ZM13.2942 40.1766C20.5341 28.252 30.462 19.0291 43.1162 12.4887L41.2796 8.93529C27.9855 15.8064 17.5044 25.5347 9.87503 38.1007L13.2942 40.1766ZM43.1319 12.4805C55.7895 5.79617 70.0413 2.43467 85.9313 2.43467V-1.56533C69.4585 -1.56533 54.5548 1.92473 41.264 8.94346L43.1319 12.4805ZM85.9313 2.43467C100.563 2.43467 113.542 5.01602 124.908 10.1305L126.549 6.48283C114.59 1.10132 101.038 -1.56533 85.9313 -1.56533V2.43467ZM124.908 10.1305C136.275 15.2459 145.63 22.6203 153.004 32.2629L156.181 29.8331C148.394 19.6499 138.506 11.8634 126.549 6.48283L124.908 10.1305ZM153.261 29.5559L120.679 58.6386L123.343 61.6227L155.924 32.5401L153.261 29.5559ZM123.579 58.8883C113.804 46.5569 102.113 40.2 88.5553 40.2V44.2C100.655 44.2 111.268 49.7969 120.444 61.373L123.579 58.8883ZM88.5553 40.2C77.2909 40.2 68.062 43.8752 61.0749 51.3281L63.993 54.0639C70.1259 47.5222 78.2445 44.2 88.5553 44.2V40.2ZM61.0893 51.3129C54.0951 58.618 50.6939 68.4138 50.6939 80.4667H54.6939C54.6939 69.1951 57.8528 60.4771 63.9786 54.0791L61.0893 51.3129ZM50.6939 80.4667C50.6939 92.5212 54.0955 102.379 61.0749 109.824L63.993 107.088C57.8524 100.538 54.6939 91.7365 54.6939 80.4667H50.6939ZM61.0893 109.839C68.0798 117.14 77.3042 120.733 88.5553 120.733V116.733C78.2312 116.733 70.1081 113.475 63.9786 107.073L61.0893 109.839ZM88.5553 120.733C102.113 120.733 113.804 114.376 123.579 102.045L120.444 99.5603C111.268 111.136 100.655 116.733 88.5553 116.733V120.733ZM120.679 102.295L153.261 131.377L155.924 128.393L123.343 99.3106L120.679 102.295ZM153.004 128.67C145.63 138.313 136.275 145.687 124.908 150.803L126.549 154.451C138.506 149.07 148.394 141.283 156.181 131.1L153.004 128.67ZM124.908 150.803C113.542 155.917 100.563 158.499 85.9313 158.499V162.499C101.038 162.499 114.59 159.832 126.549 154.451L124.908 150.803ZM202.151 150.221L203.077 148.449L202.151 150.221ZM171.319 121.795L169.609 122.833L169.615 122.842L171.319 121.795ZM171.319 39.3573L173.023 40.4044L173.028 40.3953L171.319 39.3573ZM290.93 10.712L291.855 8.93918L290.93 10.712ZM321.762 39.3573L320.052 40.3953L320.058 40.4044L321.762 39.3573ZM321.762 121.795L323.466 122.842L323.471 122.833L321.762 121.795ZM290.93 150.221L291.855 151.994L290.93 150.221ZM263.815 114.141L264.844 115.856L264.851 115.852L264.858 115.848L263.815 114.141ZM276.279 100.803L278.04 101.751L278.045 101.742L278.05 101.732L276.279 100.803ZM276.279 60.3493L274.508 61.279L274.513 61.2883L274.518 61.2975L276.279 60.3493ZM263.815 47.0107L262.751 48.7039L262.779 48.7216L262.807 48.7382L263.815 47.0107ZM229.047 47.0107L230.076 48.7256L230.083 48.7215L230.09 48.7172L229.047 47.0107ZM216.802 60.3493L218.562 61.2975L218.567 61.2883L218.572 61.279L216.802 60.3493ZM216.802 100.803L215.031 101.732L215.036 101.742L215.041 101.751L216.802 100.803ZM229.047 114.141L227.983 115.835L228.011 115.852L228.039 115.869L229.047 114.141ZM246.54 158.499C230.353 158.499 215.88 155.135 203.077 148.449L201.225 151.994C214.662 159.011 229.782 162.499 246.54 162.499V158.499ZM203.077 148.449C190.263 141.757 180.26 132.526 173.023 120.748L169.615 122.842C177.247 135.262 187.799 144.983 201.225 151.994L203.077 148.449ZM173.028 120.757C165.797 108.846 162.167 95.4334 162.167 80.4667H158.167C158.167 96.1133 161.972 110.253 169.609 122.833L173.028 120.757ZM162.167 80.4667C162.167 65.4998 165.797 52.1644 173.023 40.4044L169.615 38.3103C161.972 50.7493 158.167 64.8202 158.167 80.4667H162.167ZM173.028 40.3953C180.267 28.4725 190.269 19.1734 203.077 12.4848L201.225 8.93918C187.793 15.9537 177.24 25.7515 169.609 38.3194L173.028 40.3953ZM203.077 12.4848C215.88 5.79873 230.353 2.43467 246.54 2.43467V-1.56533C229.782 -1.56533 214.662 1.92216 201.225 8.93918L203.077 12.4848ZM246.54 2.43467C262.728 2.43467 277.201 5.79873 290.004 12.4848L291.855 8.93918C278.419 1.92216 263.299 -1.56533 246.54 -1.56533V2.43467ZM290.004 12.4848C302.812 19.1734 312.813 28.4725 320.052 40.3953L323.471 38.3194C315.841 25.7515 305.287 15.9537 291.855 8.93918L290.004 12.4848ZM320.058 40.4044C327.284 52.1644 330.914 65.4998 330.914 80.4667H334.914C334.914 64.8202 331.109 50.7493 323.466 38.3103L320.058 40.4044ZM330.914 80.4667C330.914 95.4334 327.284 108.846 320.052 120.757L323.471 122.833C331.109 110.253 334.914 96.1133 334.914 80.4667H330.914ZM320.058 120.748C312.82 132.526 302.818 141.757 290.004 148.449L291.855 151.994C305.281 144.983 315.834 135.262 323.466 122.842L320.058 120.748ZM290.004 148.449C277.201 155.135 262.728 158.499 246.54 158.499V162.499C263.299 162.499 278.419 159.011 291.855 151.994L290.004 148.449ZM246.54 120.733C253.288 120.733 259.407 119.119 264.844 115.856L262.786 112.426C258.019 115.287 252.621 116.733 246.54 116.733V120.733ZM264.858 115.848C270.423 112.447 274.819 107.732 278.04 101.751L274.518 99.8545C271.616 105.244 267.702 109.422 262.772 112.435L264.858 115.848ZM278.05 101.732C281.286 95.5686 282.871 88.4607 282.871 80.4667H278.871C278.871 87.9251 277.395 94.3745 274.508 99.873L278.05 101.732ZM282.871 80.4667C282.871 72.4743 281.286 65.4301 278.04 59.4011L274.518 61.2975C277.394 66.6393 278.871 73.0066 278.871 80.4667H282.871ZM278.05 59.4197C274.829 53.2853 270.422 48.5494 264.823 45.2831L262.807 48.7382C267.704 51.5946 271.606 55.7512 274.508 61.279L278.05 59.4197ZM264.879 45.3174C259.437 41.8968 253.306 40.2 246.54 40.2V44.2C252.603 44.2 257.988 45.7103 262.751 48.7039L264.879 45.3174ZM246.54 40.2C239.775 40.2 233.58 41.8966 228.004 45.3041L230.09 48.7172C235.01 45.7105 240.477 44.2 246.54 44.2V40.2ZM228.018 45.2957C222.568 48.5655 218.244 53.2995 215.031 59.4197L218.572 61.279C221.482 55.737 225.321 51.5785 230.076 48.7256L228.018 45.2957ZM215.041 59.4011C211.794 65.4301 210.21 72.4743 210.21 80.4667H214.21C214.21 73.0066 215.686 66.6393 218.562 61.2975L215.041 59.4011ZM210.21 80.4667C210.21 88.4607 211.795 95.5686 215.031 101.732L218.572 99.873C215.686 94.3745 214.21 87.9251 214.21 80.4667H210.21ZM215.041 101.751C218.254 107.718 222.567 112.43 227.983 115.835L230.111 112.448C225.323 109.438 221.472 105.258 218.562 99.8545L215.041 101.751ZM228.039 115.869C233.61 119.119 239.792 120.733 246.54 120.733V116.733C240.46 116.733 234.98 115.287 230.055 112.414L228.039 115.869ZM488.31 157L486.31 157.013L486.323 159H488.31V157ZM487.873 87.2453L489.873 87.2328L489.828 80.0356L486.153 86.2243L487.873 87.2453ZM454.636 143.224V145.224H455.774L456.355 144.245L454.636 143.224ZM431.894 143.224L430.195 144.278L430.782 145.224H431.894V143.224ZM398.657 89.6507L400.357 88.5963L396.657 82.6333V89.6507H398.657ZM398.657 157V159H400.657V157H398.657ZM351.644 157H349.644V159H351.644V157ZM351.644 3.93333V1.93333H349.644V3.93333H351.644ZM394.065 3.93333L395.772 2.89024L395.187 1.93333H394.065V3.93333ZM443.921 85.496L442.215 86.5391L443.944 89.3681L445.64 86.5189L443.921 85.496ZM492.465 3.93333V1.93333H491.328L490.746 2.91045L492.465 3.93333ZM534.886 3.93333L536.886 3.92761L536.881 1.93333H534.886V3.93333ZM535.324 157V159H537.329L537.324 156.994L535.324 157ZM490.31 156.987L489.873 87.2328L485.873 87.2579L486.31 157.013L490.31 156.987ZM486.153 86.2243L452.916 142.203L456.355 144.245L489.593 88.2664L486.153 86.2243ZM454.636 141.224H431.894V145.224H454.636V141.224ZM433.594 142.17L400.357 88.5963L396.958 90.705L430.195 144.278L433.594 142.17ZM396.657 89.6507V157H400.657V89.6507H396.657ZM398.657 155H351.644V159H398.657V155ZM353.644 157V3.93333H349.644V157H353.644ZM351.644 5.93333H394.065V1.93333H351.644V5.93333ZM392.359 4.97642L442.215 86.5391L445.628 84.4529L395.772 2.89024L392.359 4.97642ZM445.64 86.5189L494.184 4.95621L490.746 2.91045L442.202 84.4731L445.64 86.5189ZM492.465 5.93333H534.886V1.93333H492.465V5.93333ZM532.886 3.93904L533.324 157.006L537.324 156.994L536.886 3.92761L532.886 3.93904ZM535.324 155H488.31V159H535.324V155ZM611.879 42.856V40.856H609.879V42.856H611.879ZM611.879 69.096H609.879V71.096H611.879V69.096ZM675.73 69.096H677.73V67.096H675.73V69.096ZM675.73 108.019V110.019H677.73V108.019H675.73ZM611.879 108.019V106.019H609.879V108.019H611.879ZM611.879 157V159H613.879V157H611.879ZM560.274 157H558.274V159H560.274V157ZM560.274 3.93333V1.93333H558.274V3.93333H560.274ZM684.695 3.93333H686.695V1.93333H684.695V3.93333ZM684.695 42.856V44.856H686.695V42.856H684.695ZM609.879 42.856V69.096H613.879V42.856H609.879ZM611.879 71.096H675.73V67.096H611.879V71.096ZM673.73 69.096V108.019H677.73V69.096H673.73ZM675.73 106.019H611.879V110.019H675.73V106.019ZM609.879 108.019V157H613.879V108.019H609.879ZM611.879 155H560.274V159H611.879V155ZM562.274 157V3.93333H558.274V157H562.274ZM560.274 5.93333H684.695V1.93333H560.274V5.93333ZM682.695 3.93333V42.856H686.695V3.93333H682.695ZM684.695 40.856H611.879V44.856H684.695V40.856ZM735.792 150.221L736.717 148.449L735.792 150.221ZM704.96 121.795L703.25 122.833L703.255 122.842L704.96 121.795ZM704.96 39.3573L706.664 40.4044L706.669 40.3953L704.96 39.3573ZM824.57 10.712L825.496 8.93918L824.57 10.712ZM855.402 39.3573L853.693 40.3953L853.698 40.4044L855.402 39.3573ZM855.402 121.795L857.106 122.842L857.112 122.833L855.402 121.795ZM824.57 150.221L825.496 151.994L824.57 150.221ZM797.456 114.141L798.484 115.856L798.491 115.852L798.498 115.848L797.456 114.141ZM809.919 100.803L811.68 101.751L811.685 101.742L811.69 101.732L809.919 100.803ZM809.919 60.3493L808.149 61.279L808.154 61.2883L808.159 61.2975L809.919 60.3493ZM797.456 47.0107L796.391 48.7039L796.419 48.7216L796.448 48.7382L797.456 47.0107ZM762.688 47.0107L763.716 48.7256L763.724 48.7215L763.73 48.7172L762.688 47.0107ZM750.442 60.3493L752.203 61.2975L752.208 61.2883L752.213 61.279L750.442 60.3493ZM750.442 100.803L748.671 101.732L748.676 101.742L748.681 101.751L750.442 100.803ZM762.688 114.141L761.623 115.835L761.651 115.852L761.68 115.869L762.688 114.141ZM780.181 158.499C763.993 158.499 749.521 155.135 736.717 148.449L734.866 151.994C748.303 159.011 763.423 162.499 780.181 162.499V158.499ZM736.717 148.449C723.903 141.757 713.901 132.526 706.664 120.748L703.255 122.842C710.887 135.262 721.44 144.983 734.866 151.994L736.717 148.449ZM706.669 120.757C699.438 108.846 695.807 95.4334 695.807 80.4667H691.807C691.807 96.1133 695.612 110.253 703.25 122.833L706.669 120.757ZM695.807 80.4667C695.807 65.4998 699.438 52.1644 706.664 40.4044L703.255 38.3103C695.612 50.7493 691.807 64.8202 691.807 80.4667H695.807ZM706.669 40.3953C713.908 28.4725 723.909 19.1734 736.717 12.4848L734.866 8.93918C721.434 15.9537 710.88 25.7515 703.25 38.3194L706.669 40.3953ZM736.717 12.4848C749.521 5.79873 763.993 2.43467 780.181 2.43467V-1.56533C763.423 -1.56533 748.303 1.92216 734.866 8.93918L736.717 12.4848ZM780.181 2.43467C796.368 2.43467 810.841 5.79873 823.644 12.4848L825.496 8.93918C812.059 1.92216 796.939 -1.56533 780.181 -1.56533V2.43467ZM823.644 12.4848C836.452 19.1734 846.454 28.4725 853.693 40.3953L857.112 38.3194C849.481 25.7515 838.928 15.9537 825.496 8.93918L823.644 12.4848ZM853.698 40.4044C860.924 52.1644 864.554 65.4998 864.554 80.4667H868.554C868.554 64.8202 864.749 50.7493 857.106 38.3103L853.698 40.4044ZM864.554 80.4667C864.554 95.4334 860.924 108.846 853.693 120.757L857.112 122.833C864.75 110.253 868.554 96.1133 868.554 80.4667H864.554ZM853.698 120.748C846.461 132.526 836.458 141.757 823.644 148.449L825.496 151.994C838.922 144.983 849.474 135.262 857.106 122.842L853.698 120.748ZM823.644 148.449C810.841 155.135 796.368 158.499 780.181 158.499V162.499C796.939 162.499 812.059 159.011 825.496 151.994L823.644 148.449ZM780.181 120.733C786.928 120.733 793.047 119.119 798.484 115.856L796.427 112.426C791.659 115.287 786.262 116.733 780.181 116.733V120.733ZM798.498 115.848C804.064 112.447 808.46 107.732 811.68 101.751L808.159 99.8545C805.256 105.244 801.343 109.422 796.413 112.435L798.498 115.848ZM811.69 101.732C814.926 95.5686 816.512 88.4607 816.512 80.4667H812.512C812.512 87.9251 811.035 94.3745 808.149 99.873L811.69 101.732ZM816.512 80.4667C816.512 72.4743 814.927 65.4301 811.68 59.4011L808.159 61.2975C811.035 66.6393 812.512 73.0066 812.512 80.4667H816.512ZM811.69 59.4197C808.47 53.2853 804.063 48.5494 798.463 45.2831L796.448 48.7382C801.344 51.5946 805.247 55.7512 808.149 61.279L811.69 59.4197ZM798.52 45.3174C793.078 41.8968 786.946 40.2 780.181 40.2V44.2C786.244 44.2 791.629 45.7103 796.391 48.7039L798.52 45.3174ZM780.181 40.2C773.415 40.2 767.22 41.8966 761.645 45.3041L763.73 48.7172C768.651 45.7105 774.118 44.2 780.181 44.2V40.2ZM761.659 45.2957C756.209 48.5655 751.885 53.2995 748.671 59.4197L752.213 61.279C755.123 55.737 758.962 51.5785 763.716 48.7256L761.659 45.2957ZM748.681 59.4011C745.435 65.4301 743.85 72.4743 743.85 80.4667H747.85C747.85 73.0066 749.327 66.6393 752.203 61.2975L748.681 59.4011ZM743.85 80.4667C743.85 88.4607 745.435 95.5686 748.671 101.732L752.213 99.873C749.326 94.3745 747.85 87.9251 747.85 80.4667H743.85ZM748.681 101.751C751.894 107.718 756.207 112.43 761.623 115.835L763.752 112.448C758.963 109.438 755.113 105.258 752.203 99.8545L748.681 101.751ZM761.68 115.869C767.251 119.119 773.433 120.733 780.181 120.733V116.733C774.1 116.733 768.62 115.287 763.695 112.414L761.68 115.869ZM950.884 118.515L952.541 117.394L951.946 116.515H950.884V118.515ZM936.89 118.515V116.515H934.89V118.515H936.89ZM936.89 157V159H938.89V157H936.89ZM885.284 157H883.284V159H885.284V157ZM885.284 3.93333V1.93333H883.284V3.93333H885.284ZM995.93 10.9307L995.117 12.7583L995.93 10.9307ZM1020.2 31.048L1018.52 32.138L1020.2 31.048ZM1021.29 90.3067L1019.59 89.2687L1021.29 90.3067ZM999.866 109.768L998.949 107.99L996.941 109.026L998.212 110.893L999.866 109.768ZM1032.01 157V159H1035.79L1033.66 155.875L1032.01 157ZM976.906 157L975.249 158.12L975.844 159H976.906V157ZM971.439 48.5413L970.088 50.0156L970.105 50.0313L970.122 50.0465L971.439 48.5413ZM936.89 43.7307V41.7307H934.89V43.7307H936.89ZM936.89 79.592H934.89V81.592H936.89V79.592ZM971.439 75L972.756 76.5052L972.773 76.4899L972.79 76.4743L971.439 75ZM950.884 116.515H936.89V120.515H950.884V116.515ZM934.89 118.515V157H938.89V118.515H934.89ZM936.89 155H885.284V159H936.89V155ZM887.284 157V3.93333H883.284V157H887.284ZM885.284 5.93333H958.975V1.93333H885.284V5.93333ZM958.975 5.93333C972.899 5.93333 984.929 8.23013 995.117 12.7583L996.742 9.10304C985.938 4.30143 973.332 1.93333 958.975 1.93333V5.93333ZM995.117 12.7583C1005.3 17.2826 1013.07 23.7481 1018.52 32.138L1021.88 29.958C1015.96 20.8546 1007.55 13.9085 996.742 9.10304L995.117 12.7583ZM1018.52 32.138C1023.97 40.5228 1026.73 50.3389 1026.73 61.6613H1030.73C1030.73 49.6594 1027.8 39.0665 1021.88 29.958L1018.52 32.138ZM1026.73 61.6613C1026.73 72.2827 1024.33 81.4612 1019.59 89.2687L1023 91.3446C1028.18 82.825 1030.73 72.9066 1030.73 61.6613H1026.73ZM1019.59 89.2687C1014.84 97.0866 1007.98 103.331 998.949 107.99L1000.78 111.546C1010.41 106.583 1017.84 99.8538 1023 91.3446L1019.59 89.2687ZM998.212 110.893L1030.36 158.125L1033.66 155.875L1001.52 108.643L998.212 110.893ZM1032.01 155H976.906V159H1032.01V155ZM978.562 155.88L952.541 117.394L949.227 119.635L975.249 158.12L978.562 155.88ZM978.687 61.6613C978.687 55.5391 976.784 50.5606 972.756 47.0362L970.122 50.0465C973.091 52.6448 974.687 56.4129 974.687 61.6613H978.687ZM972.79 47.067C968.781 43.3918 962.96 41.7307 955.695 41.7307V45.7307C962.425 45.7307 967.1 47.2767 970.088 50.0156L972.79 47.067ZM955.695 41.7307H936.89V45.7307H955.695V41.7307ZM934.89 43.7307V79.592H938.89V43.7307H934.89ZM936.89 81.592H955.695V77.592H936.89V81.592ZM955.695 81.592C962.94 81.592 968.747 80.013 972.756 76.5052L970.122 73.4948C967.134 76.1097 962.445 77.592 955.695 77.592V81.592ZM972.79 76.4743C976.784 72.814 978.687 67.7868 978.687 61.6613H974.687C974.687 66.9065 973.092 70.7718 970.088 73.5257L972.79 76.4743ZM1079.32 43.9493H1081.32V41.9493H1079.32V43.9493ZM1034.49 43.9493H1032.49V45.9493H1034.49V43.9493ZM1034.49 3.93333V1.93333H1032.49V3.93333H1034.49ZM1175.75 3.93333H1177.75V1.93333H1175.75V3.93333ZM1175.75 43.9493V45.9493H1177.75V43.9493H1175.75ZM1130.92 43.9493V41.9493H1128.92V43.9493H1130.92ZM1130.92 157V159H1132.92V157H1130.92ZM1079.32 157H1077.32V159H1079.32V157ZM1079.32 41.9493H1034.49V45.9493H1079.32V41.9493ZM1036.49 43.9493V3.93333H1032.49V43.9493H1036.49ZM1034.49 5.93333H1175.75V1.93333H1034.49V5.93333ZM1173.75 3.93333V43.9493H1177.75V3.93333H1173.75ZM1175.75 41.9493H1130.92V45.9493H1175.75V41.9493ZM1128.92 43.9493V157H1132.92V43.9493H1128.92ZM1130.92 155H1079.32V159H1130.92V155ZM1081.32 157V43.9493H1077.32V157H1081.32Z" fill="url(#paint0_linear_97_15474)" mask="url(#path-1-outside-1_97_15474)"/>
<defs>
<linearGradient id="paint0_linear_97_15474" x1="590.272" y1="-158.412" x2="590.272" y2="253.573" gradientUnits="userSpaceOnUse">
<stop stop-color="#5C60C6"/>
<stop offset="1" stop-color="#5155B5" stop-opacity="0"/>
</linearGradient>
</defs>
</svg>
