<svg width="1270" height="161" viewBox="0 0 1270 161" fill="none" xmlns="http://www.w3.org/2000/svg">
<mask id="path-1-outside-1_97_15478" maskUnits="userSpaceOnUse" x="-2" y="-2" width="1274" height="165" fill="black">
<rect fill="white" x="-2" y="-2" width="1274" height="165"/>
<path d="M85.8844 160.499C69.7031 160.499 55.1253 157.146 42.1511 150.44C29.1768 143.588 18.9724 134.113 11.5377 122.013C4.24884 109.768 0.604395 95.9191 0.604395 80.4667C0.604395 65.0142 4.24884 51.2382 11.5377 39.1387C18.9724 26.8933 29.1768 17.4178 42.1511 10.712C55.1253 3.86045 69.7031 0.434669 85.8844 0.434669C100.754 0.434669 114.02 3.05867 125.682 8.30667C137.344 13.5547 146.965 21.1351 154.546 31.048L121.964 60.1307C112.489 48.1769 101.337 42.2 88.5084 42.2C77.7208 42.2 69.0471 45.6987 62.4871 52.696C55.9271 59.5476 52.6471 68.8044 52.6471 80.4667C52.6471 92.1289 55.9271 101.459 62.4871 108.456C69.0471 115.308 77.7208 118.733 88.5084 118.733C101.337 118.733 112.489 112.756 121.964 100.803L154.546 129.885C146.965 139.798 137.344 147.379 125.682 152.627C114.02 157.875 100.754 160.499 85.8844 160.499ZM246.493 160.499C230.02 160.499 215.224 157.073 202.104 150.221C188.984 143.37 178.707 133.894 171.272 121.795C163.837 109.549 160.12 95.7733 160.12 80.4667C160.12 65.16 163.837 51.4569 171.272 39.3573C178.707 27.112 188.984 17.5636 202.104 10.712C215.224 3.86045 230.02 0.434669 246.493 0.434669C262.966 0.434669 277.763 3.86045 290.883 10.712C304.003 17.5636 314.28 27.112 321.715 39.3573C329.149 51.4569 332.867 65.16 332.867 80.4667C332.867 95.7733 329.149 109.549 321.715 121.795C314.28 133.894 304.003 143.37 290.883 150.221C277.763 157.073 262.966 160.499 246.493 160.499ZM246.493 118.733C252.908 118.733 258.666 117.203 263.768 114.141C269.016 110.934 273.171 106.488 276.232 100.803C279.293 94.9716 280.824 88.1929 280.824 80.4667C280.824 72.7404 279.293 66.0347 276.232 60.3493C273.171 54.5182 269.016 50.072 263.768 47.0107C258.666 43.8036 252.908 42.2 246.493 42.2C240.079 42.2 234.248 43.8036 229 47.0107C223.898 50.072 219.816 54.5182 216.755 60.3493C213.693 66.0347 212.163 72.7404 212.163 80.4667C212.163 88.1929 213.693 94.9716 216.755 100.803C219.816 106.488 223.898 110.934 229 114.141C234.248 117.203 240.079 118.733 246.493 118.733ZM502.477 3.93333V157H460.056L401.89 87.464V157H351.597V3.93333H394.018L452.184 73.4693V3.93333H502.477ZM560.579 43.9493H515.752V3.93333H657.011V43.9493H612.184V157H560.579V43.9493ZM767.031 130.323H708.866L698.588 157H646.108L713.02 3.93333H763.751L830.663 157H777.308L767.031 130.323ZM752.818 93.1493L737.948 54.664L723.079 93.1493H752.818ZM915.921 160.499C899.74 160.499 885.162 157.146 872.187 150.44C859.213 143.588 849.009 134.113 841.574 122.013C834.285 109.768 830.641 95.9191 830.641 80.4667C830.641 65.0142 834.285 51.2382 841.574 39.1387C849.009 26.8933 859.213 17.4178 872.187 10.712C885.162 3.86045 899.74 0.434669 915.921 0.434669C930.79 0.434669 944.056 3.05867 955.718 8.30667C967.38 13.5547 977.002 21.1351 984.582 31.048L952.001 60.1307C942.525 48.1769 931.373 42.2 918.545 42.2C907.757 42.2 899.083 45.6987 892.523 52.696C885.963 59.5476 882.684 68.8044 882.684 80.4667C882.684 92.1289 885.963 101.459 892.523 108.456C899.083 115.308 907.757 118.733 918.545 118.733C931.373 118.733 942.525 112.756 952.001 100.803L984.582 129.885C977.002 139.798 967.38 147.379 955.718 152.627C944.056 157.875 930.79 160.499 915.921 160.499ZM1031.65 43.9493H986.825V3.93333H1128.08V43.9493H1083.26V157H1031.65V43.9493ZM1198.56 160.499C1185.88 160.499 1173.49 159.114 1161.39 156.344C1149.43 153.428 1139.59 149.565 1131.87 144.755L1148.48 107.144C1155.77 111.372 1163.94 114.797 1172.98 117.421C1182.01 119.9 1190.69 121.139 1199 121.139C1206.14 121.139 1211.24 120.483 1214.3 119.171C1217.36 117.713 1218.9 115.599 1218.9 112.829C1218.9 109.622 1216.85 107.217 1212.77 105.613C1208.84 104.01 1202.28 102.26 1193.09 100.365C1181.28 97.8871 1171.44 95.2631 1163.57 92.4933C1155.7 89.5778 1148.85 84.9129 1143.02 78.4987C1137.19 71.9387 1134.27 63.1191 1134.27 52.04C1134.27 42.4187 1136.97 33.672 1142.36 25.8C1147.76 17.928 1155.77 11.7324 1166.42 7.21333C1177.2 2.69422 1190.25 0.434669 1205.56 0.434669C1216.05 0.434669 1226.33 1.60089 1236.39 3.93333C1246.59 6.11999 1255.56 9.4 1263.28 13.7733L1247.76 51.1653C1232.74 43.5849 1218.53 39.7947 1205.12 39.7947C1191.85 39.7947 1185.22 43.0018 1185.22 49.416C1185.22 52.4773 1187.19 54.8098 1191.12 56.4133C1195.06 57.8711 1201.55 59.4747 1210.59 61.224C1222.25 63.4107 1232.09 65.9618 1240.11 68.8773C1248.12 71.6471 1255.05 76.2391 1260.88 82.6533C1266.86 89.0676 1269.84 97.8142 1269.84 108.893C1269.84 118.515 1267.15 127.261 1261.75 135.133C1256.36 142.86 1248.27 149.055 1237.48 153.72C1226.84 158.239 1213.87 160.499 1198.56 160.499Z"/>
</mask>
<path d="M85.8844 160.499C69.7031 160.499 55.1253 157.146 42.1511 150.44C29.1768 143.588 18.9724 134.113 11.5377 122.013C4.24884 109.768 0.604395 95.9191 0.604395 80.4667C0.604395 65.0142 4.24884 51.2382 11.5377 39.1387C18.9724 26.8933 29.1768 17.4178 42.1511 10.712C55.1253 3.86045 69.7031 0.434669 85.8844 0.434669C100.754 0.434669 114.02 3.05867 125.682 8.30667C137.344 13.5547 146.965 21.1351 154.546 31.048L121.964 60.1307C112.489 48.1769 101.337 42.2 88.5084 42.2C77.7208 42.2 69.0471 45.6987 62.4871 52.696C55.9271 59.5476 52.6471 68.8044 52.6471 80.4667C52.6471 92.1289 55.9271 101.459 62.4871 108.456C69.0471 115.308 77.7208 118.733 88.5084 118.733C101.337 118.733 112.489 112.756 121.964 100.803L154.546 129.885C146.965 139.798 137.344 147.379 125.682 152.627C114.02 157.875 100.754 160.499 85.8844 160.499ZM246.493 160.499C230.02 160.499 215.224 157.073 202.104 150.221C188.984 143.37 178.707 133.894 171.272 121.795C163.837 109.549 160.12 95.7733 160.12 80.4667C160.12 65.16 163.837 51.4569 171.272 39.3573C178.707 27.112 188.984 17.5636 202.104 10.712C215.224 3.86045 230.02 0.434669 246.493 0.434669C262.966 0.434669 277.763 3.86045 290.883 10.712C304.003 17.5636 314.28 27.112 321.715 39.3573C329.149 51.4569 332.867 65.16 332.867 80.4667C332.867 95.7733 329.149 109.549 321.715 121.795C314.28 133.894 304.003 143.37 290.883 150.221C277.763 157.073 262.966 160.499 246.493 160.499ZM246.493 118.733C252.908 118.733 258.666 117.203 263.768 114.141C269.016 110.934 273.171 106.488 276.232 100.803C279.293 94.9716 280.824 88.1929 280.824 80.4667C280.824 72.7404 279.293 66.0347 276.232 60.3493C273.171 54.5182 269.016 50.072 263.768 47.0107C258.666 43.8036 252.908 42.2 246.493 42.2C240.079 42.2 234.248 43.8036 229 47.0107C223.898 50.072 219.816 54.5182 216.755 60.3493C213.693 66.0347 212.163 72.7404 212.163 80.4667C212.163 88.1929 213.693 94.9716 216.755 100.803C219.816 106.488 223.898 110.934 229 114.141C234.248 117.203 240.079 118.733 246.493 118.733ZM502.477 3.93333V157H460.056L401.89 87.464V157H351.597V3.93333H394.018L452.184 73.4693V3.93333H502.477ZM560.579 43.9493H515.752V3.93333H657.011V43.9493H612.184V157H560.579V43.9493ZM767.031 130.323H708.866L698.588 157H646.108L713.02 3.93333H763.751L830.663 157H777.308L767.031 130.323ZM752.818 93.1493L737.948 54.664L723.079 93.1493H752.818ZM915.921 160.499C899.74 160.499 885.162 157.146 872.187 150.44C859.213 143.588 849.009 134.113 841.574 122.013C834.285 109.768 830.641 95.9191 830.641 80.4667C830.641 65.0142 834.285 51.2382 841.574 39.1387C849.009 26.8933 859.213 17.4178 872.187 10.712C885.162 3.86045 899.74 0.434669 915.921 0.434669C930.79 0.434669 944.056 3.05867 955.718 8.30667C967.38 13.5547 977.002 21.1351 984.582 31.048L952.001 60.1307C942.525 48.1769 931.373 42.2 918.545 42.2C907.757 42.2 899.083 45.6987 892.523 52.696C885.963 59.5476 882.684 68.8044 882.684 80.4667C882.684 92.1289 885.963 101.459 892.523 108.456C899.083 115.308 907.757 118.733 918.545 118.733C931.373 118.733 942.525 112.756 952.001 100.803L984.582 129.885C977.002 139.798 967.38 147.379 955.718 152.627C944.056 157.875 930.79 160.499 915.921 160.499ZM1031.65 43.9493H986.825V3.93333H1128.08V43.9493H1083.26V157H1031.65V43.9493ZM1198.56 160.499C1185.88 160.499 1173.49 159.114 1161.39 156.344C1149.43 153.428 1139.59 149.565 1131.87 144.755L1148.48 107.144C1155.77 111.372 1163.94 114.797 1172.98 117.421C1182.01 119.9 1190.69 121.139 1199 121.139C1206.14 121.139 1211.24 120.483 1214.3 119.171C1217.36 117.713 1218.9 115.599 1218.9 112.829C1218.9 109.622 1216.85 107.217 1212.77 105.613C1208.84 104.01 1202.28 102.26 1193.09 100.365C1181.28 97.8871 1171.44 95.2631 1163.57 92.4933C1155.7 89.5778 1148.85 84.9129 1143.02 78.4987C1137.19 71.9387 1134.27 63.1191 1134.27 52.04C1134.27 42.4187 1136.97 33.672 1142.36 25.8C1147.76 17.928 1155.77 11.7324 1166.42 7.21333C1177.2 2.69422 1190.25 0.434669 1205.56 0.434669C1216.05 0.434669 1226.33 1.60089 1236.39 3.93333C1246.59 6.11999 1255.56 9.4 1263.28 13.7733L1247.76 51.1653C1232.74 43.5849 1218.53 39.7947 1205.12 39.7947C1191.85 39.7947 1185.22 43.0018 1185.22 49.416C1185.22 52.4773 1187.19 54.8098 1191.12 56.4133C1195.06 57.8711 1201.55 59.4747 1210.59 61.224C1222.25 63.4107 1232.09 65.9618 1240.11 68.8773C1248.12 71.6471 1255.05 76.2391 1260.88 82.6533C1266.86 89.0676 1269.84 97.8142 1269.84 108.893C1269.84 118.515 1267.15 127.261 1261.75 135.133C1256.36 142.86 1248.27 149.055 1237.48 153.72C1226.84 158.239 1213.87 160.499 1198.56 160.499Z" fill="#642BB0"/>
<path d="M42.1511 150.44L41.2171 152.209L41.2249 152.213L41.2328 152.217L42.1511 150.44ZM11.5377 122.013L9.81914 123.036L9.82634 123.048L9.83371 123.06L11.5377 122.013ZM11.5377 39.1387L9.82814 38.1007L9.82457 38.1066L11.5377 39.1387ZM42.1511 10.712L43.0694 12.4887L43.0772 12.4847L43.085 12.4805L42.1511 10.712ZM125.682 8.30667L124.861 10.1305L125.682 8.30667ZM154.546 31.048L155.878 32.5401L157.26 31.3056L156.134 29.8331L154.546 31.048ZM121.964 60.1307L120.397 61.373L121.714 63.0348L123.296 61.6227L121.964 60.1307ZM62.4871 52.696L63.9317 54.0791L63.9389 54.0715L63.9461 54.0639L62.4871 52.696ZM62.4871 108.456L61.028 109.824L61.0352 109.832L61.0424 109.839L62.4871 108.456ZM121.964 100.803L123.296 99.3106L121.714 97.8986L120.397 99.5603L121.964 100.803ZM154.546 129.885L156.134 131.1L157.26 129.628L155.878 128.393L154.546 129.885ZM125.682 152.627L124.861 150.803L125.682 152.627ZM85.8844 158.499C69.9876 158.499 55.7301 155.207 43.0694 148.663L41.2328 152.217C54.5204 159.085 69.4186 162.499 85.8844 162.499V158.499ZM43.085 148.671C30.4164 141.981 20.4825 132.75 13.2417 120.966L9.83371 123.06C17.4623 135.475 27.9372 145.196 41.2171 152.209L43.085 148.671ZM13.2563 120.99C6.16704 109.08 2.60439 95.5904 2.60439 80.4667H-1.39561C-1.39561 96.2478 2.33064 110.456 9.81914 123.036L13.2563 120.99ZM2.60439 80.4667C2.60439 65.3426 6.16708 51.9298 13.2509 40.1707L9.82457 38.1066C2.3306 50.5466 -1.39561 64.6858 -1.39561 80.4667H2.60439ZM13.2473 40.1766C20.4873 28.252 30.4151 19.0291 43.0694 12.4887L41.2328 8.93529C27.9386 15.8064 17.4575 25.5347 9.82815 38.1007L13.2473 40.1766ZM43.085 12.4805C55.7427 5.79617 69.9945 2.43467 85.8844 2.43467V-1.56533C69.4117 -1.56533 54.5079 1.92473 41.2171 8.94346L43.085 12.4805ZM85.8844 2.43467C100.516 2.43467 113.495 5.01602 124.861 10.1305L126.502 6.48283C114.544 1.10132 100.991 -1.56533 85.8844 -1.56533V2.43467ZM124.861 10.1305C136.229 15.2459 145.583 22.6203 152.957 32.2629L156.134 29.8331C148.347 19.6499 138.459 11.8634 126.502 6.48283L124.861 10.1305ZM153.214 29.5559L120.633 58.6386L123.296 61.6227L155.878 32.5401L153.214 29.5559ZM123.532 58.8883C113.757 46.5569 102.066 40.2 88.5084 40.2V44.2C100.608 44.2 111.221 49.7969 120.397 61.373L123.532 58.8883ZM88.5084 40.2C77.2441 40.2 68.0151 43.8752 61.028 51.3281L63.9461 54.0639C70.079 47.5222 78.1976 44.2 88.5084 44.2V40.2ZM61.0424 51.3129C54.0482 58.618 50.6471 68.4138 50.6471 80.4667H54.6471C54.6471 69.1951 57.8059 60.4771 63.9317 54.0791L61.0424 51.3129ZM50.6471 80.4667C50.6471 92.5212 54.0486 102.379 61.028 109.824L63.9461 107.088C57.8055 100.538 54.6471 91.7365 54.6471 80.4667H50.6471ZM61.0424 109.839C68.0329 117.14 77.2574 120.733 88.5084 120.733V116.733C78.1843 116.733 70.0612 113.475 63.9317 107.073L61.0424 109.839ZM88.5084 120.733C102.066 120.733 113.757 114.376 123.532 102.045L120.397 99.5603C111.221 111.136 100.608 116.733 88.5084 116.733V120.733ZM120.633 102.295L153.214 131.377L155.878 128.393L123.296 99.3106L120.633 102.295ZM152.957 128.67C145.583 138.313 136.229 145.687 124.861 150.803L126.502 154.451C138.459 149.07 148.347 141.283 156.134 131.1L152.957 128.67ZM124.861 150.803C113.495 155.917 100.516 158.499 85.8844 158.499V162.499C100.991 162.499 114.544 159.832 126.502 154.451L124.861 150.803ZM202.104 150.221L203.03 148.449L202.104 150.221ZM171.272 121.795L169.562 122.833L169.568 122.842L171.272 121.795ZM171.272 39.3573L172.976 40.4044L172.982 40.3953L171.272 39.3573ZM290.883 10.712L291.809 8.93918L290.883 10.712ZM321.715 39.3573L320.005 40.3953L320.011 40.4044L321.715 39.3573ZM321.715 121.795L323.419 122.842L323.424 122.833L321.715 121.795ZM290.883 150.221L291.809 151.994L290.883 150.221ZM263.768 114.141L264.797 115.856L264.804 115.852L264.811 115.848L263.768 114.141ZM276.232 100.803L277.993 101.751L277.998 101.742L278.003 101.732L276.232 100.803ZM276.232 60.3493L274.461 61.279L274.466 61.2883L274.471 61.2975L276.232 60.3493ZM263.768 47.0107L262.704 48.7039L262.732 48.7216L262.76 48.7382L263.768 47.0107ZM229 47.0107L230.029 48.7256L230.036 48.7215L230.043 48.7172L229 47.0107ZM216.755 60.3493L218.516 61.2975L218.521 61.2883L218.525 61.279L216.755 60.3493ZM216.755 100.803L214.984 101.732L214.989 101.742L214.994 101.751L216.755 100.803ZM229 114.141L227.936 115.835L227.964 115.852L227.992 115.869L229 114.141ZM246.493 158.499C230.306 158.499 215.833 155.135 203.03 148.449L201.178 151.994C214.615 159.011 229.735 162.499 246.493 162.499V158.499ZM203.03 148.449C190.216 141.757 180.213 132.526 172.976 120.748L169.568 122.842C177.2 135.262 187.752 144.983 201.178 151.994L203.03 148.449ZM172.982 120.757C165.75 108.846 162.12 95.4334 162.12 80.4667H158.12C158.12 96.1133 161.925 110.253 169.562 122.833L172.982 120.757ZM162.12 80.4667C162.12 65.4998 165.75 52.1644 172.976 40.4044L169.568 38.3103C161.925 50.7493 158.12 64.8202 158.12 80.4667H162.12ZM172.982 40.3953C180.22 28.4725 190.222 19.1734 203.03 12.4848L201.178 8.93918C187.746 15.9537 177.193 25.7515 169.562 38.3194L172.982 40.3953ZM203.03 12.4848C215.833 5.79873 230.306 2.43467 246.493 2.43467V-1.56533C229.735 -1.56533 214.615 1.92216 201.178 8.93918L203.03 12.4848ZM246.493 2.43467C262.681 2.43467 277.154 5.79873 289.957 12.4848L291.809 8.93918C278.372 1.92216 263.252 -1.56533 246.493 -1.56533V2.43467ZM289.957 12.4848C302.765 19.1734 312.766 28.4725 320.005 40.3953L323.424 38.3194C315.794 25.7515 305.241 15.9537 291.809 8.93918L289.957 12.4848ZM320.011 40.4044C327.237 52.1644 330.867 65.4998 330.867 80.4667H334.867C334.867 64.8202 331.062 50.7493 323.419 38.3103L320.011 40.4044ZM330.867 80.4667C330.867 95.4334 327.237 108.846 320.005 120.757L323.424 122.833C331.062 110.253 334.867 96.1133 334.867 80.4667H330.867ZM320.011 120.748C312.773 132.526 302.771 141.757 289.957 148.449L291.809 151.994C305.235 144.983 315.787 135.262 323.419 122.842L320.011 120.748ZM289.957 148.449C277.154 155.135 262.681 158.499 246.493 158.499V162.499C263.252 162.499 278.372 159.011 291.809 151.994L289.957 148.449ZM246.493 120.733C253.241 120.733 259.36 119.119 264.797 115.856L262.739 112.426C257.972 115.287 252.574 116.733 246.493 116.733V120.733ZM264.811 115.848C270.377 112.447 274.772 107.732 277.993 101.751L274.471 99.8545C271.569 105.244 267.656 109.422 262.725 112.435L264.811 115.848ZM278.003 101.732C281.239 95.5686 282.824 88.4607 282.824 80.4667H278.824C278.824 87.9251 277.348 94.3745 274.461 99.873L278.003 101.732ZM282.824 80.4667C282.824 72.4743 281.239 65.4301 277.993 59.4011L274.471 61.2975C277.347 66.6393 278.824 73.0066 278.824 80.4667H282.824ZM278.003 59.4197C274.782 53.2853 270.375 48.5494 264.776 45.2831L262.76 48.7382C267.657 51.5946 271.559 55.7512 274.461 61.279L278.003 59.4197ZM264.832 45.3174C259.391 41.8968 253.259 40.2 246.493 40.2V44.2C252.556 44.2 257.941 45.7103 262.704 48.7039L264.832 45.3174ZM246.493 40.2C239.728 40.2 233.533 41.8966 227.957 45.3041L230.043 48.7172C234.963 45.7105 240.431 44.2 246.493 44.2V40.2ZM227.971 45.2957C222.521 48.5655 218.197 53.2995 214.984 59.4197L218.525 61.279C221.435 55.737 225.274 51.5785 230.029 48.7256L227.971 45.2957ZM214.994 59.4011C211.747 65.4301 210.163 72.4743 210.163 80.4667H214.163C214.163 73.0066 215.639 66.6393 218.516 61.2975L214.994 59.4011ZM210.163 80.4667C210.163 88.4607 211.748 95.5686 214.984 101.732L218.525 99.873C215.639 94.3745 214.163 87.9251 214.163 80.4667H210.163ZM214.994 101.751C218.207 107.718 222.52 112.43 227.936 115.835L230.064 112.448C225.276 109.438 221.425 105.258 218.516 99.8545L214.994 101.751ZM227.992 115.869C233.563 119.119 239.746 120.733 246.493 120.733V116.733C240.413 116.733 234.933 115.287 230.008 112.414L227.992 115.869ZM502.477 3.93333H504.477V1.93333H502.477V3.93333ZM502.477 157V159H504.477V157H502.477ZM460.056 157L458.521 158.283L459.121 159H460.056V157ZM401.89 87.464L403.424 86.1808L399.89 81.9558V87.464H401.89ZM401.89 157V159H403.89V157H401.89ZM351.597 157H349.597V159H351.597V157ZM351.597 3.93333V1.93333H349.597V3.93333H351.597ZM394.018 3.93333L395.552 2.65012L394.953 1.93333H394.018V3.93333ZM452.184 73.4693L450.649 74.7525L454.184 78.9775V73.4693H452.184ZM452.184 3.93333V1.93333H450.184V3.93333H452.184ZM500.477 3.93333V157H504.477V3.93333H500.477ZM502.477 155H460.056V159H502.477V155ZM461.59 155.717L403.424 86.1808L400.356 88.7472L458.521 158.283L461.59 155.717ZM399.89 87.464V157H403.89V87.464H399.89ZM401.89 155H351.597V159H401.89V155ZM353.597 157V3.93333H349.597V157H353.597ZM351.597 5.93333H394.018V1.93333H351.597V5.93333ZM392.484 5.21655L450.649 74.7525L453.718 72.1861L395.552 2.65012L392.484 5.21655ZM454.184 73.4693V3.93333H450.184V73.4693H454.184ZM452.184 5.93333H502.477V1.93333H452.184V5.93333ZM560.579 43.9493H562.579V41.9493H560.579V43.9493ZM515.752 43.9493H513.752V45.9493H515.752V43.9493ZM515.752 3.93333V1.93333H513.752V3.93333H515.752ZM657.011 3.93333H659.011V1.93333H657.011V3.93333ZM657.011 43.9493V45.9493H659.011V43.9493H657.011ZM612.184 43.9493V41.9493H610.184V43.9493H612.184ZM612.184 157V159H614.184V157H612.184ZM560.579 157H558.579V159H560.579V157ZM560.579 41.9493H515.752V45.9493H560.579V41.9493ZM517.752 43.9493V3.93333H513.752V43.9493H517.752ZM515.752 5.93333H657.011V1.93333H515.752V5.93333ZM655.011 3.93333V43.9493H659.011V3.93333H655.011ZM657.011 41.9493H612.184V45.9493H657.011V41.9493ZM610.184 43.9493V157H614.184V43.9493H610.184ZM612.184 155H560.579V159H612.184V155ZM562.579 157V43.9493H558.579V157H562.579ZM767.031 130.323L768.897 129.604L768.404 128.323H767.031V130.323ZM708.866 130.323V128.323H707.493L706.999 129.604L708.866 130.323ZM698.588 157V159H699.961L700.455 157.719L698.588 157ZM646.108 157L644.276 156.199L643.051 159H646.108V157ZM713.02 3.93333V1.93333H711.712L711.188 3.13224L713.02 3.93333ZM763.751 3.93333L765.584 3.13224L765.06 1.93333H763.751V3.93333ZM830.663 157V159H833.72L832.496 156.199L830.663 157ZM777.308 157L775.442 157.719L775.936 159H777.308V157ZM752.818 93.1493V95.1493H755.735L754.683 92.4285L752.818 93.1493ZM737.948 54.664L739.814 53.9432L737.948 49.1146L736.083 53.9432L737.948 54.664ZM723.079 93.1493L721.213 92.4285L720.162 95.1493H723.079V93.1493ZM767.031 128.323H708.866V132.323H767.031V128.323ZM706.999 129.604L696.722 156.281L700.455 157.719L710.732 131.042L706.999 129.604ZM698.588 155H646.108V159H698.588V155ZM647.941 157.801L714.853 4.73442L711.188 3.13224L644.276 156.199L647.941 157.801ZM713.02 5.93333H763.751V1.93333H713.02V5.93333ZM761.919 4.73442L828.831 157.801L832.496 156.199L765.584 3.13224L761.919 4.73442ZM830.663 155H777.308V159H830.663V155ZM779.175 156.281L768.897 129.604L765.165 131.042L775.442 157.719L779.175 156.281ZM754.683 92.4285L739.814 53.9432L736.083 55.3848L750.952 93.8701L754.683 92.4285ZM736.083 53.9432L721.213 92.4285L724.945 93.8701L739.814 55.3848L736.083 53.9432ZM723.079 95.1493H752.818V91.1493H723.079V95.1493ZM872.188 150.44L871.254 152.209L871.261 152.213L871.269 152.217L872.188 150.44ZM841.574 122.013L839.856 123.036L839.863 123.048L839.87 123.06L841.574 122.013ZM841.574 39.1387L839.865 38.1007L839.861 38.1066L841.574 39.1387ZM872.188 10.712L873.106 12.4887L873.114 12.4847L873.121 12.4805L872.188 10.712ZM955.718 8.30667L954.897 10.1305L955.718 8.30667ZM984.582 31.048L985.914 32.5401L987.297 31.3056L986.171 29.8331L984.582 31.048ZM952.001 60.1307L950.434 61.373L951.751 63.0348L953.333 61.6227L952.001 60.1307ZM892.523 52.696L893.968 54.0791L893.975 54.0715L893.983 54.0639L892.523 52.696ZM892.523 108.456L891.064 109.824L891.072 109.832L891.079 109.839L892.523 108.456ZM952.001 100.803L953.333 99.3106L951.751 97.8986L950.434 99.5603L952.001 100.803ZM984.582 129.885L986.171 131.1L987.297 129.628L985.914 128.393L984.582 129.885ZM955.718 152.627L954.897 150.803L955.718 152.627ZM915.921 158.499C900.024 158.499 885.767 155.207 873.106 148.663L871.269 152.217C884.557 159.085 899.455 162.499 915.921 162.499V158.499ZM873.121 148.671C860.453 141.981 850.519 132.75 843.278 120.966L839.87 123.06C847.499 135.475 857.974 145.196 871.254 152.209L873.121 148.671ZM843.293 120.99C836.203 109.08 832.641 95.5904 832.641 80.4667H828.641C828.641 96.2478 832.367 110.456 839.856 123.036L843.293 120.99ZM832.641 80.4667C832.641 65.3426 836.203 51.9298 843.287 40.1707L839.861 38.1066C832.367 50.5466 828.641 64.6858 828.641 80.4667H832.641ZM843.284 40.1766C850.524 28.252 860.452 19.0291 873.106 12.4887L871.269 8.93529C857.975 15.8064 847.494 25.5347 839.865 38.1007L843.284 40.1766ZM873.121 12.4805C885.779 5.79617 900.031 2.43467 915.921 2.43467V-1.56533C899.448 -1.56533 884.544 1.92473 871.254 8.94346L873.121 12.4805ZM915.921 2.43467C930.553 2.43467 943.532 5.01602 954.897 10.1305L956.539 6.48283C944.58 1.10132 931.027 -1.56533 915.921 -1.56533V2.43467ZM954.897 10.1305C966.265 15.2459 975.62 22.6203 982.993 32.2629L986.171 29.8331C978.384 19.6499 968.496 11.8634 956.539 6.48283L954.897 10.1305ZM983.25 29.5559L950.669 58.6386L953.333 61.6227L985.914 32.5401L983.25 29.5559ZM953.568 58.8883C943.793 46.5569 932.102 40.2 918.545 40.2V44.2C930.644 44.2 941.257 49.7969 950.434 61.373L953.568 58.8883ZM918.545 40.2C907.281 40.2 898.052 43.8752 891.064 51.3281L893.983 54.0639C900.115 47.5222 908.234 44.2 918.545 44.2V40.2ZM891.079 51.3129C884.085 58.618 880.683 68.4138 880.683 80.4667H884.683C884.683 69.1951 887.842 60.4771 893.968 54.0791L891.079 51.3129ZM880.683 80.4667C880.683 92.5212 884.085 102.379 891.064 109.824L893.983 107.088C887.842 100.538 884.683 91.7365 884.683 80.4667H880.683ZM891.079 109.839C898.069 117.14 907.294 120.733 918.545 120.733V116.733C908.221 116.733 900.098 113.475 893.968 107.073L891.079 109.839ZM918.545 120.733C932.102 120.733 943.793 114.376 953.568 102.045L950.434 99.5603C941.257 111.136 930.644 116.733 918.545 116.733V120.733ZM950.669 102.295L983.25 131.377L985.914 128.393L953.333 99.3106L950.669 102.295ZM982.993 128.67C975.62 138.313 966.265 145.687 954.897 150.803L956.539 154.451C968.496 149.07 978.384 141.283 986.171 131.1L982.993 128.67ZM954.897 150.803C943.532 155.917 930.553 158.499 915.921 158.499V162.499C931.027 162.499 944.58 159.832 956.539 154.451L954.897 150.803ZM1031.65 43.9493H1033.65V41.9493H1031.65V43.9493ZM986.825 43.9493H984.825V45.9493H986.825V43.9493ZM986.825 3.93333V1.93333H984.825V3.93333H986.825ZM1128.08 3.93333H1130.08V1.93333H1128.08V3.93333ZM1128.08 43.9493V45.9493H1130.08V43.9493H1128.08ZM1083.26 43.9493V41.9493H1081.26V43.9493H1083.26ZM1083.26 157V159H1085.26V157H1083.26ZM1031.65 157H1029.65V159H1031.65V157ZM1031.65 41.9493H986.825V45.9493H1031.65V41.9493ZM988.825 43.9493V3.93333H984.825V43.9493H988.825ZM986.825 5.93333H1128.08V1.93333H986.825V5.93333ZM1126.08 3.93333V43.9493H1130.08V3.93333H1126.08ZM1128.08 41.9493H1083.26V45.9493H1128.08V41.9493ZM1081.26 43.9493V157H1085.26V43.9493H1081.26ZM1083.26 155H1031.65V159H1083.26V155ZM1033.65 157V43.9493H1029.65V157H1033.65ZM1161.39 156.344L1160.91 158.287L1160.93 158.29L1160.94 158.294L1161.39 156.344ZM1131.87 144.755L1130.04 143.946L1129.33 145.535L1130.81 146.452L1131.87 144.755ZM1148.48 107.144L1149.49 105.414L1147.56 104.294L1146.66 106.336L1148.48 107.144ZM1172.98 117.421L1172.42 119.342L1172.43 119.346L1172.45 119.35L1172.98 117.421ZM1214.3 119.171L1215.09 121.009L1215.13 120.993L1215.16 120.976L1214.3 119.171ZM1212.77 105.613L1212.02 107.466L1212.03 107.47L1212.04 107.475L1212.77 105.613ZM1193.09 100.365L1192.68 102.323L1192.69 102.324L1193.09 100.365ZM1163.57 92.4933L1162.88 94.3688L1162.89 94.3745L1162.91 94.38L1163.57 92.4933ZM1143.02 78.4987L1141.52 79.8274L1141.53 79.8357L1141.54 79.844L1143.02 78.4987ZM1142.36 25.8L1144.01 26.9305L1142.36 25.8ZM1166.42 7.21333L1165.64 5.36863L1165.63 5.37244L1166.42 7.21333ZM1236.39 3.93333L1235.94 5.88164L1235.95 5.88542L1235.97 5.88893L1236.39 3.93333ZM1263.28 13.7733L1265.13 14.5403L1265.81 12.905L1264.27 12.0328L1263.28 13.7733ZM1247.76 51.1653L1246.86 52.9507L1248.78 53.9213L1249.61 51.9323L1247.76 51.1653ZM1191.12 56.4133L1190.37 58.2655L1190.4 58.2777L1190.43 58.2888L1191.12 56.4133ZM1210.59 61.224L1210.21 63.1876L1210.22 63.1897L1210.59 61.224ZM1240.11 68.8773L1239.42 70.7569L1239.44 70.7624L1239.45 70.7677L1240.11 68.8773ZM1260.88 82.6533L1259.4 83.9987L1259.41 84.0078L1259.42 84.0168L1260.88 82.6533ZM1261.75 135.133L1263.39 136.278L1263.4 136.271L1263.4 136.264L1261.75 135.133ZM1237.48 153.72L1238.26 155.561L1238.28 155.556L1237.48 153.72ZM1198.56 158.499C1186.02 158.499 1173.78 157.13 1161.83 154.394L1160.94 158.294C1173.19 161.098 1185.73 162.499 1198.56 162.499V158.499ZM1161.86 154.401C1150.04 151.519 1140.42 147.724 1132.92 143.057L1130.81 146.452C1138.77 151.407 1148.82 155.338 1160.91 158.287L1161.86 154.401ZM1133.7 145.563L1150.31 107.952L1146.66 106.336L1130.04 143.946L1133.7 145.563ZM1147.48 108.874C1154.93 113.192 1163.24 116.678 1172.42 119.342L1173.53 115.501C1164.63 112.917 1156.62 109.551 1149.49 105.414L1147.48 108.874ZM1172.45 119.35C1181.64 121.87 1190.49 123.139 1199 123.139V119.139C1190.89 119.139 1182.39 117.929 1173.5 115.493L1172.45 119.35ZM1199 123.139C1206.17 123.139 1211.63 122.493 1215.09 121.009L1213.52 117.332C1210.86 118.472 1206.11 119.139 1199 119.139V123.139ZM1215.16 120.976C1216.91 120.145 1218.36 119.062 1219.37 117.665C1220.4 116.245 1220.9 114.608 1220.9 112.829H1216.9C1216.9 113.82 1216.63 114.625 1216.13 115.319C1215.61 116.036 1214.76 116.738 1213.44 117.365L1215.16 120.976ZM1220.9 112.829C1220.9 110.76 1220.22 108.897 1218.89 107.326C1217.59 105.793 1215.74 104.63 1213.5 103.752L1212.04 107.475C1213.89 108.2 1215.1 109.042 1215.84 109.914C1216.55 110.749 1216.9 111.691 1216.9 112.829H1220.9ZM1213.53 103.761C1209.41 102.083 1202.69 100.304 1193.5 98.4066L1192.69 102.324C1201.86 104.217 1208.27 105.936 1212.02 107.466L1213.53 103.761ZM1193.5 98.408C1181.75 95.9406 1172 93.3377 1164.24 90.6067L1162.91 94.38C1170.89 97.1885 1180.82 99.8336 1192.68 102.323L1193.5 98.408ZM1164.27 90.6178C1156.71 87.8172 1150.12 83.3385 1144.5 77.1533L1141.54 79.844C1147.58 86.4873 1154.7 91.3383 1162.88 94.3688L1164.27 90.6178ZM1144.51 77.1699C1139.09 71.0645 1136.27 62.7622 1136.27 52.04H1132.27C1132.27 63.476 1135.29 72.8128 1141.52 79.8274L1144.51 77.1699ZM1136.27 52.04C1136.27 42.8186 1138.85 34.4667 1144.01 26.9305L1140.71 24.6695C1135.09 32.8773 1132.27 42.0187 1132.27 52.04H1136.27ZM1144.01 26.9305C1149.15 19.4342 1156.83 13.456 1167.2 9.05421L1165.63 5.37244C1154.72 10.0089 1146.36 16.4218 1140.71 24.6695L1144.01 26.9305ZM1167.19 9.05801C1177.67 4.66777 1190.44 2.43467 1205.56 2.43467V-1.56533C1190.06 -1.56533 1176.74 0.720673 1165.64 5.36865L1167.19 9.05801ZM1205.56 2.43467C1215.9 2.43467 1226.03 3.58411 1235.94 5.88164L1236.84 1.98502C1226.63 -0.382332 1216.2 -1.56533 1205.56 -1.56533V2.43467ZM1235.97 5.88893C1246.01 8.04032 1254.78 11.2563 1262.3 15.5138L1264.27 12.0328C1256.34 7.54371 1247.18 4.19967 1236.81 1.97772L1235.97 5.88893ZM1261.44 13.0064L1245.91 50.3984L1249.61 51.9323L1265.13 14.5403L1261.44 13.0064ZM1248.66 49.38C1233.44 41.6934 1218.91 37.7947 1205.12 37.7947V41.7947C1218.15 41.7947 1232.05 45.4763 1246.86 52.9507L1248.66 49.38ZM1205.12 37.7947C1198.39 37.7947 1193.05 38.5979 1189.32 40.3994C1187.43 41.3133 1185.89 42.5183 1184.82 44.0715C1183.74 45.6406 1183.22 47.4484 1183.22 49.416H1187.22C1187.22 48.1765 1187.53 47.1781 1188.11 46.3418C1188.7 45.4897 1189.64 44.6902 1191.07 44.0006C1193.97 42.595 1198.58 41.7947 1205.12 41.7947V37.7947ZM1183.22 49.416C1183.22 51.4171 1183.88 53.2228 1185.17 54.7511C1186.43 56.2425 1188.21 57.3869 1190.37 58.2655L1191.88 54.5612C1190.1 53.8362 1188.93 53.0126 1188.23 52.1716C1187.55 51.3674 1187.22 50.4762 1187.22 49.416H1183.22ZM1190.43 58.2888C1194.53 59.8076 1201.16 61.436 1210.21 63.1876L1210.97 59.2604C1201.94 57.5134 1195.59 55.9346 1191.82 54.5378L1190.43 58.2888ZM1210.22 63.1897C1221.81 65.3635 1231.54 67.8899 1239.42 70.7569L1240.79 66.9977C1232.64 64.0337 1222.69 61.4579 1210.95 59.2583L1210.22 63.1897ZM1239.45 70.7677C1247.15 73.4255 1253.79 77.8269 1259.4 83.9987L1262.36 81.308C1256.31 74.6513 1249.1 69.8687 1240.76 66.987L1239.45 70.7677ZM1259.42 84.0168C1264.96 89.9703 1267.84 98.1813 1267.84 108.893H1271.84C1271.84 97.4471 1268.75 88.1648 1262.34 81.2899L1259.42 84.0168ZM1267.84 108.893C1267.84 118.115 1265.27 126.467 1260.1 134.003L1263.4 136.264C1269.03 128.056 1271.84 118.915 1271.84 108.893H1267.84ZM1260.11 133.988C1254.98 141.343 1247.22 147.33 1236.69 151.884L1238.28 155.556C1249.32 150.78 1257.74 144.376 1263.39 136.278L1260.11 133.988ZM1236.7 151.879C1226.37 156.265 1213.68 158.499 1198.56 158.499V162.499C1214.05 162.499 1227.31 160.213 1238.26 155.561L1236.7 151.879Z" fill="url(#paint0_linear_97_15478)" mask="url(#path-1-outside-1_97_15478)"/>
<defs>
<linearGradient id="paint0_linear_97_15478" x1="638.66" y1="-158.412" x2="638.66" y2="253.573" gradientUnits="userSpaceOnUse">
<stop stop-color="#5C60C6"/>
<stop offset="1" stop-color="#5155B5" stop-opacity="0"/>
</linearGradient>
</defs>
</svg>
