<svg width="33" height="33" viewBox="0 0 33 33" fill="none" xmlns="http://www.w3.org/2000/svg">
<path fill-rule="evenodd" clip-rule="evenodd" d="M15.7296 3.89459C15.2729 3.96048 14.7866 4.11973 14.2736 4.37135C13.4206 4.78985 12.8774 5.48581 12.6629 6.43464C12.5413 6.97319 12.5201 8.24502 12.6107 9.57374C12.7358 11.4083 12.7011 12.269 12.4875 12.6329C12.4301 12.7306 12.0776 13.2221 11.7042 13.725C10.447 15.4183 10.3626 15.5733 9.69767 17.4072C9.46112 18.0597 9.16036 18.827 9.02934 19.1124C8.71805 19.7906 8.66749 20.0093 8.69803 20.5455L8.72304 20.9836L8.55262 21.1477C8.45891 21.238 8.3049 21.4497 8.21035 21.6181C7.91468 22.1446 7.62722 22.3274 6.74135 22.5519C5.99774 22.7404 5.7604 22.8909 5.59966 23.2757C5.49824 23.5184 5.50363 23.7483 5.62235 24.2435C5.7517 24.7831 5.74661 25.0452 5.59709 25.5446C5.31106 26.4998 5.3083 26.5166 5.3984 26.7525C5.59897 27.2778 6.16806 27.5334 7.63844 27.7587C8.49736 27.8902 8.70817 27.9464 9.97149 28.3807C11.6147 28.9455 12.0063 29.0306 12.5557 28.9421C13.0317 28.8655 13.5072 28.5534 13.7156 28.1811C13.7542 28.1122 13.9213 28.067 14.4652 27.9783C15.8926 27.7456 17.0257 27.72 18.2998 27.8916C19.1088 28.0006 19.1889 28.0292 19.3572 28.2701C19.8884 29.0307 20.6101 29.2992 21.5018 29.0681C21.9421 28.954 22.2101 28.8011 22.6249 28.4271C23.1018 27.9972 23.7281 27.5912 25.0464 26.8573C26.2181 26.2051 26.3305 26.1354 26.5706 25.913C26.9372 25.5734 27.0424 25.0728 26.8333 24.6629C26.7123 24.4258 26.5314 24.2771 26.1041 24.0635C25.4663 23.7447 25.3012 23.4961 25.244 22.7682C25.2039 22.258 25.1096 21.9809 24.8533 21.6198L24.705 21.4107L24.7788 21.0648C24.9809 20.1182 24.9486 18.9616 24.6993 18.2136C24.542 17.7418 24.1549 16.9422 23.7552 16.2635C23.4463 15.739 22.3405 14.0776 21.6379 13.0824C20.6759 11.7197 20.682 11.7424 20.4979 8.83181C20.3537 6.55287 19.6477 5.08986 18.3193 4.31713C17.6473 3.92622 16.6447 3.76262 15.7296 3.89459ZM17.6282 7.66155C17.9171 7.85273 18.1268 8.30359 18.1268 8.73345C18.1268 9.03277 18.0635 9.34401 17.9841 9.43495C17.9674 9.45408 17.9614 9.34925 17.9706 9.20201C17.9916 8.86888 17.8186 8.45577 17.5899 8.29297C17.4165 8.1695 17.1548 8.11256 16.9718 8.15853C16.6653 8.23543 16.3723 8.63697 16.3144 9.05932C16.268 9.39744 16.1824 9.20092 16.1838 8.7597C16.1869 7.79925 16.9545 7.21568 17.6282 7.66155ZM14.4047 7.86286C14.6276 8.05038 14.7699 8.3893 14.8016 8.80789C14.8339 9.23587 14.7666 9.30066 14.6722 8.93239C14.593 8.62358 14.3789 8.3241 14.1777 8.24072C13.9777 8.15793 13.697 8.204 13.5478 8.34422C13.4045 8.47881 13.3985 8.398 13.5321 8.13594C13.7222 7.76346 14.1336 7.63471 14.4047 7.86286ZM16.4416 10.37C17.2222 10.6693 17.5534 10.8359 17.5094 10.9071C17.4646 10.9796 15.6786 11.9913 15.4582 12.0691C15.3402 12.1107 15.1973 12.1307 15.1406 12.1134C14.8351 12.02 13.9256 11.2846 13.9256 11.1309C13.9256 11.096 13.9756 11.0337 14.0368 10.9926C14.098 10.9514 14.3371 10.7596 14.5681 10.5663C15.0787 10.1391 15.3275 10.0052 15.5319 10.0474C15.6135 10.0643 16.0228 10.2095 16.4416 10.37ZM18.3318 12.1186C18.435 12.3089 18.7957 13.0874 19.1333 13.8486C20.0407 15.8948 20.66 17.5651 20.8284 18.4205C20.9461 19.0185 20.9091 20.5951 20.7666 21.0524C20.7452 21.1211 20.6835 21.1389 20.4663 21.1389C20.1361 21.1389 19.9064 21.2391 19.7918 21.4332C19.6753 21.6304 19.6135 22.1634 19.6081 23.0171C19.6016 24.0613 19.5793 24.1551 19.2585 24.4824C18.4565 25.301 17.5475 25.7995 16.6163 25.9316C15.9644 26.024 14.9652 26.0784 14.5025 26.0467L14.0662 26.0167L13.6681 25.5727L13.2699 25.1287L13.445 24.9749C13.7201 24.7333 13.7945 24.5774 13.7985 24.2345C13.8044 23.7186 13.5585 23.426 12.2945 22.445C11.444 21.7849 10.9995 21.3272 10.858 20.9659C10.7565 20.7065 10.742 20.5858 10.7423 20.0021C10.7429 19.1038 10.8513 18.6798 11.3301 17.7038C11.5301 17.296 11.8504 16.5236 12.042 15.9874C12.4297 14.9016 12.5121 14.721 12.8145 14.2934C13.1793 13.7775 13.4731 13.0872 13.5559 12.5511C13.5737 12.4356 13.5963 12.3411 13.606 12.3411C13.6158 12.3411 13.7716 12.453 13.9523 12.5897C14.6062 13.0847 15.0331 13.2152 15.4953 13.0617C15.6318 13.0164 16.1852 12.7329 16.7251 12.4318C17.8185 11.8219 17.9719 11.7457 18.0737 11.7616C18.1125 11.7677 18.2286 11.9283 18.3318 12.1186ZM9.76751 22.0777C10.0965 22.3377 10.2903 22.6033 11.0028 23.7705C11.7126 24.9333 11.8967 25.2084 12.2694 25.663C12.9972 26.5505 13.0484 27.0149 12.4813 27.5828L12.1913 27.8731L11.9009 27.8403C11.5176 27.7969 10.8188 27.5758 9.84452 27.1896C9.11455 26.9003 8.95866 26.8583 7.9169 26.6706C6.79869 26.4691 6.5611 26.3961 6.5611 26.2538C6.5611 26.214 6.62851 25.9421 6.71086 25.6496C6.88271 25.0394 6.89888 24.7952 6.80763 24.1887C6.75154 23.8158 6.75228 23.7438 6.81297 23.6831C6.85187 23.6442 7.15811 23.5445 7.49357 23.4616C8.50918 23.2104 8.60857 23.1439 8.96978 22.4734C9.33963 21.7869 9.3765 21.7686 9.76751 22.0777ZM20.9661 23.0398C21.2089 23.8751 22.2558 24.1067 23.3126 23.559C23.6577 23.3802 23.7542 23.2992 23.9779 23.0009C24.1808 22.7304 24.1897 22.74 24.2212 23.2642C24.2627 23.9551 24.51 24.3351 25.1712 24.7243C25.4209 24.8713 25.6516 25.0232 25.6839 25.0621C25.7643 25.159 25.673 25.2186 24.4448 25.8731C23.2941 26.4862 23.0929 26.6148 22.6589 27.0147C21.8471 27.7626 21.3068 28.0237 20.9513 27.8399C20.7271 27.7239 20.5499 27.4262 20.4883 27.062C20.4409 26.7819 20.4517 26.665 20.5903 25.9579C20.8549 24.6087 20.8969 24.0927 20.8358 22.9429C20.8152 22.554 20.8182 22.3914 20.8435 22.5312C20.8665 22.6581 20.9216 22.8869 20.9661 23.0398Z" fill="white"/>
</svg>
