<svg width="24" height="24" viewBox="0 0 24 24" fill="none" xmlns="http://www.w3.org/2000/svg">
<path fill-rule="evenodd" clip-rule="evenodd" d="M14.8877 2.34457C14.5261 2.50592 14.25 2.86018 14.25 3.32843V7.67223C14.25 8.26746 14.7325 8.75 15.3278 8.75H19.6716C20.1117 8.75 20.4512 8.50605 20.6243 8.1764C20.7071 8.47903 20.75 8.7937 20.75 9.11263V17.34C20.75 19.3006 19.1606 20.89 17.2 20.89H6.8C4.83939 20.89 3.25 19.3006 3.25 17.34V5.8C3.25 3.83939 4.83939 2.25 6.8 2.25H14.0737C14.3502 2.25 14.6232 2.28224 14.8877 2.34457ZM15.75 7.25V4.34778L18.6522 7.25H15.75Z" fill="#6673BD"/>
</svg>
