<svg width="481" height="481" viewBox="0 0 481 481" fill="none" xmlns="http://www.w3.org/2000/svg">
<path d="M0 240.5C0 107.676 107.676 0 240.5 0C373.324 0 481 107.676 481 240.5C481 373.324 373.324 481 240.5 481C107.676 481 0 373.324 0 240.5Z" fill="url(#paint0_linear_95_14378)"/>
<path d="M0 240.5C0 107.676 107.676 0 240.5 0C373.324 0 481 107.676 481 240.5C481 373.324 373.324 481 240.5 481C107.676 481 0 373.324 0 240.5Z" fill="url(#paint1_radial_95_14378)" fill-opacity="0.6"/>
<defs>
<linearGradient id="paint0_linear_95_14378" x1="118.842" y1="444.672" x2="397.923" y2="55.4784" gradientUnits="userSpaceOnUse">
<stop stop-color="#9683EF"/>
<stop offset="1" stop-color="#B54ACC"/>
</linearGradient>
<radialGradient id="paint1_radial_95_14378" cx="0" cy="0" r="1" gradientUnits="userSpaceOnUse" gradientTransform="translate(240.5 240.5) rotate(-90) scale(193.308)">
<stop stop-color="#041F6D"/>
<stop offset="1" stop-color="#041F6D" stop-opacity="0"/>
</radialGradient>
</defs>
</svg>
