<svg width="915" height="1019" viewBox="0 0 915 1019" fill="none" xmlns="http://www.w3.org/2000/svg">
<path d="M915 224C915 663.066 559.066 1019 120 1019C-319.066 1019 -675 663.066 -675 224C-675 -215.066 -319.066 -571 120 -571C559.066 -571 915 -215.066 915 224Z" fill="url(#paint0_linear_95_14890)"/>
<path d="M915 224C915 663.066 559.066 1019 120 1019C-319.066 1019 -675 663.066 -675 224C-675 -215.066 -319.066 -571 120 -571C559.066 -571 915 -215.066 915 224Z" fill="url(#paint1_radial_95_14890)" fill-opacity="0.6"/>
<defs>
<linearGradient id="paint0_linear_95_14890" x1="522.155" y1="-450.912" x2="-400.381" y2="835.61" gradientUnits="userSpaceOnUse">
<stop stop-color="#9683EF"/>
<stop offset="1" stop-color="#B54ACC"/>
</linearGradient>
<radialGradient id="paint1_radial_95_14890" cx="0" cy="0" r="1" gradientUnits="userSpaceOnUse" gradientTransform="translate(120 224) rotate(90) scale(639.002)">
<stop stop-color="#041F6D"/>
<stop offset="1" stop-color="#041F6D" stop-opacity="0"/>
</radialGradient>
</defs>
</svg>
