<svg width="521" height="268" viewBox="0 0 521 268" fill="none" xmlns="http://www.w3.org/2000/svg">
<path d="M472.7 142.244C477.42 9.73956 373.83 -101.503 241.325 -106.223C108.821 -110.943 -2.42193 -7.35305 -7.14193 125.152C-11.8619 257.656 91.728 368.899 224.233 373.619C356.737 378.339 467.98 274.749 472.7 142.244Z" fill="#311A62"/>
<path d="M232.778 295.969C322.371 295.969 395 223.34 395 133.747C395 44.1539 322.371 -28.4756 232.778 -28.4756C143.185 -28.4756 70.5554 44.1539 70.5554 133.747C70.5554 223.34 143.185 295.969 232.778 295.969Z" fill="url(#paint0_linear_97_15461)"/>
<path fill-rule="evenodd" clip-rule="evenodd" d="M232.777 -154C391.711 -154 520.555 -25.156 520.555 133.777C520.555 141.086 520.27 148.314 519.743 155.502L438.733 133.777C438.733 20.0388 346.516 -72.1782 232.777 -72.1782V-154Z" fill="url(#paint1_linear_97_15461)"/>
<path fill-rule="evenodd" clip-rule="evenodd" d="M520.555 133.777C520.555 292.711 391.711 421.555 232.778 421.555C225.469 421.555 218.241 421.27 211.054 420.742L232.778 339.733C346.516 339.733 438.733 247.516 438.733 133.777H520.555Z" fill="url(#paint2_linear_97_15461)"/>
<path fill-rule="evenodd" clip-rule="evenodd" d="M-55 133.782C-55 -5.57907 44.0795 -121.835 175.685 -148.31C177.431 -148.676 179.217 -149.001 180.964 -149.326L182.628 -149.61C184.496 -149.935 186.364 -150.26 188.232 -150.544L189.613 -150.747C191.602 -151.031 193.551 -151.315 195.541 -151.559L196.638 -151.681C198.749 -151.924 200.82 -152.168 202.932 -152.412L203.744 -152.493C205.936 -152.696 208.129 -152.899 210.362 -153.061L210.89 -153.102C213.164 -153.264 215.479 -153.427 217.793 -153.549H218.159C220.555 -153.67 222.91 -153.752 225.306 -153.833H225.346H225.468C227.904 -153.873 230.341 -153.914 232.777 -153.914C240.086 -153.914 247.314 -153.63 254.502 -153.102L232.777 -72.1735C119.039 -72.1735 26.8218 20.0435 26.8218 133.782H-55Z" fill="url(#paint3_linear_97_15461)"/>
<path fill-rule="evenodd" clip-rule="evenodd" d="M232.777 421.507C73.8439 421.507 -55 292.663 -55 133.73C-55 126.421 -54.7158 119.193 -54.1879 112.046L26.7812 133.73C26.7812 247.468 118.998 339.685 232.737 339.685V421.507H232.777Z" fill="url(#paint4_linear_97_15461)"/>
<defs>
<linearGradient id="paint0_linear_97_15461" x1="232.779" y1="-28.439" x2="232.782" y2="295.972" gradientUnits="userSpaceOnUse">
<stop stop-color="#311A62"/>
<stop offset="0.5" stop-color="#3D2482"/>
<stop offset="1" stop-color="#67368B"/>
</linearGradient>
<linearGradient id="paint1_linear_97_15461" x1="273.629" y1="-135.09" x2="481.246" y2="83.3405" gradientUnits="userSpaceOnUse">
<stop offset="0.0987" stop-color="#EFA0F3"/>
<stop offset="0.487" stop-color="#CE61E9"/>
<stop offset="1" stop-color="#8A5FE2"/>
</linearGradient>
<linearGradient id="paint2_linear_97_15461" x1="494.59" y1="185.344" x2="290.151" y2="366.227" gradientUnits="userSpaceOnUse">
<stop stop-color="#8A5FE2"/>
<stop offset="0.487" stop-color="#615EDD"/>
<stop offset="1" stop-color="#A77ED7"/>
</linearGradient>
<linearGradient id="paint3_linear_97_15461" x1="-13.9681" y1="66.1127" x2="183.876" y2="-98.1348" gradientUnits="userSpaceOnUse">
<stop stop-color="#B9CAE5"/>
<stop offset="0.487" stop-color="white"/>
<stop offset="1" stop-color="#EFA0F3"/>
</linearGradient>
<linearGradient id="paint4_linear_97_15461" x1="172.836" y1="396.931" x2="-1.68353" y2="163.266" gradientUnits="userSpaceOnUse">
<stop stop-color="#A77ED7"/>
<stop offset="0.487" stop-color="#E7A2D4"/>
<stop offset="1" stop-color="#B9CAE5"/>
</linearGradient>
</defs>
</svg>
