<svg width="64" height="64" viewBox="0 0 64 64" fill="none" xmlns="http://www.w3.org/2000/svg">
<rect width="64" height="64" rx="12" fill="#F1F4F7"/>
<path fill-rule="evenodd" clip-rule="evenodd" d="M34.8877 22.3446C34.5261 22.5059 34.25 22.8602 34.25 23.3284V27.6722C34.25 28.2675 34.7325 28.75 35.3278 28.75H39.6716C40.1117 28.75 40.4512 28.506 40.6243 28.1764C40.7071 28.479 40.75 28.7937 40.75 29.1126V37.34C40.75 39.3006 39.1606 40.89 37.2 40.89H26.8C24.8394 40.89 23.25 39.3006 23.25 37.34V25.8C23.25 23.8394 24.8394 22.25 26.8 22.25H34.0737C34.3502 22.25 34.6232 22.2822 34.8877 22.3446ZM35.75 27.25V24.3478L38.6522 27.25H35.75Z" fill="#6673BD"/>
</svg>
