<svg width="24" height="24" viewBox="0 0 24 24" fill="none" xmlns="http://www.w3.org/2000/svg">
<mask id="mask0_1_1029" style="mask-type:alpha" maskUnits="userSpaceOnUse" x="0" y="0" width="24" height="24">
<circle cx="12" cy="12" r="12" fill="#D9D9D9"/>
</mask>
<g mask="url(#mask0_1_1029)">
<g clip-path="url(#clip0_1_1029)">
<path d="M-7.00003 -1.00002H30V25H-7.00003V-1.00002Z" fill="#009B3A"/>
<path d="M-3.85501 12L11.5 21.8429L26.855 12L11.5 2.15714L-3.85501 12Z" fill="#FEDF00"/>
<path d="M11.5 18.5C15.076 18.5 17.975 15.5899 17.975 12C17.975 8.41015 15.076 5.5 11.5 5.5C7.92395 5.5 5.02499 8.41015 5.02499 12C5.02499 15.5899 7.92395 18.5 11.5 18.5Z" fill="#002776"/>
<mask id="mask1_1_1029" style="mask-type:luminance" maskUnits="userSpaceOnUse" x="5" y="5" width="13" height="14">
<path d="M11.5 18.5C15.076 18.5 17.975 15.5899 17.975 12C17.975 8.41015 15.076 5.5 11.5 5.5C7.92395 5.5 5.02499 8.41015 5.02499 12C5.02499 15.5899 7.92395 18.5 11.5 18.5Z" fill="white"/>
</mask>
<g mask="url(#mask1_1_1029)">
<path d="M-7.92502 25C-7.92502 20.8134 -6.26828 16.7982 -3.31927 13.8378C-0.370261 10.8774 3.62945 9.21429 7.79998 9.21429C11.9705 9.21429 15.9702 10.8774 18.9192 13.8378C21.8683 16.7982 23.525 20.8134 23.525 25H22.6C22.6 21.0596 21.0407 17.2807 18.2652 14.4944C15.4896 11.7082 11.7252 10.1429 7.79998 10.1429C3.87478 10.1429 0.110341 11.7082 -2.6652 14.4944C-5.44074 17.2807 -7.00002 21.0596 -7.00002 25H-7.92502Z" fill="white"/>
</g>
<path fill-rule="evenodd" clip-rule="evenodd" d="M5.97754 10.1C6.05059 10.091 6.11668 10.05 6.16129 9.986C6.2059 9.92202 6.22536 9.8403 6.21539 9.75882C6.20543 9.67734 6.16685 9.60277 6.10815 9.55153C6.04945 9.50028 5.97543 9.47655 5.90238 9.48555C5.82934 9.49456 5.76324 9.53556 5.71863 9.59954C5.67402 9.66352 5.65456 9.74524 5.66453 9.82672C5.6745 9.9082 5.71307 9.98276 5.77177 10.034C5.83047 10.0853 5.90449 10.109 5.97754 10.1M5.96358 9.98588C6.00648 9.98059 6.04514 9.95517 6.07105 9.91522C6.09695 9.87526 6.10799 9.82404 6.10172 9.77283C6.09546 9.72161 6.07241 9.6746 6.03764 9.64212C6.00288 9.60965 5.95924 9.59437 5.91634 9.59966C5.87344 9.60495 5.83478 9.63037 5.80888 9.67032C5.78297 9.71027 5.77194 9.76149 5.7782 9.81271C5.78446 9.86392 5.80751 9.91094 5.84228 9.94341C5.87705 9.97589 5.92068 9.99116 5.96358 9.98588" fill="#009B3A"/>
<path fill-rule="evenodd" clip-rule="evenodd" d="M6.47985 10.0441L6.59412 10.036L6.5782 9.80673L6.82433 9.78939C6.87562 9.78578 6.92339 9.76187 6.95714 9.72293C6.99088 9.68398 7.00783 9.63319 7.00425 9.58173C7.00068 9.53027 6.97688 9.48235 6.93808 9.44851C6.89929 9.41468 6.84868 9.3977 6.79739 9.40131L6.44577 9.42608L6.47985 10.0441ZM6.57024 9.69207L6.80758 9.67535C6.82857 9.67387 6.84811 9.66409 6.86191 9.64816C6.87571 9.63223 6.88265 9.61145 6.88119 9.5904C6.87972 9.56935 6.86999 9.54974 6.85412 9.5359C6.83825 9.52206 6.81754 9.51511 6.79656 9.51659L6.55922 9.53331L6.57024 9.69207Z" fill="#009B3A"/>
<path d="M7.00291 10.0073C6.99678 9.91911 6.98331 9.72508 6.85146 9.73437L6.68445 9.74613C6.87783 9.73251 6.8913 9.92654 6.89743 10.0147" fill="#009B3A"/>
<path fill-rule="evenodd" clip-rule="evenodd" d="M7.26156 9.99524L7.55223 9.99015C7.58693 9.98954 7.62117 9.98208 7.653 9.96819C7.68482 9.95429 7.71362 9.93424 7.73772 9.90918C7.76183 9.88412 7.78079 9.85453 7.79351 9.82212C7.80623 9.7897 7.81246 9.75509 7.81186 9.72025L7.81032 9.63183C7.80972 9.597 7.80228 9.56262 7.78844 9.53067C7.7746 9.49872 7.75463 9.46982 7.72966 9.44562C7.7047 9.42141 7.67523 9.40239 7.64294 9.38962C7.61065 9.37685 7.57616 9.37059 7.54146 9.3712L7.25079 9.37629L7.26156 9.99524ZM7.37406 9.87829L7.54142 9.87536C7.5858 9.87458 7.62806 9.85613 7.6589 9.82408C7.68974 9.79202 7.70663 9.74898 7.70585 9.70442L7.70493 9.65137C7.70416 9.60681 7.68578 9.56439 7.65385 9.53343C7.62191 9.50248 7.57904 9.48552 7.53465 9.4863L7.3673 9.48923L7.37406 9.87829Z" fill="#009B3A"/>
<path d="M8.04455 9.98751L8.59921 10.007L8.60321 9.89206L8.1542 9.87632L8.15973 9.71723L8.5119 9.72958L8.51559 9.62352L8.16342 9.61118L8.16772 9.48744L8.59032 9.50226L8.59432 9.38736L8.06607 9.36884L8.04455 9.98751Z" fill="#009B3A"/>
<path d="M8.8269 10.0209L8.93221 10.0302L8.96907 9.60731L9.05508 10.041L9.15161 10.0495L9.31133 9.63737L9.27448 10.0602L9.37979 10.0695L9.43353 9.4528L9.27995 9.43931L9.12024 9.8514L9.03423 9.41773L8.88065 9.40424L8.8269 10.0209Z" fill="#009B3A"/>
<path d="M10.1046 10.1656L10.5604 10.2442L10.5783 10.1396L10.2266 10.079L10.2505 9.93954L10.537 9.98896L10.5549 9.88437L10.2684 9.83495L10.2848 9.73908L10.6256 9.79786L10.6435 9.69327L10.1985 9.61652L10.1046 10.1656Z" fill="#009B3A"/>
<path fill-rule="evenodd" clip-rule="evenodd" d="M11.2756 10.3965L11.3864 10.4253L11.4438 10.2027L11.6826 10.2647C11.7324 10.2776 11.7852 10.2702 11.8295 10.244C11.8738 10.2178 11.9059 10.175 11.9188 10.125C11.9316 10.0751 11.9242 10.022 11.8981 9.97758C11.872 9.93312 11.8294 9.90088 11.7796 9.88796L11.4385 9.79939L11.2756 10.3965ZM11.4725 10.0914L11.7027 10.1512C11.7231 10.1565 11.7447 10.1534 11.7628 10.1427C11.781 10.132 11.7941 10.1145 11.7994 10.094C11.8046 10.0736 11.8016 10.0519 11.7909 10.0337C11.7802 10.0155 11.7628 10.0023 11.7424 9.99705L11.5122 9.93727L11.4725 10.0914Z" fill="#009B3A"/>
<path fill-rule="evenodd" clip-rule="evenodd" d="M12.0322 10.5987L12.1416 10.6334L12.2102 10.4143L12.4457 10.489C12.4947 10.5045 12.5479 10.4999 12.5935 10.4761C12.6391 10.4524 12.6733 10.4114 12.6887 10.3622C12.7041 10.313 12.6994 10.2597 12.6756 10.2139C12.6519 10.1681 12.6109 10.1337 12.5619 10.1181L12.2255 10.0114L12.0322 10.5987ZM12.2446 10.3047L12.4716 10.3767C12.4916 10.3831 12.5134 10.3812 12.5321 10.3715C12.5507 10.3618 12.5647 10.345 12.571 10.3249C12.5773 10.3047 12.5754 10.2829 12.5657 10.2642C12.5559 10.2455 12.5392 10.2314 12.5191 10.225L12.2921 10.153L12.2446 10.3047Z" fill="#009B3A"/>
<path d="M12.5322 10.7573C12.5587 10.6731 12.6168 10.4877 12.4907 10.4477L12.3309 10.397C12.5159 10.4557 12.4578 10.6411 12.4313 10.7254" fill="#009B3A"/>
<path fill-rule="evenodd" clip-rule="evenodd" d="M13.037 10.9388C13.106 10.9646 13.1835 10.9589 13.2525 10.9228C13.3215 10.8868 13.3763 10.8233 13.4049 10.7464C13.4336 10.6695 13.4337 10.5855 13.4052 10.5128C13.3767 10.4402 13.3219 10.3848 13.253 10.3589C13.1841 10.333 13.1066 10.3388 13.0376 10.3749C12.9686 10.4109 12.9137 10.4744 12.8851 10.5513C12.8565 10.6282 12.8564 10.7122 12.8849 10.7849C12.9134 10.8575 12.9681 10.9129 13.037 10.9388M13.0771 10.8311C13.1176 10.8463 13.1636 10.8416 13.205 10.8182C13.2463 10.7948 13.2797 10.7545 13.2977 10.7061C13.3157 10.6578 13.3169 10.6054 13.301 10.5605C13.2851 10.5156 13.2534 10.4818 13.2129 10.4666C13.1724 10.4514 13.1264 10.456 13.0851 10.4795C13.0437 10.5029 13.0104 10.5432 12.9924 10.5915C12.9744 10.6399 12.9732 10.6923 12.9891 10.7372C13.005 10.7821 13.0367 10.8159 13.0771 10.8311" fill="#009B3A"/>
<mask id="mask2_1_1029" style="mask-type:luminance" maskUnits="userSpaceOnUse" x="13" y="10" width="2" height="2">
<path d="M13.5086 11.1215L13.7538 10.5544L14.2634 10.7772L14.0182 11.3444L13.5086 11.1215ZM13.928 10.8522L13.886 10.9494L14.1408 11.0608L14.1828 10.9636L13.928 10.8522Z" fill="white"/>
</mask>
<g mask="url(#mask2_1_1029)">
<path fill-rule="evenodd" clip-rule="evenodd" d="M13.7633 11.233C13.8309 11.2625 13.9086 11.261 13.9794 11.2287C14.0502 11.1964 14.1082 11.136 14.1407 11.0608C14.1732 10.9856 14.1776 10.9017 14.1528 10.8276C14.128 10.7536 14.0761 10.6953 14.0086 10.6658C13.941 10.6363 13.8633 10.6378 13.7925 10.6701C13.7217 10.7024 13.6637 10.7628 13.6312 10.838C13.5987 10.9132 13.5943 10.997 13.6191 11.0711C13.6439 11.1452 13.6958 11.2034 13.7633 11.233M13.8089 11.1276C13.8486 11.145 13.8947 11.1429 13.9373 11.1217C13.9798 11.1005 14.0151 11.0621 14.0356 11.0148C14.056 10.9675 14.0599 10.9153 14.0462 10.8696C14.0326 10.8239 14.0027 10.7885 13.963 10.7711C13.9233 10.7538 13.8772 10.7559 13.8346 10.7771C13.7921 10.7982 13.7568 10.8367 13.7363 10.884C13.7159 10.9312 13.712 10.9835 13.7257 11.0292C13.7393 11.0749 13.7692 11.1103 13.8089 11.1276" fill="#009B3A"/>
</g>
<path d="M13.9262 10.967L14.1404 11.0605L14.1054 11.1415L13.8912 11.0479L13.9262 10.967Z" fill="#009B3A"/>
<path d="M14.0595 11.0251L14.1404 11.0605L14.0176 11.3443L13.9367 11.3089L14.0595 11.0251Z" fill="#009B3A"/>
<path fill-rule="evenodd" clip-rule="evenodd" d="M14.2242 11.4407L14.3268 11.4921L14.4288 11.2864L14.6497 11.3971C14.6958 11.4202 14.749 11.424 14.7978 11.4077C14.8465 11.3913 14.8867 11.3562 14.9096 11.3101C14.9325 11.2639 14.9362 11.2105 14.9198 11.1616C14.9035 11.1126 14.8684 11.0722 14.8224 11.0491L14.5068 10.891L14.2242 11.4407ZM14.4798 11.1836L14.6929 11.2903C14.7117 11.2998 14.7335 11.3013 14.7534 11.2947C14.7734 11.288 14.7898 11.2736 14.7992 11.2547C14.8085 11.2359 14.8101 11.214 14.8034 11.194C14.7967 11.174 14.7823 11.1574 14.7635 11.148L14.5505 11.0412L14.4798 11.1836Z" fill="#009B3A"/>
<path d="M14.6934 11.6758C14.7327 11.5967 14.819 11.4228 14.7007 11.3635L14.5508 11.2884C14.7244 11.3753 14.638 11.5493 14.5988 11.6284" fill="#009B3A"/>
<path d="M14.9223 11.7971L15.4053 12.0715L15.4617 11.9714L15.0707 11.7493L15.1487 11.6108L15.4554 11.785L15.5075 11.6926L15.2008 11.5184L15.2615 11.4106L15.6296 11.6197L15.686 11.5196L15.2259 11.2583L14.9223 11.7971Z" fill="#009B3A"/>
<path d="M15.822 12.1002C15.7888 12.1524 15.8224 12.2105 15.8967 12.2581C15.971 12.3056 16.0216 12.3039 16.043 12.2703C16.1105 12.1641 15.7205 12.009 15.8407 11.8238C15.9443 11.6646 16.1216 11.7885 16.1885 11.8312C16.2554 11.874 16.3627 11.9846 16.2792 12.1121L16.1659 12.0396C16.2014 11.9837 16.1624 11.9299 16.103 11.8919C16.0454 11.8551 15.9986 11.8383 15.9643 11.8923C15.9068 11.9788 16.289 12.1419 16.1719 12.3265C16.0855 12.4627 15.9352 12.4032 15.8349 12.3391C15.7494 12.2844 15.6218 12.1556 15.705 12.0253L15.822 12.1002Z" fill="#009B3A"/>
<path d="M16.4835 12.5393C16.4477 12.5897 16.4782 12.6496 16.5499 12.7009C16.6217 12.7523 16.6723 12.7532 16.6954 12.7209C16.7683 12.6183 16.3869 12.443 16.5166 12.2643C16.6284 12.1108 16.799 12.2438 16.8635 12.29C16.9281 12.3362 17.0296 12.4523 16.9395 12.5752L16.8301 12.4969C16.8685 12.4429 16.8324 12.3872 16.775 12.3461C16.7194 12.3063 16.6736 12.287 16.6365 12.3392C16.5746 12.4226 16.9477 12.6056 16.8211 12.7837C16.7278 12.9151 16.5808 12.8479 16.4839 12.7786C16.4015 12.7195 16.2807 12.5842 16.3706 12.4584L16.4835 12.5393Z" fill="#009B3A"/>
<path fill-rule="evenodd" clip-rule="evenodd" d="M17.1092 13.2516C17.1668 13.2976 17.2422 13.3161 17.319 13.3032C17.3957 13.2903 17.4674 13.247 17.5183 13.1827C17.5692 13.1185 17.5951 13.0386 17.5904 12.9607C17.5857 12.8827 17.5507 12.8131 17.4931 12.7671C17.4355 12.7211 17.36 12.7025 17.2833 12.7154C17.2065 12.7283 17.1348 12.7717 17.0839 12.8359C17.033 12.9002 17.0071 12.98 17.0118 13.058C17.0166 13.1359 17.0516 13.2056 17.1092 13.2516M17.1805 13.1616C17.2143 13.1886 17.2594 13.1985 17.306 13.189C17.3525 13.1796 17.3967 13.1516 17.4287 13.1112C17.4607 13.0708 17.4779 13.0213 17.4766 12.9737C17.4753 12.926 17.4556 12.8841 17.4218 12.8571C17.3879 12.8301 17.3428 12.8202 17.2962 12.8296C17.2497 12.8391 17.2056 12.8671 17.1736 12.9075C17.1416 12.9479 17.1243 12.9973 17.1256 13.045C17.1269 13.0926 17.1466 13.1346 17.1805 13.1616" fill="#009B3A"/>
<path d="M6.21426 10.5541L6.12851 10.819L6.26047 10.8621" fill="white"/>
<path d="M6.21426 10.5541L6.30002 10.819L6.16806 10.8621" fill="white"/>
<path d="M6.47818 10.7466L6.20081 10.7468L6.20068 10.8859" fill="white"/>
<path d="M6.47818 10.7464L6.25356 10.9103L6.17212 10.7978" fill="white"/>
<path d="M5.95038 10.7464L6.175 10.9103L6.25644 10.7978" fill="white"/>
<path d="M5.95038 10.7466L6.22775 10.7468L6.22788 10.8859" fill="white"/>
<path d="M6.37741 11.0578L6.29176 10.793L6.1597 10.8361" fill="white"/>
<path d="M6.37732 11.0579L6.15289 10.8943L6.23451 10.7815" fill="white"/>
<path d="M6.05124 11.058L6.27567 10.8944L6.19404 10.7816" fill="white"/>
<path d="M6.05118 11.058L6.13683 10.7931L6.26889 10.8362" fill="white"/>
<path d="M6.7869 13.2867L6.70114 13.5517L6.8331 13.5947" fill="white"/>
<path d="M6.7869 13.2867L6.87265 13.5517L6.74069 13.5947" fill="white"/>
<path d="M7.05081 13.4792L6.77344 13.4795L6.77331 13.6185" fill="white"/>
<path d="M7.05081 13.4791L6.82619 13.643L6.74475 13.5304" fill="white"/>
<path d="M6.52301 13.4791L6.74763 13.643L6.82907 13.5304" fill="white"/>
<path d="M6.52301 13.4792L6.80038 13.4795L6.80051 13.6185" fill="white"/>
<path d="M6.95004 13.7905L6.86439 13.5256L6.73233 13.5687" fill="white"/>
<path d="M6.94995 13.7906L6.72552 13.6269L6.80715 13.5141" fill="white"/>
<path d="M6.62387 13.7907L6.8483 13.627L6.76668 13.5142" fill="white"/>
<path d="M6.62381 13.7906L6.70946 13.5257L6.84152 13.5689" fill="white"/>
<path d="M5.99405 13.9168L5.92259 14.1376L6.03255 14.1735" fill="white"/>
<path d="M5.99405 13.9168L6.06551 14.1376L5.95554 14.1735" fill="white"/>
<path d="M6.21399 14.0772L5.98284 14.0775L5.98274 14.1933" fill="white"/>
<path d="M6.21399 14.0771L6.02681 14.2137L5.95894 14.1199" fill="white"/>
<path d="M5.77411 14.0771L5.96129 14.2137L6.02916 14.1199" fill="white"/>
<path d="M5.77411 14.0772L6.00525 14.0775L6.00536 14.1933" fill="white"/>
<path d="M6.12997 14.3367L6.0586 14.116L5.94855 14.1519" fill="white"/>
<path d="M6.12991 14.3368L5.94289 14.2004L6.01091 14.1064" fill="white"/>
<path d="M5.85822 14.3368L6.04524 14.2004L5.97722 14.1064" fill="white"/>
<path d="M5.85815 14.3367L5.92953 14.116L6.03958 14.1519" fill="white"/>
<path d="M7.42117 13.0347L7.38034 13.1609L7.44318 13.1813" fill="white"/>
<path d="M7.42117 13.0347L7.46201 13.1609L7.39917 13.1813" fill="white"/>
<path d="M7.54684 13.1264L7.41476 13.1265L7.4147 13.1927" fill="white"/>
<path d="M7.54684 13.1263L7.43988 13.2043L7.4011 13.1507" fill="white"/>
<path d="M7.2955 13.1263L7.40246 13.2043L7.44124 13.1507" fill="white"/>
<path d="M7.2955 13.1264L7.42758 13.1265L7.42764 13.1927" fill="white"/>
<path d="M7.49884 13.2746L7.45805 13.1485L7.39517 13.169" fill="white"/>
<path d="M7.49881 13.2747L7.39194 13.1967L7.43081 13.143" fill="white"/>
<path d="M7.34354 13.2747L7.45041 13.1967L7.41154 13.143" fill="white"/>
<path d="M7.34351 13.2746L7.38429 13.1485L7.44718 13.169" fill="white"/>
<path d="M8.13477 13.9787L8.06331 14.1995L8.17327 14.2354" fill="white"/>
<path d="M8.13477 13.9787L8.20623 14.1995L8.09626 14.2354" fill="white"/>
<path d="M8.35471 14.1392L8.12356 14.1394L8.12346 14.2552" fill="white"/>
<path d="M8.35471 14.139L8.16752 14.2756L8.09966 14.1818" fill="white"/>
<path d="M7.91483 14.139L8.10201 14.2756L8.16987 14.1818" fill="white"/>
<path d="M7.91483 14.1392L8.14597 14.1394L8.14608 14.2552" fill="white"/>
<path d="M8.27069 14.3986L8.19931 14.1779L8.08926 14.2138" fill="white"/>
<path d="M8.27063 14.3987L8.0836 14.2623L8.15163 14.1683" fill="white"/>
<path d="M7.99893 14.3987L8.18596 14.2623L8.11794 14.1683" fill="white"/>
<path d="M7.99887 14.3986L8.07025 14.1779L8.1803 14.2138" fill="white"/>
<path d="M7.94098 14.6707L7.88381 14.8474L7.97178 14.8761" fill="white"/>
<path d="M7.94098 14.6707L7.99815 14.8474L7.91017 14.8761" fill="white"/>
<path d="M8.11691 14.7991L7.932 14.7992L7.93191 14.8919" fill="white"/>
<path d="M8.11691 14.799L7.96717 14.9082L7.91287 14.8332" fill="white"/>
<path d="M7.76501 14.799L7.91476 14.9082L7.96905 14.8332" fill="white"/>
<path d="M7.76501 14.7991L7.94993 14.7992L7.95001 14.8919" fill="white"/>
<path d="M8.04971 15.0067L7.99261 14.8301L7.90457 14.8588" fill="white"/>
<path d="M8.04965 15.0067L7.90003 14.8976L7.95445 14.8224" fill="white"/>
<path d="M7.83224 15.0067L7.98187 14.8976L7.92745 14.8224" fill="white"/>
<path d="M7.83221 15.0067L7.88932 14.8301L7.97736 14.8588" fill="white"/>
<path d="M13.5086 9.7051L13.4228 9.97004L13.5548 10.0131" fill="white"/>
<path d="M13.5086 9.7051L13.5943 9.97004L13.4624 10.0131" fill="white"/>
<path d="M13.7725 9.89759L13.4951 9.89785L13.495 10.0369" fill="white"/>
<path d="M13.7725 9.89746L13.5479 10.0613L13.4664 9.94877" fill="white"/>
<path d="M13.2447 9.89746L13.4693 10.0613L13.5507 9.94877" fill="white"/>
<path d="M13.2447 9.89759L13.5221 9.89785L13.5222 10.0369" fill="white"/>
<path d="M13.6717 10.2089L13.5861 9.944L13.454 9.98711" fill="white"/>
<path d="M13.6716 10.2089L13.4472 10.0453L13.5288 9.93251" fill="white"/>
<path d="M13.3456 10.209L13.57 10.0454L13.4884 9.93261" fill="white"/>
<path d="M13.3455 10.209L13.4311 9.9441L13.5632 9.98722" fill="white"/>
<path d="M16.0369 14.0031L15.9511 14.268L16.0831 14.311" fill="white"/>
<path d="M16.0369 14.0031L16.1226 14.268L15.9907 14.311" fill="white"/>
<path d="M16.3008 14.1955L16.0234 14.1958L16.0233 14.3348" fill="white"/>
<path d="M16.3008 14.1954L16.0762 14.3593L15.9948 14.2467" fill="white"/>
<path d="M15.773 14.1954L15.9976 14.3593L16.0791 14.2467" fill="white"/>
<path d="M15.773 14.1955L16.0504 14.1958L16.0505 14.3348" fill="white"/>
<path d="M16.2 14.5068L16.1144 14.242L15.9823 14.2851" fill="white"/>
<path d="M16.2 14.5069L15.9755 14.3432L16.0571 14.2305" fill="white"/>
<path d="M15.8739 14.507L16.0983 14.3433L16.0167 14.2306" fill="white"/>
<path d="M15.8738 14.5069L15.9595 14.2421L16.0915 14.2852" fill="white"/>
<path d="M16.9355 14.1578L16.8783 14.3344L16.9663 14.3631" fill="white"/>
<path d="M16.9355 14.1578L16.9927 14.3344L16.9047 14.3631" fill="white"/>
<path d="M17.1115 14.2861L16.9265 14.2863L16.9265 14.379" fill="white"/>
<path d="M17.1115 14.2861L16.9617 14.3953L16.9074 14.3203" fill="white"/>
<path d="M16.7596 14.2861L16.9093 14.3953L16.9636 14.3203" fill="white"/>
<path d="M16.7596 14.2861L16.9445 14.2863L16.9446 14.379" fill="white"/>
<path d="M17.0443 14.4937L16.9871 14.3172L16.8991 14.3459" fill="white"/>
<path d="M17.0442 14.4938L16.8946 14.3847L16.949 14.3095" fill="white"/>
<path d="M16.8268 14.4938L16.9764 14.3847L16.922 14.3095" fill="white"/>
<path d="M16.8268 14.4937L16.8839 14.3172L16.9719 14.3459" fill="white"/>
<path d="M16.3012 14.6243L16.2297 14.8451L16.3397 14.881" fill="white"/>
<path d="M16.3012 14.6243L16.3726 14.8451L16.2627 14.881" fill="white"/>
<path d="M16.5211 14.7847L16.29 14.7849L16.2899 14.9008" fill="white"/>
<path d="M16.5211 14.7846L16.3339 14.9212L16.2661 14.8274" fill="white"/>
<path d="M16.0812 14.7846L16.2684 14.9212L16.3363 14.8274" fill="white"/>
<path d="M16.0812 14.7847L16.3124 14.7849L16.3125 14.9008" fill="white"/>
<path d="M16.4371 15.0442L16.3657 14.8235L16.2557 14.8594" fill="white"/>
<path d="M16.437 15.0443L16.25 14.9079L16.318 14.8139" fill="white"/>
<path d="M16.1653 15.0443L16.3524 14.9079L16.2843 14.8139" fill="white"/>
<path d="M16.1653 15.0442L16.2367 14.8235L16.3467 14.8594" fill="white"/>
<path d="M14.7419 15.9862L14.6705 16.207L14.7804 16.2429" fill="white"/>
<path d="M14.7419 15.9862L14.8134 16.207L14.7034 16.2429" fill="white"/>
<path d="M14.9619 16.1466L14.7307 16.1468L14.7306 16.2627" fill="white"/>
<path d="M14.9619 16.1465L14.7747 16.2831L14.7068 16.1893" fill="white"/>
<path d="M14.522 16.1465L14.7092 16.2831L14.777 16.1893" fill="white"/>
<path d="M14.522 16.1466L14.7531 16.1468L14.7532 16.2627" fill="white"/>
<path d="M14.8778 16.4061L14.8065 16.1854L14.6964 16.2213" fill="white"/>
<path d="M14.8778 16.4062L14.6908 16.2698L14.7588 16.1758" fill="white"/>
<path d="M14.6061 16.4062L14.7931 16.2698L14.7251 16.1758" fill="white"/>
<path d="M14.606 16.4061L14.6774 16.1854L14.7874 16.2213" fill="white"/>
<path d="M14.7331 16.6871L14.6759 16.8637L14.7639 16.8924" fill="white"/>
<path d="M14.7331 16.6871L14.7903 16.8637L14.7023 16.8924" fill="white"/>
<path d="M14.9091 16.8154L14.7241 16.8156L14.7241 16.9083" fill="white"/>
<path d="M14.9091 16.8153L14.7593 16.9246L14.705 16.8495" fill="white"/>
<path d="M14.5572 16.8153L14.7069 16.9246L14.7612 16.8495" fill="white"/>
<path d="M14.5572 16.8154L14.7421 16.8156L14.7422 16.9082" fill="white"/>
<path d="M14.8419 17.023L14.7848 16.8464L14.6967 16.8752" fill="white"/>
<path d="M14.8418 17.023L14.6922 16.9139L14.7466 16.8387" fill="white"/>
<path d="M14.6244 17.023L14.774 16.9139L14.7196 16.8387" fill="white"/>
<path d="M14.6244 17.023L14.6815 16.8464L14.7695 16.8752" fill="white"/>
<path d="M15.385 15.5197L15.3278 15.6964L15.4158 15.725" fill="white"/>
<path d="M15.385 15.5197L15.4422 15.6964L15.3542 15.725" fill="white"/>
<path d="M15.561 15.6481L15.3761 15.6482L15.376 15.7409" fill="white"/>
<path d="M15.561 15.648L15.4112 15.7572L15.3569 15.6822" fill="white"/>
<path d="M15.2091 15.648L15.3588 15.7572L15.4131 15.6822" fill="white"/>
<path d="M15.2091 15.648L15.394 15.6482L15.3941 15.7409" fill="white"/>
<path d="M15.4937 15.8556L15.4366 15.6791L15.3486 15.7078" fill="white"/>
<path d="M15.4937 15.8557L15.3441 15.7466L15.3985 15.6714" fill="white"/>
<path d="M15.2763 15.8557L15.4259 15.7466L15.3715 15.6714" fill="white"/>
<path d="M15.2763 15.8556L15.3334 15.6791L15.4214 15.7078" fill="white"/>
<path d="M15.9048 15.1461L15.8333 15.3669L15.9433 15.4027" fill="white"/>
<path d="M15.9048 15.1461L15.9762 15.3669L15.8662 15.4027" fill="white"/>
<path d="M16.1247 15.3065L15.8936 15.3067L15.8934 15.4226" fill="white"/>
<path d="M16.1247 15.3064L15.9375 15.4429L15.8696 15.3492" fill="white"/>
<path d="M15.6848 15.3064L15.872 15.4429L15.9399 15.3491" fill="white"/>
<path d="M15.6848 15.3065L15.916 15.3067L15.9161 15.4226" fill="white"/>
<path d="M16.0407 15.566L15.9693 15.3453L15.8593 15.3812" fill="white"/>
<path d="M16.0406 15.566L15.8536 15.4297L15.9216 15.3357" fill="white"/>
<path d="M15.7689 15.566L15.9559 15.4297L15.8879 15.3357" fill="white"/>
<path d="M15.7689 15.566L15.8402 15.3453L15.9503 15.3812" fill="white"/>
<path d="M14.7155 15.3959L14.6583 15.5725L14.7463 15.6012" fill="white"/>
<path d="M14.7155 15.3959L14.7727 15.5725L14.6847 15.6012" fill="white"/>
<path d="M14.8914 15.5242L14.7065 15.5244L14.7064 15.6171" fill="white"/>
<path d="M14.8914 15.5242L14.7417 15.6334L14.6874 15.5584" fill="white"/>
<path d="M14.5396 15.5242L14.6893 15.6334L14.7436 15.5584" fill="white"/>
<path d="M14.5396 15.5242L14.7245 15.5244L14.7246 15.6171" fill="white"/>
<path d="M14.8242 15.7318L14.7671 15.5553L14.6791 15.584" fill="white"/>
<path d="M14.8242 15.7319L14.6745 15.6228L14.729 15.5476" fill="white"/>
<path d="M14.6068 15.7319L14.7564 15.6228L14.702 15.5476" fill="white"/>
<path d="M14.6068 15.7318L14.6639 15.5553L14.7519 15.584" fill="white"/>
<path d="M9.03333 12.0332L8.96187 12.2539L9.07183 12.2898" fill="white"/>
<path d="M9.03333 12.0332L9.10479 12.2539L8.99482 12.2898" fill="white"/>
<path d="M9.25327 12.1936L9.02212 12.1938L9.02202 12.3096" fill="white"/>
<path d="M9.25327 12.1935L9.06608 12.33L8.99822 12.2362" fill="white"/>
<path d="M8.81339 12.1935L9.00057 12.33L9.06843 12.2362" fill="white"/>
<path d="M8.81339 12.1936L9.04453 12.1938L9.04463 12.3096" fill="white"/>
<path d="M9.16925 12.4531L9.09787 12.2323L8.98782 12.2683" fill="white"/>
<path d="M9.16919 12.4531L8.98216 12.3167L9.05019 12.2228" fill="white"/>
<path d="M8.89749 12.4531L9.08452 12.3167L9.0165 12.2228" fill="white"/>
<path d="M8.89743 12.4531L8.96881 12.2323L9.07886 12.2683" fill="white"/>
<path d="M13.2619 11.4871L13.2047 11.6637L13.2927 11.6924" fill="white"/>
<path d="M13.2619 11.4871L13.3191 11.6637L13.2311 11.6924" fill="white"/>
<path d="M13.4379 11.6154L13.253 11.6156L13.2529 11.7083" fill="white"/>
<path d="M13.4379 11.6153L13.2881 11.7246L13.2338 11.6495" fill="white"/>
<path d="M13.086 11.6153L13.2357 11.7246L13.29 11.6495" fill="white"/>
<path d="M13.086 11.6154L13.2709 11.6156L13.271 11.7083" fill="white"/>
<path d="M13.3706 11.823L13.3135 11.6464L13.2255 11.6752" fill="white"/>
<path d="M13.3706 11.823L13.221 11.7139L13.2754 11.6388" fill="white"/>
<path d="M13.1532 11.823L13.3028 11.7139L13.2484 11.6388" fill="white"/>
<path d="M13.1532 11.823L13.2103 11.6464L13.2983 11.6752" fill="white"/>
<path d="M11.5 14.6398L11.4142 14.9047L11.5462 14.9478" fill="white"/>
<path d="M11.5 14.6398L11.5858 14.9047L11.4538 14.9478" fill="white"/>
<path d="M11.7639 14.8323L11.4865 14.8325L11.4864 14.9716" fill="white"/>
<path d="M11.7639 14.8322L11.5393 14.996L11.4579 14.8835" fill="white"/>
<path d="M11.2361 14.8322L11.4607 14.996L11.5422 14.8835" fill="white"/>
<path d="M11.2361 14.8323L11.5135 14.8325L11.5136 14.9716" fill="white"/>
<path d="M11.6631 15.1436L11.5775 14.8787L11.4454 14.9218" fill="white"/>
<path d="M11.6631 15.1436L11.4386 14.98L11.5203 14.8672" fill="white"/>
<path d="M11.337 15.1437L11.5614 14.9801L11.4798 14.8673" fill="white"/>
<path d="M11.3369 15.1437L11.4226 14.8788L11.5546 14.9219" fill="white"/>
<path d="M12.2488 13.3951L12.1773 13.6158L12.2873 13.6517" fill="white"/>
<path d="M12.2488 13.3951L12.3203 13.6158L12.2103 13.6517" fill="white"/>
<path d="M12.4687 13.5555L12.2376 13.5557L12.2375 13.6715" fill="white"/>
<path d="M12.4687 13.5554L12.2815 13.6919L12.2137 13.5981" fill="white"/>
<path d="M12.0289 13.5554L12.2161 13.6919L12.2839 13.5981" fill="white"/>
<path d="M12.0289 13.5555L12.26 13.5557L12.2601 13.6715" fill="white"/>
<path d="M12.3847 13.815L12.3134 13.5942L12.2033 13.6302" fill="white"/>
<path d="M12.3847 13.815L12.1976 13.6786L12.2657 13.5847" fill="white"/>
<path d="M12.1129 13.815L12.3 13.6786L12.2319 13.5847" fill="white"/>
<path d="M12.1129 13.815L12.1843 13.5942L12.2943 13.6302" fill="white"/>
<path d="M11.5 12.8114L11.4285 13.0322L11.5385 13.068" fill="white"/>
<path d="M11.5 12.8114L11.5715 13.0322L11.4615 13.068" fill="white"/>
<path d="M11.7199 12.9718L11.4888 12.972L11.4887 13.0879" fill="white"/>
<path d="M11.7199 12.9717L11.5328 13.1083L11.4649 13.0145" fill="white"/>
<path d="M11.2801 12.9717L11.4672 13.1082L11.5351 13.0144" fill="white"/>
<path d="M11.2801 12.9718L11.5112 12.972L11.5113 13.0879" fill="white"/>
<path d="M11.6359 13.2313L11.5645 13.0106L11.4545 13.0465" fill="white"/>
<path d="M11.6359 13.2313L11.4488 13.095L11.5169 13.001" fill="white"/>
<path d="M11.3642 13.2313L11.5512 13.095L11.4832 13.001" fill="white"/>
<path d="M11.3641 13.2313L11.4355 13.0106L11.5455 13.0465" fill="white"/>
<path d="M10.8481 13.4415L10.7909 13.6181L10.8789 13.6468" fill="white"/>
<path d="M10.8481 13.4415L10.9053 13.6181L10.8173 13.6468" fill="white"/>
<path d="M11.024 13.5698L10.8391 13.57L10.839 13.6627" fill="white"/>
<path d="M11.024 13.5697L10.8743 13.679L10.82 13.6039" fill="white"/>
<path d="M10.6721 13.5697L10.8219 13.679L10.8762 13.6039" fill="white"/>
<path d="M10.6721 13.5698L10.8571 13.57L10.8571 13.6627" fill="white"/>
<path d="M10.9568 13.7774L10.8997 13.6008L10.8117 13.6296" fill="white"/>
<path d="M10.9568 13.7775L10.8072 13.6684L10.8616 13.5932" fill="white"/>
<path d="M10.7394 13.7775L10.889 13.6684L10.8346 13.5932" fill="white"/>
<path d="M10.7393 13.7774L10.7965 13.6008L10.8845 13.6296" fill="white"/>
<path d="M11.174 13.9456L11.1332 14.0717L11.196 14.0922" fill="white"/>
<path d="M11.174 13.9456L11.2149 14.0717L11.152 14.0922" fill="white"/>
<path d="M11.2997 14.0372L11.1676 14.0374L11.1676 14.1036" fill="white"/>
<path d="M11.2997 14.0372L11.1928 14.1152L11.154 14.0616" fill="white"/>
<path d="M11.0484 14.0372L11.1553 14.1152L11.1941 14.0616" fill="white"/>
<path d="M11.0484 14.0372L11.1805 14.0374L11.1805 14.1036" fill="white"/>
<path d="M11.2517 14.1855L11.2109 14.0594L11.148 14.0799" fill="white"/>
<path d="M11.2517 14.1856L11.1448 14.1076L11.1837 14.0539" fill="white"/>
<path d="M11.0964 14.1855L11.2033 14.1076L11.1644 14.0539" fill="white"/>
<path d="M11.0964 14.1855L11.1372 14.0594L11.2 14.0799" fill="white"/>
<path d="M13.4381 16.1454L13.3666 16.3662L13.4766 16.4021" fill="white"/>
<path d="M13.4381 16.1454L13.5095 16.3662L13.3996 16.4021" fill="white"/>
<path d="M13.658 16.3058L13.4268 16.306L13.4267 16.4219" fill="white"/>
<path d="M13.658 16.3057L13.4708 16.4423L13.4029 16.3485" fill="white"/>
<path d="M13.2181 16.3057L13.4053 16.4423L13.4732 16.3485" fill="white"/>
<path d="M13.2181 16.3058L13.4493 16.306L13.4494 16.4219" fill="white"/>
<path d="M13.574 16.5653L13.5026 16.3446L13.3926 16.3805" fill="white"/>
<path d="M13.5739 16.5654L13.3869 16.429L13.4549 16.335" fill="white"/>
<path d="M13.3022 16.5654L13.4893 16.429L13.4212 16.335" fill="white"/>
<path d="M13.3022 16.5653L13.3736 16.3446L13.4836 16.3805" fill="white"/>
<path d="M13.9931 15.617L13.9359 15.7936L14.0239 15.8223" fill="white"/>
<path d="M13.9931 15.617L14.0503 15.7936L13.9623 15.8223" fill="white"/>
<path d="M14.1691 15.7453L13.9842 15.7455L13.9841 15.8382" fill="white"/>
<path d="M14.1691 15.7452L14.0193 15.8545L13.965 15.7794" fill="white"/>
<path d="M13.8172 15.7452L13.9669 15.8545L14.0212 15.7794" fill="white"/>
<path d="M13.8172 15.7453L14.0021 15.7455L14.0022 15.8382" fill="white"/>
<path d="M14.1019 15.9529L14.0448 15.7763L13.9567 15.8051" fill="white"/>
<path d="M14.1018 15.953L13.9522 15.8439L14.0066 15.7687" fill="white"/>
<path d="M13.8844 15.953L14.034 15.8439L13.9796 15.7687" fill="white"/>
<path d="M13.8844 15.9529L13.9415 15.7763L14.0295 15.8051" fill="white"/>
<path d="M12.9271 15.4578L12.87 15.6344L12.9579 15.6631" fill="white"/>
<path d="M12.9271 15.4578L12.9843 15.6344L12.8963 15.6631" fill="white"/>
<path d="M13.1031 15.5862L12.9182 15.5863L12.9181 15.679" fill="white"/>
<path d="M13.1031 15.5861L12.9533 15.6953L12.8991 15.6203" fill="white"/>
<path d="M12.7512 15.5861L12.9009 15.6953L12.9552 15.6203" fill="white"/>
<path d="M12.7512 15.5861L12.9361 15.5863L12.9362 15.679" fill="white"/>
<path d="M13.0359 15.7937L12.9788 15.6172L12.8907 15.6459" fill="white"/>
<path d="M13.0358 15.7938L12.8862 15.6847L12.9406 15.6095" fill="white"/>
<path d="M12.8184 15.7938L12.968 15.6847L12.9136 15.6095" fill="white"/>
<path d="M12.8184 15.7937L12.8755 15.6172L12.9635 15.6459" fill="white"/>
<path d="M8.90118 15.1704L8.81543 15.4353L8.94739 15.4784" fill="white"/>
<path d="M8.90118 15.1704L8.98694 15.4353L8.85498 15.4784" fill="white"/>
<path d="M9.1651 15.3629L8.88773 15.3632L8.8876 15.5022" fill="white"/>
<path d="M9.1651 15.3628L8.94048 15.5266L8.85904 15.4141" fill="white"/>
<path d="M8.6373 15.3628L8.86192 15.5266L8.94336 15.4141" fill="white"/>
<path d="M8.6373 15.3629L8.91467 15.3632L8.9148 15.5022" fill="white"/>
<path d="M9.06433 15.6742L8.97868 15.4093L8.84662 15.4524" fill="white"/>
<path d="M9.06424 15.6742L8.83981 15.5106L8.92143 15.3978" fill="white"/>
<path d="M8.73816 15.6743L8.96259 15.5107L8.88096 15.3979" fill="white"/>
<path d="M8.7381 15.6743L8.82375 15.4094L8.95581 15.4525" fill="white"/>
<path d="M11.5 16.9922L11.4714 17.0805L11.5154 17.0948" fill="white"/>
<path d="M11.5 16.9922L11.5286 17.0805L11.4846 17.0948" fill="white"/>
<path d="M11.588 17.0563L11.4955 17.0564L11.4955 17.1028" fill="white"/>
<path d="M11.588 17.0563L11.5131 17.1109L11.4859 17.0734" fill="white"/>
<path d="M11.412 17.0563L11.4869 17.1109L11.5141 17.0734" fill="white"/>
<path d="M11.412 17.0563L11.5045 17.0564L11.5045 17.1028" fill="white"/>
<path d="M11.5544 17.1601L11.5258 17.0718L11.4818 17.0862" fill="white"/>
<path d="M11.5544 17.1602L11.4795 17.1056L11.5068 17.068" fill="white"/>
<path d="M11.4457 17.1602L11.5205 17.1056L11.4933 17.068" fill="white"/>
<path d="M11.4456 17.1601L11.4742 17.0718L11.5182 17.0862" fill="white"/>
</g>
</g>
<defs>
<clipPath id="clip0_1_1029">
<rect width="37" height="26" fill="white" transform="translate(-7 -1)"/>
</clipPath>
</defs>
</svg>
