<svg width="17" height="16" viewBox="0 0 17 16" fill="none" xmlns="http://www.w3.org/2000/svg">
<path fill-rule="evenodd" clip-rule="evenodd" d="M14.8 8.0001C14.8 9.69748 14.1257 11.3253 12.9255 12.5256C11.7253 13.7258 10.0974 14.4001 8.4 14.4001C6.70261 14.4001 5.07475 13.7258 3.87452 12.5256C2.67428 11.3253 2 9.69748 2 8.0001C2 6.30271 2.67428 4.67485 3.87452 3.47461C5.07475 2.27438 6.70261 1.6001 8.4 1.6001C10.0974 1.6001 11.7253 2.27438 12.9255 3.47461C14.1257 4.67485 14.8 6.30271 14.8 8.0001ZM9.2 4.8001C9.2 5.01227 9.11571 5.21575 8.96568 5.36578C8.81566 5.51581 8.61217 5.6001 8.4 5.6001C8.18783 5.6001 7.98434 5.51581 7.83431 5.36578C7.68429 5.21575 7.6 5.01227 7.6 4.8001C7.6 4.58792 7.68429 4.38444 7.83431 4.23441C7.98434 4.08438 8.18783 4.0001 8.4 4.0001C8.61217 4.0001 8.81566 4.08438 8.96568 4.23441C9.11571 4.38444 9.2 4.58792 9.2 4.8001ZM7.6 7.2001C7.38783 7.2001 7.18434 7.28438 7.03431 7.43441C6.88429 7.58444 6.8 7.78792 6.8 8.0001C6.8 8.21227 6.88429 8.41575 7.03431 8.56578C7.18434 8.71581 7.38783 8.8001 7.6 8.8001V11.2001C7.6 11.4123 7.68429 11.6158 7.83431 11.7658C7.98434 11.9158 8.18783 12.0001 8.4 12.0001H9.2C9.41217 12.0001 9.61566 11.9158 9.76568 11.7658C9.91571 11.6158 10 11.4123 10 11.2001C10 10.9879 9.91571 10.7844 9.76568 10.6344C9.61566 10.4844 9.41217 10.4001 9.2 10.4001V8.0001C9.2 7.78792 9.11571 7.58444 8.96568 7.43441C8.81566 7.28438 8.61217 7.2001 8.4 7.2001H7.6Z" fill="#051655"/>
</svg>
