<svg version="1.1" xmlns="http://www.w3.org/2000/svg" xmlns:xlink="http://www.w3.org/1999/xlink" width="24" height="24" viewBox="0,0,256,256"><g fill="#000000" fill-rule="evenodd" stroke="none" stroke-width="1" stroke-linecap="butt" stroke-linejoin="miter" stroke-miterlimit="10" stroke-dasharray="" stroke-dashoffset="0" font-family="none" font-weight="none" font-size="none" text-anchor="none" style="mix-blend-mode: normal"><g transform="scale(10.66667,10.66667)"><path d="M4.25,6.8c0,-1.96061 1.58939,-3.55 3.55,-3.55h8.4c1.9606,0 3.55,1.58939 3.55,3.55v10.4c0,1.9606 -1.5894,3.55 -3.55,3.55h-8.4c-1.96061,0 -3.55,-1.5894 -3.55,-3.55zM13.2501,16.0302c0.0054,-0.4142 0.3455,-0.7456 0.7597,-0.7402l0.3036,0.0039l0.0039,-0.3037c0.0054,-0.4141 0.3455,-0.7455 0.7597,-0.7401c0.4142,0.0054 0.7456,0.3455 0.7402,0.7597l-0.004,0.3037l0.3037,0.0039c0.4142,0.0054 0.7456,0.3455 0.7402,0.7597c-0.0054,0.4142 -0.3455,0.7456 -0.7597,0.7402l-0.3037,-0.004l-0.0039,0.3036c-0.0054,0.4142 -0.3456,0.7456 -0.7597,0.7402c-0.4142,-0.0054 -0.7456,-0.3455 -0.7402,-0.7597l0.0039,-0.3036l-0.3036,-0.0039c-0.4141,-0.0054 -0.7455,-0.3456 -0.7401,-0.7597zM8,15.25c-0.41421,0 -0.75,0.3358 -0.75,0.75c0,0.4142 0.33579,0.75 0.75,0.75h2.1073c0.4143,0 0.75,-0.3358 0.75,-0.75c0,-0.4142 -0.3357,-0.75 -0.75,-0.75zM9.2,6.25c-1.07696,0 -1.95,0.87304 -1.95,1.95v1.6c0,1.077 0.87304,1.95 1.95,1.95h5.6c1.077,0 1.95,-0.873 1.95,-1.95v-1.6c0,-1.07696 -0.873,-1.95 -1.95,-1.95zM8.75,8.2c0,-0.24853 0.20147,-0.45 0.45,-0.45h5.6c0.2485,0 0.45,0.20147 0.45,0.45v1.6c0,0.2485 -0.2015,0.45 -0.45,0.45h-5.6c-0.24853,0 -0.45,-0.2015 -0.45,-0.45z"></path></g></g></svg>