<svg width="24" height="24" viewBox="0 0 24 24" fill="none" xmlns="http://www.w3.org/2000/svg">
<path fill-rule="evenodd" clip-rule="evenodd" d="M4.25 6.8C4.25 4.83939 5.83939 3.25 7.8 3.25H16.2C18.1606 3.25 19.75 4.83939 19.75 6.8V17.2C19.75 19.1606 18.1606 20.75 16.2 20.75H7.8C5.83939 20.75 4.25 19.1606 4.25 17.2V6.8ZM13.2501 16.0302C13.2555 15.616 13.5956 15.2846 14.0098 15.29L14.3134 15.2939L14.3173 14.9902C14.3227 14.5761 14.6628 14.2447 15.077 14.2501C15.4912 14.2555 15.8226 14.5956 15.8172 15.0098L15.8132 15.3135L16.1169 15.3174C16.5311 15.3228 16.8625 15.6629 16.8571 16.0771C16.8517 16.4913 16.5116 16.8227 16.0974 16.8173L15.7937 16.8133L15.7898 17.1169C15.7844 17.5311 15.4442 17.8625 15.0301 17.8571C14.6159 17.8517 14.2845 17.5116 14.2899 17.0974L14.2938 16.7938L13.9902 16.7899C13.5761 16.7845 13.2447 16.4443 13.2501 16.0302ZM8 15.25C7.58579 15.25 7.25 15.5858 7.25 16C7.25 16.4142 7.58579 16.75 8 16.75H10.1073C10.5216 16.75 10.8573 16.4142 10.8573 16C10.8573 15.5858 10.5216 15.25 10.1073 15.25H8ZM9.2 6.25C8.12304 6.25 7.25 7.12304 7.25 8.2V9.8C7.25 10.877 8.12304 11.75 9.2 11.75H14.8C15.877 11.75 16.75 10.877 16.75 9.8V8.2C16.75 7.12304 15.877 6.25 14.8 6.25H9.2ZM8.75 8.2C8.75 7.95147 8.95147 7.75 9.2 7.75H14.8C15.0485 7.75 15.25 7.95147 15.25 8.2V9.8C15.25 10.0485 15.0485 10.25 14.8 10.25H9.2C8.95147 10.25 8.75 10.0485 8.75 9.8V8.2Z" fill="#6673BD"/>
</svg>
