<svg width="24" height="24" viewBox="0 0 24 24" fill="none" xmlns="http://www.w3.org/2000/svg">
<path fill-rule="evenodd" clip-rule="evenodd" d="M17.0004 7.87427C17.5512 8.02541 17.9849 8.47072 18.1321 9.03622C18.3996 10.0611 18.3996 12.1996 18.3996 12.1996C18.3996 12.1996 18.3996 14.338 18.1321 15.363C17.9849 15.9285 17.5512 16.3738 17.0004 16.525C16.0023 16.7996 11.9996 16.7996 11.9996 16.7996C11.9996 16.7996 7.99692 16.7996 6.99874 16.525C6.44797 16.3738 6.01423 15.9285 5.86703 15.363C5.59961 14.338 5.59961 12.1996 5.59961 12.1996C5.59961 12.1996 5.59961 10.0611 5.86703 9.03622C6.01423 8.47072 6.44797 8.02541 6.99874 7.87427C7.99692 7.59961 11.9996 7.59961 11.9996 7.59961C11.9996 7.59961 16.0023 7.59961 17.0004 7.87427ZM10.7988 10.3997V14.3997L13.9988 12.3997L10.7988 10.3997Z" fill="white"/>
</svg>
