<svg width="24" height="24" viewBox="0 0 24 24" fill="none" xmlns="http://www.w3.org/2000/svg">
<path d="M15.4169 7.81472C14.9929 7.81472 14.6489 8.15832 14.6489 8.58246C14.6489 9.00647 14.9929 9.35047 15.4169 9.35047C15.8409 9.35047 16.1849 9.00647 16.1849 8.58246C16.1849 8.15846 15.8409 7.81445 15.4169 7.81445V7.81472Z" fill="white"/>
<path d="M12.0007 5.59961C10.2625 5.59961 10.0444 5.60721 9.36174 5.63828C8.6804 5.66948 8.21532 5.77734 7.80839 5.93561C7.38745 6.09908 7.03038 6.31775 6.67464 6.67362C6.31864 7.02936 6.09997 7.38643 5.93597 7.80723C5.7773 8.2143 5.6693 8.67951 5.63863 9.36058C5.6081 10.0433 5.6001 10.2615 5.6001 11.9997C5.6001 13.7378 5.60783 13.9553 5.63876 14.638C5.6701 15.3193 5.77797 15.7844 5.9361 16.1913C6.0997 16.6123 6.31837 16.9693 6.67424 17.3251C7.02985 17.6811 7.38692 17.9003 7.80759 18.0637C8.21479 18.222 8.68 18.3299 9.3612 18.3611C10.0439 18.3921 10.2619 18.3997 11.9999 18.3997C13.7382 18.3997 13.9557 18.3921 14.6383 18.3611C15.3197 18.3299 15.7853 18.222 16.1925 18.0637C16.6133 17.9003 16.9698 17.6811 17.3254 17.3251C17.6814 16.9693 17.9001 16.6123 18.0641 16.1915C18.2214 15.7844 18.3294 15.3192 18.3614 14.6381C18.3921 13.9554 18.4001 13.7378 18.4001 11.9997C18.4001 10.2615 18.3921 10.0434 18.3614 9.36072C18.3294 8.67937 18.2214 8.2143 18.0641 7.80737C17.9001 7.38643 17.6814 7.02936 17.3254 6.67362C16.9694 6.31762 16.6134 6.09895 16.1921 5.93561C15.7841 5.77734 15.3187 5.66948 14.6374 5.63828C13.9547 5.60721 13.7374 5.59961 11.9987 5.59961H12.0007Z" stroke="white"/>
<path fill-rule="evenodd" clip-rule="evenodd" d="M8.71387 11.9996C8.71387 10.1845 10.1854 8.71296 12.0004 8.71289C13.8155 8.71289 15.2867 10.1845 15.2867 11.9996C15.2867 13.8147 13.8157 15.2856 12.0006 15.2856C10.1855 15.2856 8.71387 13.8147 8.71387 11.9996ZM14.1339 12.0005C14.1339 10.8223 13.1787 9.86719 12.0005 9.86719C10.8223 9.86719 9.86719 10.8223 9.86719 12.0005C9.86719 13.1787 10.8223 14.1339 12.0005 14.1339C13.1787 14.1339 14.1339 13.1787 14.1339 12.0005Z" fill="white"/>
</svg>
