<svg width="24" height="24" viewBox="0 0 24 24" fill="none" xmlns="http://www.w3.org/2000/svg">
<path d="M14 11.25L13.25 11.25L13.25 12.75L14 12.75L14 11.25ZM15 12.75C15.4142 12.75 15.75 12.4142 15.75 12C15.75 11.5858 15.4142 11.25 15 11.25L15 12.75ZM14.9167 11.25C14.5025 11.25 14.1667 11.5858 14.1667 12C14.1667 12.4142 14.5025 12.75 14.9167 12.75L14.9167 11.25ZM14.75 12.75C15.1642 12.75 15.5 12.4142 15.5 12C15.5 11.5858 15.1642 11.25 14.75 11.25L14.75 12.75ZM14.5833 11.25C14.1691 11.25 13.8333 11.5858 13.8333 12C13.8333 12.4142 14.1691 12.75 14.5833 12.75L14.5833 11.25ZM14.4167 12.75C14.8309 12.75 15.1667 12.4142 15.1667 12C15.1667 11.5858 14.8309 11.25 14.4167 11.25L14.4167 12.75ZM14.25 11.25C13.8358 11.25 13.5 11.5858 13.5 12C13.5 12.4142 13.8358 12.75 14.25 12.75L14.25 11.25ZM14.0833 12.75C14.4975 12.75 14.8333 12.4142 14.8333 12C14.8333 11.5858 14.4975 11.25 14.0833 11.25L14.0833 12.75ZM15 11.25L14.9167 11.25L14.9167 12.75L15 12.75L15 11.25ZM14.75 11.25L14.5833 11.25L14.5833 12.75L14.75 12.75L14.75 11.25ZM14.4167 11.25L14.25 11.25L14.25 12.75L14.4167 12.75L14.4167 11.25ZM14.0833 11.25L14 11.25L14 12.75L14.0833 12.75L14.0833 11.25Z" fill="#6673BD"/>
<path fill-rule="evenodd" clip-rule="evenodd" d="M7.49621 3.9344C5.2995 3.49506 3.25 5.17525 3.25 7.41546V16.5846C3.25 18.8248 5.2995 20.505 7.49621 20.0656L11.8962 19.1856C13.5556 18.8538 14.75 17.3968 14.75 15.7046V12.7484C14.7335 12.7494 14.7168 12.75 14.7 12.75H14.5C14.4661 12.75 14.4327 12.7478 14.4 12.7434C14.3673 12.7478 14.3339 12.75 14.3 12.75H14.1C14.0661 12.75 14.0327 12.7478 14 12.7434C13.9673 12.7478 13.9339 12.75 13.9 12.75H13.7C13.6661 12.75 13.6327 12.7478 13.6 12.7434C13.5673 12.7478 13.5339 12.75 13.5 12.75H13.3C13.2661 12.75 13.2327 12.7478 13.2 12.7434C13.1673 12.7478 13.1339 12.75 13.1 12.75H12.9C12.8661 12.75 12.8327 12.7478 12.8 12.7434C12.7673 12.7478 12.7339 12.75 12.7 12.75H12.5C12.4661 12.75 12.4327 12.7478 12.4 12.7434C12.3673 12.7478 12.3339 12.75 12.3 12.75H12.1C12.0661 12.75 12.0327 12.7478 12 12.7434C11.9673 12.7478 11.9339 12.75 11.9 12.75H11.7C11.6661 12.75 11.6327 12.7478 11.6 12.7434C11.5673 12.7478 11.5339 12.75 11.5 12.75H11.3C11.2661 12.75 11.2327 12.7478 11.2 12.7434C11.1673 12.7478 11.1339 12.75 11.1 12.75H10.9C10.8661 12.75 10.8327 12.7478 10.8 12.7434C10.7673 12.7478 10.7339 12.75 10.7 12.75H10.5C10.4661 12.75 10.4327 12.7478 10.4 12.7434C10.3673 12.7478 10.3339 12.75 10.3 12.75H10.1C10.0661 12.75 10.0327 12.7478 10 12.7434C9.96729 12.7478 9.93391 12.75 9.9 12.75H9.7C9.66609 12.75 9.63271 12.7478 9.6 12.7434C9.56729 12.7478 9.53391 12.75 9.5 12.75H9.3C9.2661 12.75 9.23272 12.7478 9.2 12.7434C9.16729 12.7478 9.13391 12.75 9.1 12.75H9C8.58579 12.75 8.25 12.4142 8.25 12C8.25 11.5858 8.58579 11.25 9 11.25H9.1C9.13391 11.25 9.16729 11.2522 9.2 11.2566C9.23272 11.2522 9.2661 11.25 9.3 11.25H9.5C9.53391 11.25 9.56729 11.2522 9.6 11.2566C9.63271 11.2522 9.66609 11.25 9.7 11.25H9.9C9.93391 11.25 9.96729 11.2522 10 11.2566C10.0327 11.2522 10.0661 11.25 10.1 11.25H10.3C10.3339 11.25 10.3673 11.2522 10.4 11.2566C10.4327 11.2522 10.4661 11.25 10.5 11.25H10.7C10.7339 11.25 10.7673 11.2522 10.8 11.2566C10.8327 11.2522 10.8661 11.25 10.9 11.25H11.1C11.1339 11.25 11.1673 11.2522 11.2 11.2566C11.2327 11.2522 11.2661 11.25 11.3 11.25H11.5C11.5339 11.25 11.5673 11.2522 11.6 11.2566C11.6327 11.2522 11.6661 11.25 11.7 11.25H11.9C11.9339 11.25 11.9673 11.2522 12 11.2566C12.0327 11.2522 12.0661 11.25 12.1 11.25H12.3C12.3339 11.25 12.3673 11.2522 12.4 11.2566C12.4327 11.2522 12.4661 11.25 12.5 11.25H12.7C12.7339 11.25 12.7673 11.2522 12.8 11.2566C12.8327 11.2522 12.8661 11.25 12.9 11.25H13.1C13.1339 11.25 13.1673 11.2522 13.2 11.2566C13.2327 11.2522 13.2661 11.25 13.3 11.25H13.5C13.5339 11.25 13.5673 11.2522 13.6 11.2566C13.6327 11.2522 13.6661 11.25 13.7 11.25H13.9C13.9339 11.25 13.9673 11.2522 14 11.2566C14.0327 11.2522 14.0661 11.25 14.1 11.25H14.3C14.3339 11.25 14.3673 11.2522 14.4 11.2566C14.4327 11.2522 14.4661 11.25 14.5 11.25H14.7C14.7168 11.25 14.7335 11.2506 14.75 11.2516V8.29546C14.75 6.60325 13.5556 5.14627 11.8962 4.8144L7.49621 3.9344Z" fill="#6673BD"/>
<path d="M16 15L18.9333 12.8C19.4667 12.4 19.4667 11.6 18.9333 11.2L16 9" stroke="#6673BD" stroke-width="1.5" stroke-linecap="round" stroke-dasharray="0.2 0.2"/>
</svg>
