<svg width="24" height="24" viewBox="0 0 24 24" fill="none" xmlns="http://www.w3.org/2000/svg">
<path d="M11 3.94286V3C11 2.44772 11.4477 2 12 2V2C12.5523 2 13 2.44772 13 3V4" stroke="#051655" stroke-width="1.5"/>
<path d="M13.1673 4H10.566C8.26318 4 6.70255 6.15507 7.25921 8.3896C7.80663 10.587 7.77786 12.232 6.29852 15.3831C6.29852 15.3831 9.15841 15.0446 11 15L11.0585 14.9986C11.8032 14.9805 12.2393 14.9699 13 15C14.3739 15.0543 15.1398 15.182 16.5 15.3831C16.9808 15.4542 17.7287 15.5816 17.7287 15.5816C16.3175 13.2865 16.2099 11.0627 16.6794 8.64537C17.1335 6.30702 15.5493 4 13.1673 4Z" fill="#051655" stroke="#051655" stroke-width="1.5" stroke-linecap="round"/>
<ellipse cx="12" cy="16.5" rx="7" ry="1.5" fill="#051655" stroke="#051655" stroke-width="1.5"/>
<path d="M14 21C14 21 13.6667 22 12 22C10.3333 22 10 21 10 21" stroke="#051655" stroke-width="1.4" stroke-linecap="round" stroke-linejoin="round"/>
</svg>
