<svg width="24" height="24" viewBox="0 0 24 24" fill="none" xmlns="http://www.w3.org/2000/svg">
<path d="M11 3.94286V3C11 2.44772 11.4477 2 12 2V2C12.5523 2 13 2.44772 13 3V4" stroke="#6673BD" stroke-width="1.5"/>
<path d="M13.1676 4H10.5663C8.26348 4 6.70285 6.15507 7.25952 8.3896C7.80694 10.587 7.77817 12.232 6.29883 15.3831C6.29883 15.3831 9.15872 15.0446 11.0003 15L11.0588 14.9986C11.8035 14.9805 12.2396 14.9699 13.0003 15C14.3742 15.0543 15.1401 15.182 16.5003 15.3831C16.9811 15.4542 17.729 15.5816 17.729 15.5816C16.3178 13.2865 16.2102 11.0627 16.6797 8.64537C17.1338 6.30702 15.5496 4 13.1676 4Z" fill="#6673BD" stroke="#6673BD" stroke-width="1.5" stroke-linecap="round"/>
<ellipse cx="12" cy="16.5" rx="7" ry="1.5" fill="#6673BD" stroke="#6673BD" stroke-width="1.5"/>
<path d="M14 21C14 21 13.6667 22 12 22C10.3333 22 10 21 10 21" stroke="#6673BD" stroke-width="1.4" stroke-linecap="round" stroke-linejoin="round"/>
</svg>
