<svg width="24" height="24" viewBox="0 0 24 24" fill="none" xmlns="http://www.w3.org/2000/svg">
<path d="M8.44531 7V5C8.44531 3.89543 9.34074 3 10.4453 3H13.5564C14.661 3 15.5564 3.89543 15.5564 5V7" stroke="#6673BD" stroke-width="1.5" stroke-linecap="round"/>
<path fill-rule="evenodd" clip-rule="evenodd" d="M17.1925 6.25759C19.1568 6.25074 20.75 7.84223 20.75 9.80499V10.2501H20H18.9377C17.6488 10.2501 16.5328 11.1453 16.2532 12.4035L16.0603 13.2712C15.9332 13.8431 15.426 14.2501 14.8401 14.2501H14.5278V14.0001C14.5278 13.5858 14.192 13.2501 13.7778 13.2501C13.3636 13.2501 13.0278 13.5858 13.0278 14.0001V14.2501H10.75V14.0001C10.75 13.5858 10.4142 13.2501 10 13.2501C9.58579 13.2501 9.25 13.5858 9.25 14.0001V14.2501H9.1599C8.57403 14.2501 8.06676 13.8431 7.93966 13.2712L7.74684 12.4035C7.46721 11.1452 6.351 10.2501 5.06215 10.2501H5.05935H5.05655H5.05375H5.05095H5.04815H5.04536H5.04257H5.03977H5.03698H5.03419H5.0314H5.02862H5.02583H5.02305H5.02026H5.01748H5.0147H5.01192H5.00915H5.00637H5.0036H5.00082H4.99805H4.99528H4.99252H4.98975H4.98699H4.98422H4.98146H4.9787H4.97594H4.97319H4.97043H4.96768H4.96492H4.96217H4.95943H4.95668H4.95393H4.95119H4.94845H4.94571H4.94297H4.94023H4.9375H4.93476H4.93203H4.9293H4.92657H4.92385H4.92112H4.9184H4.91568H4.91296H4.91024H4.90753H4.90481H4.9021H4.89939H4.89668H4.89398H4.89127H4.88857H4.88587H4.88317H4.88047H4.87778H4.87509H4.8724H4.86971H4.86702H4.86433H4.86165H4.85897H4.85629H4.85361H4.85094H4.84826H4.84559H4.84292H4.84026H4.83759H4.83493H4.83227H4.82961H4.82695H4.8243H4.82164H4.81899H4.81634H4.8137H4.81105H4.80841H4.80577H4.80313H4.8005H4.79787H4.79523H4.79261H4.78998H4.78735H4.78473H4.78211H4.77949H4.77688H4.77426H4.77165H4.76904H4.76644H4.76383H4.76123H4.75863H4.75604H4.75344H4.75085H4.74826H4.74567H4.74308H4.7405H4.73792H4.73534H4.73277H4.73019H4.72762H4.72505H4.72249H4.71992H4.71736H4.7148H4.71225H4.70969H4.70714H4.70459H4.70205H4.6995H4.69696H4.69442H4.69189H4.68935H4.68682H4.68429H4.68177H4.67924H4.67672H4.6742H4.67169H4.66918H4.66667H4.66416H4.66165H4.65915H4.65665H4.65415H4.65166H4.64917H4.64668H4.64419H4.64171H4.63923H4.63675H4.63428H4.6318H4.62933H4.62687H4.6244H4.62194H4.61948H4.61703H4.61457H4.61212H4.60968H4.60723H4.60479H4.60235H4.59992H4.59748H4.59505H4.59263H4.5902H4.58778H4.58536H4.58295H4.58054H4.57813H4.57572H4.57332H4.57092H4.56852H4.56612H4.56373H4.56134H4.55896H4.55658H4.5542H4.55182H4.54945H4.54708H4.54471H4.54234H4.53998H4.53763H4.53527H4.53292H4.53057H4.52823H4.52588H4.52354H4.52121H4.51888H4.51655H4.51422H4.5119H4.50958H4.50726H4.50495H4.50264H4.50033H4.49803H4.49573H4.49343H4.49113H4.48884H4.48656H4.48427H4.48199H4.47971H4.47744H4.47517H4.4729H4.47064H4.46838H4.46612H4.46387H4.46162H4.45937H4.45713H4.45489H4.45265H4.45042H4.44819H4.44596H4.44374H4.44152H4.4393H4.43709H4.43488H4.43268H4.43047H4.42827H4.42608H4.42389H4.4217H4.41952H4.41734H4.41516H4.41299H4.41082H4.40865H4.40649H4.40433H4.40217H4.40002H4.39787H4.39573H4.39359H4.39145H4.38932H4.38719H4.38506H4.38294H4.38082H4.37871H4.3766H4.37449H4.37239H4.37029H4.36819H4.3661H4.36401H4.36193H4.35985H4.35777H4.3557H4.35363H4.35156H4.3495H4.34744H4.34539H4.34334H4.3413H4.33925H4.33722H4.33518H4.33315H4.33112H4.3291H4.32708H4.32507H4.32306H4.32105H4.31905H4.31705H4.31506H4.31307H4.31108H4.3091H4.30712H4.30515H4.30318H4.30121H4.29925H4.29729H4.29534H4.29339H4.29144H4.2895H4.28756H4.28563H4.2837H4.28178H4.27986H4.27794H4.27603H4.27412H4.27221H4.27032H4.26842H4.26653H4.26464H4.26276H4.26088H4.25901H4.25714H4.25527H4.25341H4.25155H4.2497H4.24785H4.24601H4.24417H4.24233H4.2405H4.23868H4.23685H4.23504H4.23322H4.23141H4.22961H4.22781H4.22601H4.22422H4.22243H4.22065H4.21887H4.2171H4.21533H4.21357H4.21181H4.21005H4.2083H4.20655H4.20481H4.20307H4.20134H4.19961H4.19789H4.19617H4.19446H4.19275H4.19104H4.18934H4.18764H4.18595H4.18427H4.18258H4.18091H4.17923H4.17757H4.1759H4.17424H4.17259H4.17094H4.1693H4.16766H4.16602H4.16439H4.16276H4.16114H4.15953H4.15792H4.15631H4.15471H4.15311H4.15152H4.14993H4.14835H4.14677H4.1452H4.14363H4.14207H4.14051H4.13896H4.13741H4.13587H4.13433H4.13279H4.13127H4.12974H4.12822H4.12671H4.1252H4.1237H4.1222H4.1207H4.11922H4.11773H4.11625H4.11478H4.11331H4.11185H4.11039H4.10894H4.10749H4.10604H4.10461H4.10317H4.10174H4.10032H4.0989H4.09749H4.09608H4.09468H4.09328H4.09189H4.09051H4.08912H4.08775H4.08638H4.08501H4.08365H4.08229H4.08094H4.0796H4.07826H4.07693H4.0756H4.07427H4.07295H4.07164H4.07033H4.06903H4.06773H4.06644H4.06515H4.06387H4.0626H4.06133H4.06006H4.0588H4.05755H4.0563H4.05506H4.05382H4.05259H4.05136H4.05014H4.04892H4.04771H4.04651H4.04531H4.04411H4.04292H4.04174H4.04056H4.03939H4.03822H4.03706H4.03591H4.03476H4.03361H4.03247H4.03134H4.03021H4.02909H4.02798H4.02687H4.02576H4.02466H4.02357H4.02248H4.0214H4.02032H4.01925H4.01819H4.01713H4.01607H4.01502H4.01398H4.01295H4.01192H4.01089H4.00987H4.00886H4.00785H4.00685H4.00585H4.00486H4.00388H4.0029H4.00193H4.00096H4H3.25V9.82826C3.25 7.85243 4.86264 6.26148 6.83303 6.27192C9.75178 6.28737 12.1738 6.27753 14.9758 6.26615L14.9759 6.26615C15.6856 6.26327 16.4197 6.26029 17.1925 6.25759ZM9.25 15.7501H9.1599C7.87098 15.7501 6.75499 14.8548 6.47538 13.5966L6.28256 12.7289C6.15548 12.1571 5.6481 11.7501 5.06215 11.7501H5.05935H5.05655H5.05375H5.05095H5.04815H5.04536H5.04257H5.03977H5.03698H5.03419H5.0314H5.02862H5.02583H5.02305H5.02026H5.01748H5.0147H5.01192H5.00915H5.00637H5.0036H5.00082H4.99805H4.99528H4.99252H4.98975H4.98699H4.98422H4.98146H4.9787H4.97594H4.97319H4.97043H4.96768H4.96492H4.96217H4.95943H4.95668H4.95393H4.95119H4.94845H4.94571H4.94297H4.94023H4.9375H4.93476H4.93203H4.9293H4.92657H4.92385H4.92112H4.9184H4.91568H4.91296H4.91024H4.90753H4.90481H4.9021H4.89939H4.89668H4.89398H4.89127H4.88857H4.88587H4.88317H4.88047H4.87778H4.87509H4.8724H4.86971H4.86702H4.86433H4.86165H4.85897H4.85629H4.85361H4.85094H4.84826H4.84559H4.84292H4.84026H4.83759H4.83493H4.83227H4.82961H4.82695H4.8243H4.82164H4.81899H4.81634H4.8137H4.81105H4.80841H4.80577H4.80313H4.8005H4.79787H4.79523H4.79261H4.78998H4.78735H4.78473H4.78211H4.77949H4.77688H4.77426H4.77165H4.76904H4.76644H4.76383H4.76123H4.75863H4.75604H4.75344H4.75085H4.74826H4.74567H4.74308H4.7405H4.73792H4.73534H4.73277H4.73019H4.72762H4.72505H4.72249H4.71992H4.71736H4.7148H4.71225H4.70969H4.70714H4.70459H4.70205H4.6995H4.69696H4.69442H4.69189H4.68935H4.68682H4.68429H4.68177H4.67924H4.67672H4.6742H4.67169H4.66918H4.66667H4.66416H4.66165H4.65915H4.65665H4.65415H4.65166H4.64917H4.64668H4.64419H4.64171H4.63923H4.63675H4.63428H4.6318H4.62933H4.62687H4.6244H4.62194H4.61948H4.61703H4.61457H4.61212H4.60968H4.60723H4.60479H4.60235H4.59992H4.59748H4.59505H4.59263H4.5902H4.58778H4.58536H4.58295H4.58054H4.57813H4.57572H4.57332H4.57092H4.56852H4.56612H4.56373H4.56134H4.55896H4.55658H4.5542H4.55182H4.54945H4.54708H4.54471H4.54234H4.53998H4.53763H4.53527H4.53292H4.53057H4.52823H4.52588H4.52354H4.52121H4.51888H4.51655H4.51422H4.5119H4.50958H4.50726H4.50495H4.50264H4.50033H4.49803H4.49573H4.49343H4.49113H4.48884H4.48656H4.48427H4.48199H4.47971H4.47744H4.47517H4.4729H4.47064H4.46838H4.46612H4.46387H4.46162H4.45937H4.45713H4.45489H4.45265H4.45042H4.44819H4.44596H4.44374H4.44152H4.4393H4.43709H4.43488H4.43268H4.43047H4.42827H4.42608H4.42389H4.4217H4.41952H4.41734H4.41516H4.41299H4.41082H4.40865H4.40649H4.40433H4.40217H4.40002H4.39787H4.39573H4.39359H4.39145H4.38932H4.38719H4.38506H4.38294H4.38082H4.37871H4.3766H4.37449H4.37239H4.37029H4.36819H4.3661H4.36401H4.36193H4.35985H4.35777H4.3557H4.35363H4.35156H4.3495H4.34744H4.34539H4.34334H4.3413H4.33925H4.33722H4.33518H4.33315H4.33112H4.3291H4.32708H4.32507H4.32306H4.32105H4.31905H4.31705H4.31506H4.31307H4.31108H4.3091H4.30712H4.30515H4.30318H4.30121H4.29925H4.29729H4.29534H4.29339H4.29144H4.2895H4.28756H4.28563H4.2837H4.28178H4.27986H4.27794H4.27603H4.27412H4.27221H4.27032H4.26842H4.26653H4.26464H4.26276H4.26088H4.25901H4.25714H4.25527H4.25341H4.25155H4.2497H4.24785H4.24601H4.24417H4.24233H4.2405H4.23868H4.23685H4.23504H4.23322H4.23141H4.22961H4.22781H4.22601H4.22422H4.22243H4.22065H4.21887H4.2171H4.21533H4.21357H4.21181H4.21005H4.2083H4.20655H4.20481H4.20307H4.20134H4.19961H4.19789H4.19617H4.19446H4.19275H4.19104H4.18934H4.18764H4.18595H4.18427H4.18258H4.18091H4.17923H4.17757H4.1759H4.17424H4.17259H4.17094H4.1693H4.16766H4.16602H4.16439H4.16276H4.16114H4.15953H4.15792H4.15631H4.15471H4.15311H4.15152H4.14993H4.14835H4.14677H4.1452H4.14363H4.14207H4.14051H4.13896H4.13741H4.13587H4.13433H4.13279H4.13127H4.12974H4.12822H4.12671H4.1252H4.1237H4.1222H4.1207H4.11922H4.11773H4.11625H4.11478H4.11331H4.11185H4.11039H4.10894H4.10749H4.10604H4.10461H4.10317H4.10174H4.10032H4.0989H4.09749H4.09608H4.09468H4.09328H4.09189H4.09051H4.08912H4.08775H4.08638H4.08501H4.08365H4.08229H4.08094H4.0796H4.07826H4.07693H4.0756H4.07427H4.07295H4.07164H4.07033H4.06903H4.06773H4.06644H4.06515H4.06387H4.0626H4.06133H4.06006H4.0588H4.05755H4.0563H4.05506H4.05382H4.05259H4.05136H4.05014H4.04892H4.04771H4.04651H4.04531H4.04411H4.04292H4.04174H4.04056H4.03939H4.03822H4.03706H4.03591H4.03476H4.03361H4.03247H4.03134H4.03021H4.02909H4.02798H4.02687H4.02576H4.02466H4.02357H4.02248H4.0214H4.02032H4.01925H4.01819H4.01713H4.01607H4.01502H4.01398H4.01295H4.01192H4.01089H4.00987H4.00886H4.00785H4.00685H4.00585H4.00486H4.00388H4.0029H4.00193H4.00096H4H3.25V18.2001C3.25 20.1607 4.83939 21.7501 6.8 21.7501H17.2C19.1606 21.7501 20.75 20.1607 20.75 18.2001V11.7501H20H18.9377C18.3518 11.7501 17.8445 12.157 17.7174 12.7289L17.5246 13.5966C17.245 14.8548 16.129 15.7501 14.8401 15.7501H14.5278V16.0001C14.5278 16.4143 14.192 16.7501 13.7778 16.7501C13.3636 16.7501 13.0278 16.4143 13.0278 16.0001V15.7501H10.75V16.0001C10.75 16.4143 10.4142 16.7501 10 16.7501C9.58579 16.7501 9.25 16.4143 9.25 16.0001V15.7501ZM9.02783 10.5001C9.02783 10.0858 9.36362 9.75006 9.77783 9.75006H14.2223C14.6365 9.75006 14.9723 10.0858 14.9723 10.5001C14.9723 10.9143 14.6365 11.2501 14.2223 11.2501H9.77783C9.36362 11.2501 9.02783 10.9143 9.02783 10.5001Z" fill="#6673BD"/>
</svg>
