<svg width="170" height="32" viewBox="0 0 170 32" fill="none" xmlns="http://www.w3.org/2000/svg">
<path d="M38.6298 5.93848H27.4963V26.0611H38.6298V5.93848Z" fill="#9F72DC"/>
<path d="M28.2374 15.9995C28.2374 11.9112 30.1479 8.28263 33.0795 5.93816C30.922 4.23159 28.2003 3.2002 25.2317 3.2002C18.1991 3.2002 12.5088 8.92466 12.5088 15.9995C12.5088 23.0743 18.1991 28.7988 25.2317 28.7988C28.2003 28.7988 30.922 27.7674 33.0795 26.0608C30.1438 23.7495 28.2374 20.0878 28.2374 15.9995Z" fill="#9F72DC"/>
<path d="M53.6503 15.9995C53.6503 23.0743 47.96 28.7988 40.9274 28.7988C37.9587 28.7988 35.2371 27.7674 33.0795 26.0608C36.0482 23.7122 37.9216 20.0878 37.9216 15.9995C37.9216 11.9112 36.0111 8.28263 33.0795 5.93816C35.233 4.23159 37.9546 3.2002 40.9233 3.2002C47.96 3.2002 53.6503 8.96194 53.6503 15.9995Z" fill="#345DC4"/>
<g clip-path="url(#clip0_95_13370)">
<path d="M97.3156 6.48379C98.1508 6.31685 99.0602 6.3354 99.8582 6.70639C100.545 7.02173 101.083 7.65242 101.343 8.35731C101.621 9.0622 101.584 9.84129 101.529 10.6018C101.399 11.7334 101.065 12.8834 100.322 13.7738C99.7654 14.4602 98.9674 14.9424 98.1137 15.1094C97.6868 15.2021 97.2228 15.2021 96.7774 15.1836C96.1093 15.1279 95.4226 14.9795 94.8844 14.5529C94.6246 14.3303 94.4019 14.0521 94.272 13.7367C93.9379 15.3134 93.641 16.8902 93.3069 18.4669C92.7501 18.4669 92.2119 18.4669 91.6552 18.4669C92.2676 15.4433 92.88 12.4382 93.4739 9.41464C93.6224 8.46861 93.7894 7.54112 93.8822 6.57654C94.4019 6.57654 94.9215 6.57654 95.4226 6.57654C95.3298 7.00318 95.237 7.44838 95.1628 7.87502C95.6268 7.11448 96.4619 6.65074 97.3156 6.48379ZM97.5012 7.67097C96.8702 7.74517 96.2763 8.07907 95.8309 8.54281C95.1999 9.22915 94.8473 10.1566 94.7545 11.0656C94.6803 11.6963 94.7174 12.364 95.0514 12.9205C95.3669 13.477 95.9608 13.8295 96.5918 13.9037C97.2228 14.015 97.8724 13.8295 98.3735 13.4399C98.9488 12.9762 99.32 12.3084 99.5427 11.6035C99.7469 10.9357 99.8397 10.2123 99.784 9.50739C99.7469 8.988 99.5427 8.45006 99.1159 8.09762C98.6704 7.70807 98.058 7.59677 97.5012 7.67097ZM103.96 6.79914C105.166 6.42814 106.465 6.2241 107.727 6.50234C108.414 6.65074 109.101 6.98463 109.527 7.55967C109.936 8.11617 110.047 8.85815 109.973 9.54449C109.936 10.0639 109.824 10.5647 109.732 11.0841C109.472 12.3826 109.212 13.6811 109.045 14.9981C108.544 14.9981 108.024 14.9981 107.523 14.9981C107.616 14.4973 107.709 13.9779 107.801 13.477C107.467 14.0892 106.948 14.6086 106.317 14.9053C105.574 15.2578 104.721 15.2763 103.923 15.0908C103.254 14.9239 102.605 14.5344 102.271 13.9037C101.955 13.273 101.955 12.5124 102.178 11.8632C102.401 11.1769 102.976 10.6575 103.626 10.3792C104.591 9.95258 105.667 9.84129 106.725 9.82274C107.282 9.78564 107.82 9.84129 108.377 9.85984C108.507 9.35899 108.47 8.8025 108.173 8.37586C107.931 8.02342 107.523 7.81937 107.115 7.74517C106.41 7.59677 105.667 7.68952 104.962 7.87502C104.517 7.98632 104.09 8.17181 103.7 8.39441C103.774 7.83792 103.867 7.31853 103.96 6.79914ZM104.628 11.3995C104.22 11.6221 103.867 12.0116 103.793 12.4939C103.718 12.8278 103.793 13.1988 104.015 13.4585C104.257 13.7367 104.646 13.8851 105.018 13.9222C105.723 13.9964 106.428 13.7367 106.948 13.2544C107.579 12.6608 107.95 11.8261 108.043 10.9728C107.616 10.9728 107.17 10.9728 106.744 10.9728C106.02 10.9728 105.277 11.0656 104.628 11.3995ZM111.031 6.57654C111.606 6.57654 112.163 6.57654 112.738 6.57654C113.128 8.82105 113.518 11.0656 113.907 13.3101C115.151 11.0841 116.376 8.82105 117.619 6.57654C118.213 6.57654 118.807 6.57654 119.401 6.57654C117.582 9.69289 115.782 12.8092 113.963 15.9256C113.555 16.6119 113.202 17.3354 112.645 17.9104C112.237 18.337 111.662 18.5967 111.068 18.6338C110.511 18.6895 109.936 18.6338 109.379 18.5411C109.453 18.0959 109.546 17.6693 109.639 17.2241C110.177 17.4652 110.845 17.4096 111.346 17.0942C111.884 16.7603 112.237 16.2038 112.534 15.6473C112.571 15.5731 112.627 15.4989 112.645 15.4062C112.107 12.4753 111.569 9.52594 111.031 6.57654Z" fill="#9F72DC"/>
<path d="M123.317 10.9915C123.929 10.7318 124.616 10.6761 125.284 10.7689C125.915 10.8616 126.509 11.1213 126.991 11.5665C127.585 12.1045 127.975 12.865 128.161 13.6441C128.383 14.5345 128.365 15.4805 128.272 16.3894C128.161 17.354 127.938 18.3001 127.511 19.1904C127.158 19.9139 126.676 20.5817 126.026 21.0825C125.414 21.5648 124.69 21.8616 123.929 21.9544C123.168 22.0471 122.352 22.01 121.665 21.639C120.978 21.2866 120.477 20.6373 120.125 19.9695C119.716 22.01 119.308 24.0319 118.9 26.0724C117.768 26.0724 116.635 26.0724 115.503 26.0724C116.413 21.5648 117.304 17.0572 118.213 12.5497C118.324 12.0303 118.361 11.5109 118.417 10.9915C119.438 10.9915 120.477 10.9915 121.498 10.9915C121.405 11.5665 121.312 12.1416 121.238 12.7166C121.758 11.9561 122.463 11.3254 123.317 10.9915ZM122.908 13.607C122.519 13.6812 122.166 13.8852 121.888 14.1449C121.442 14.5716 121.127 15.1281 120.941 15.7031C120.7 16.4451 120.644 17.2613 120.923 17.9847C121.071 18.3743 121.331 18.7638 121.721 18.9493C122.147 19.1534 122.649 19.1163 123.075 18.9679C123.688 18.7453 124.152 18.2259 124.449 17.6508C124.82 16.8903 124.95 15.9999 124.839 15.1652C124.764 14.7014 124.597 14.2377 124.245 13.9223C123.873 13.607 123.372 13.5142 122.908 13.607ZM131.223 11.3439C132.336 10.9173 133.543 10.7132 134.749 10.7318C135.547 10.7132 136.382 10.8431 137.125 11.177C137.718 11.4552 138.238 11.9004 138.554 12.4569C138.943 13.1618 139.036 13.978 138.999 14.7571C138.906 15.8515 138.646 16.9274 138.424 18.0033C138.164 19.2276 137.941 20.4704 137.774 21.7132C136.865 21.7132 135.937 21.7132 135.027 21.7132C135.083 21.1567 135.139 20.6002 135.194 20.0437C134.897 20.5446 134.526 21.0269 134.025 21.3608C133.45 21.7689 132.726 21.9544 132.039 21.9729C131.223 21.9915 130.332 21.8616 129.664 21.3422C129.107 20.9341 128.81 20.2663 128.699 19.5985C128.587 18.8566 128.625 18.0775 128.94 17.3911C129.237 16.7048 129.775 16.1483 130.406 15.7773C131.223 15.295 132.151 15.0539 133.079 14.9611C133.988 14.8684 134.898 14.9426 135.807 15.0168C135.844 14.6829 135.863 14.2933 135.677 13.9965C135.38 13.4771 134.768 13.2546 134.192 13.236C133.524 13.2175 132.837 13.2917 132.206 13.4957C131.761 13.6441 131.334 13.8481 130.907 14.0893C131 13.1433 131.111 12.2529 131.223 11.3439ZM132.633 17.2613C132.244 17.4653 131.872 17.8178 131.817 18.263C131.724 18.838 132.206 19.3945 132.763 19.4501C133.431 19.5243 134.118 19.2832 134.582 18.8009C135.083 18.3001 135.343 17.6137 135.454 16.9459C135.194 16.9088 134.935 16.8903 134.693 16.8903C133.988 16.8532 133.264 16.9274 132.633 17.2613ZM142.804 11.0657C143.936 10.6947 145.161 10.6205 146.33 10.8431C146.998 10.9544 147.648 11.1399 148.297 11.3625C148.056 12.1787 147.833 12.9949 147.592 13.811C146.627 13.3658 145.55 13.1433 144.492 13.236C144.196 13.2731 143.88 13.3288 143.639 13.5328C143.435 13.6812 143.323 13.9594 143.342 14.2006C143.379 14.4046 143.527 14.5716 143.694 14.6829C144.029 14.9055 144.4 15.0353 144.752 15.2023C145.42 15.4805 146.089 15.7402 146.645 16.204C146.979 16.4822 147.258 16.8346 147.388 17.2427C147.536 17.6879 147.518 18.1888 147.443 18.6525C147.351 19.3759 147.035 20.0623 146.534 20.6002C145.959 21.2309 145.142 21.6205 144.325 21.8245C143.342 22.0657 142.321 22.01 141.319 21.9173C140.484 21.8245 139.649 21.6761 138.851 21.435C139.073 20.5817 139.296 19.7284 139.519 18.8751C140.41 19.3017 141.393 19.5243 142.377 19.4872C142.822 19.4687 143.268 19.4316 143.676 19.2276C143.917 19.1163 144.103 18.8566 144.121 18.5969C144.14 18.3743 144.029 18.1517 143.861 18.0033C143.639 17.8178 143.379 17.6879 143.119 17.5766C142.544 17.3355 141.95 17.15 141.412 16.8161C141.003 16.5564 140.632 16.1854 140.428 15.7402C140.15 15.2023 140.094 14.5716 140.131 13.9594C140.187 13.2917 140.484 12.6424 140.948 12.1787C141.486 11.6222 142.135 11.2883 142.804 11.0657ZM151.155 11.1213C152.102 10.7689 153.122 10.6576 154.143 10.7318C155.053 10.8245 155.962 11.0471 156.834 11.3439C156.611 12.1601 156.352 12.9763 156.129 13.7925C155.182 13.3473 154.125 13.1247 153.085 13.2175C152.77 13.2546 152.436 13.3102 152.157 13.5142C151.935 13.6812 151.823 13.9965 151.898 14.2562C152.009 14.5345 152.269 14.6829 152.529 14.8127C153.271 15.1837 154.087 15.4249 154.811 15.8701C155.294 16.1669 155.721 16.5749 155.925 17.1129C156.11 17.5766 156.073 18.0775 156.018 18.5598C155.925 19.3203 155.591 20.0623 155.053 20.6188C154.459 21.2495 153.642 21.6205 152.825 21.806C151.879 22.01 150.895 21.9729 149.93 21.8802C149.095 21.7874 148.241 21.639 147.443 21.3979C147.666 20.5446 147.889 19.6913 148.111 18.838C148.984 19.2646 149.93 19.4687 150.895 19.4501C151.248 19.4501 151.619 19.413 151.953 19.3203C152.194 19.2461 152.436 19.1348 152.584 18.9308C152.788 18.6525 152.733 18.2444 152.491 18.0033C152.232 17.7436 151.879 17.6137 151.545 17.4653C150.803 17.1685 150.004 16.9088 149.448 16.3152C148.947 15.8144 148.724 15.091 148.705 14.3861C148.668 13.6997 148.854 12.9763 149.281 12.4198C149.745 11.8077 150.431 11.3996 151.155 11.1213ZM157.911 11.7706C158.337 11.7706 158.746 11.7706 159.173 11.7706C159.154 11.8448 159.135 11.919 159.117 11.9932C158.95 11.9932 158.783 11.9932 158.616 11.9932C158.504 12.4569 158.412 12.9392 158.319 13.4029C158.226 13.4029 158.152 13.4029 158.059 13.4029C158.152 12.9392 158.263 12.4569 158.356 11.9932C158.189 11.9932 158.022 11.9932 157.855 11.9932C157.892 11.919 157.892 11.8448 157.911 11.7706ZM159.432 11.7706C159.544 11.7706 159.674 11.7706 159.804 11.7706C159.878 12.1972 159.952 12.6424 160.026 13.0691C160.286 12.6424 160.546 12.1972 160.806 11.7706C160.936 11.7706 161.066 11.7706 161.196 11.7706C161.084 12.3085 160.973 12.865 160.861 13.4029C160.769 13.4029 160.694 13.4029 160.62 13.4029C160.713 12.9392 160.806 12.494 160.899 12.0303C160.639 12.4755 160.36 12.9392 160.101 13.3844C160.008 13.3844 159.934 13.3844 159.859 13.3844C159.785 12.9207 159.711 12.4755 159.618 12.0117C159.525 12.4755 159.432 12.9207 159.321 13.3844C159.247 13.3844 159.154 13.3844 159.08 13.3844C159.173 12.8465 159.303 12.3085 159.432 11.7706Z" fill="#9F72DC"/>
</g>
<defs>
<clipPath id="clip0_95_13370">
<rect width="69.5961" height="25.5986" fill="white" transform="translate(91.5995 3.2002)"/>
</clipPath>
</defs>
</svg>
