<svg width="1410" height="161" viewBox="0 0 1410 161" fill="none" xmlns="http://www.w3.org/2000/svg">
<mask id="path-1-outside-1_97_15473" maskUnits="userSpaceOnUse" x="-2" y="-2" width="1414" height="165" fill="black">
<rect fill="white" x="-2" y="-2" width="1414" height="165"/>
<path d="M74.6157 3.93333C88.7561 3.93333 101.074 6.26577 111.57 10.9307C122.066 15.5956 130.157 22.3013 135.842 31.048C141.528 39.7947 144.37 49.9991 144.37 61.6613C144.37 73.3236 141.528 83.528 135.842 92.2747C130.157 101.021 122.066 107.727 111.57 112.392C101.074 117.057 88.7561 119.389 74.6157 119.389H52.5303V157H0.924999V3.93333H74.6157ZM71.3357 79.592C78.333 79.592 83.581 78.0613 87.0797 75C90.5783 71.7929 92.3277 67.3467 92.3277 61.6613C92.3277 55.976 90.5783 51.6027 87.0797 48.5413C83.581 45.3342 78.333 43.7307 71.3357 43.7307H52.5303V79.592H71.3357ZM226.895 118.515H212.9V157H161.295V3.93333H234.985C249.126 3.93333 261.444 6.26577 271.94 10.9307C282.436 15.5956 290.527 22.3013 296.212 31.048C301.897 39.7947 304.74 49.9991 304.74 61.6613C304.74 72.5947 302.262 82.1431 297.305 90.3067C292.349 98.4702 285.206 104.957 275.876 109.768L308.02 157H252.916L226.895 118.515ZM252.697 61.6613C252.697 55.976 250.948 51.6027 247.449 48.5413C243.951 45.3342 238.703 43.7307 231.705 43.7307H212.9V79.592H231.705C238.703 79.592 243.951 78.0613 247.449 75C250.948 71.7929 252.697 67.3467 252.697 61.6613ZM404.478 160.499C388.005 160.499 373.208 157.073 360.088 150.221C346.968 143.37 336.691 133.894 329.256 121.795C321.822 109.549 318.104 95.7733 318.104 80.4667C318.104 65.16 321.822 51.4569 329.256 39.3573C336.691 27.112 346.968 17.5636 360.088 10.712C373.208 3.86045 388.005 0.434669 404.478 0.434669C420.951 0.434669 435.747 3.86045 448.867 10.712C461.987 17.5636 472.264 27.112 479.699 39.3573C487.134 51.4569 490.851 65.16 490.851 80.4667C490.851 95.7733 487.134 109.549 479.699 121.795C472.264 133.894 461.987 143.37 448.867 150.221C435.747 157.073 420.951 160.499 404.478 160.499ZM404.478 118.733C410.892 118.733 416.65 117.203 421.752 114.141C427 110.934 431.155 106.488 434.216 100.803C437.278 94.9716 438.808 88.1929 438.808 80.4667C438.808 72.7404 437.278 66.0347 434.216 60.3493C431.155 54.5182 427 50.072 421.752 47.0107C416.65 43.8036 410.892 42.2 404.478 42.2C398.064 42.2 392.232 43.8036 386.984 47.0107C381.882 50.072 377.8 54.5182 374.739 60.3493C371.678 66.0347 370.147 72.7404 370.147 80.4667C370.147 88.1929 371.678 94.9716 374.739 100.803C377.8 106.488 381.882 110.934 386.984 114.141C392.232 117.203 398.064 118.733 404.478 118.733ZM610.824 76.312H655.651V141.037C646.612 147.306 636.116 152.116 624.163 155.469C612.209 158.822 600.474 160.499 588.957 160.499C572.63 160.499 557.979 157.146 545.005 150.44C532.031 143.588 521.827 134.113 514.392 122.013C507.103 109.768 503.459 95.9191 503.459 80.4667C503.459 65.0142 507.103 51.2382 514.392 39.1387C521.827 26.8933 532.104 17.4178 545.224 10.712C558.49 3.86045 573.432 0.434669 590.051 0.434669C605.066 0.434669 618.477 2.98578 630.285 8.088C642.239 13.0444 652.152 20.3333 660.024 29.9547L627.005 59.0373C617.384 47.8124 605.94 42.2 592.675 42.2C581.304 42.2 572.266 45.6258 565.56 52.4773C558.854 59.3289 555.501 68.6587 555.501 80.4667C555.501 91.9831 558.781 101.24 565.341 108.237C572.047 115.235 580.939 118.733 592.019 118.733C598.579 118.733 604.847 117.494 610.824 115.016V76.312ZM743.239 118.515H729.244V157H677.638V3.93333H751.329C765.47 3.93333 777.788 6.26577 788.284 10.9307C798.78 15.5956 806.871 22.3013 812.556 31.048C818.241 39.7947 821.084 49.9991 821.084 61.6613C821.084 72.5947 818.606 82.1431 813.649 90.3067C808.693 98.4702 801.55 104.957 792.22 109.768L824.364 157H769.26L743.239 118.515ZM769.041 61.6613C769.041 55.976 767.292 51.6027 763.793 48.5413C760.294 45.3342 755.046 43.7307 748.049 43.7307H729.244V79.592H748.049C755.046 79.592 760.294 78.0613 763.793 75C767.292 71.7929 769.041 67.3467 769.041 61.6613ZM944.875 130.323H886.709L876.432 157H823.952L890.864 3.93333H941.595L1008.51 157H955.152L944.875 130.323ZM930.661 93.1493L915.792 54.664L900.923 93.1493H930.661ZM1153.41 157L1152.97 87.2453L1119.73 143.224H1096.99L1063.76 89.6507V157H1016.74V3.93333H1059.16L1109.02 85.496L1157.56 3.93333H1199.99L1200.42 157H1153.41ZM1362.04 157L1361.6 87.2453L1328.36 143.224H1305.62L1272.39 89.6507V157H1225.37V3.93333H1267.79L1317.65 85.496L1366.19 3.93333H1408.62L1409.05 157H1362.04Z"/>
</mask>
<path d="M74.6157 3.93333C88.7561 3.93333 101.074 6.26577 111.57 10.9307C122.066 15.5956 130.157 22.3013 135.842 31.048C141.528 39.7947 144.37 49.9991 144.37 61.6613C144.37 73.3236 141.528 83.528 135.842 92.2747C130.157 101.021 122.066 107.727 111.57 112.392C101.074 117.057 88.7561 119.389 74.6157 119.389H52.5303V157H0.924999V3.93333H74.6157ZM71.3357 79.592C78.333 79.592 83.581 78.0613 87.0797 75C90.5783 71.7929 92.3277 67.3467 92.3277 61.6613C92.3277 55.976 90.5783 51.6027 87.0797 48.5413C83.581 45.3342 78.333 43.7307 71.3357 43.7307H52.5303V79.592H71.3357ZM226.895 118.515H212.9V157H161.295V3.93333H234.985C249.126 3.93333 261.444 6.26577 271.94 10.9307C282.436 15.5956 290.527 22.3013 296.212 31.048C301.897 39.7947 304.74 49.9991 304.74 61.6613C304.74 72.5947 302.262 82.1431 297.305 90.3067C292.349 98.4702 285.206 104.957 275.876 109.768L308.02 157H252.916L226.895 118.515ZM252.697 61.6613C252.697 55.976 250.948 51.6027 247.449 48.5413C243.951 45.3342 238.703 43.7307 231.705 43.7307H212.9V79.592H231.705C238.703 79.592 243.951 78.0613 247.449 75C250.948 71.7929 252.697 67.3467 252.697 61.6613ZM404.478 160.499C388.005 160.499 373.208 157.073 360.088 150.221C346.968 143.37 336.691 133.894 329.256 121.795C321.822 109.549 318.104 95.7733 318.104 80.4667C318.104 65.16 321.822 51.4569 329.256 39.3573C336.691 27.112 346.968 17.5636 360.088 10.712C373.208 3.86045 388.005 0.434669 404.478 0.434669C420.951 0.434669 435.747 3.86045 448.867 10.712C461.987 17.5636 472.264 27.112 479.699 39.3573C487.134 51.4569 490.851 65.16 490.851 80.4667C490.851 95.7733 487.134 109.549 479.699 121.795C472.264 133.894 461.987 143.37 448.867 150.221C435.747 157.073 420.951 160.499 404.478 160.499ZM404.478 118.733C410.892 118.733 416.65 117.203 421.752 114.141C427 110.934 431.155 106.488 434.216 100.803C437.278 94.9716 438.808 88.1929 438.808 80.4667C438.808 72.7404 437.278 66.0347 434.216 60.3493C431.155 54.5182 427 50.072 421.752 47.0107C416.65 43.8036 410.892 42.2 404.478 42.2C398.064 42.2 392.232 43.8036 386.984 47.0107C381.882 50.072 377.8 54.5182 374.739 60.3493C371.678 66.0347 370.147 72.7404 370.147 80.4667C370.147 88.1929 371.678 94.9716 374.739 100.803C377.8 106.488 381.882 110.934 386.984 114.141C392.232 117.203 398.064 118.733 404.478 118.733ZM610.824 76.312H655.651V141.037C646.612 147.306 636.116 152.116 624.163 155.469C612.209 158.822 600.474 160.499 588.957 160.499C572.63 160.499 557.979 157.146 545.005 150.44C532.031 143.588 521.827 134.113 514.392 122.013C507.103 109.768 503.459 95.9191 503.459 80.4667C503.459 65.0142 507.103 51.2382 514.392 39.1387C521.827 26.8933 532.104 17.4178 545.224 10.712C558.49 3.86045 573.432 0.434669 590.051 0.434669C605.066 0.434669 618.477 2.98578 630.285 8.088C642.239 13.0444 652.152 20.3333 660.024 29.9547L627.005 59.0373C617.384 47.8124 605.94 42.2 592.675 42.2C581.304 42.2 572.266 45.6258 565.56 52.4773C558.854 59.3289 555.501 68.6587 555.501 80.4667C555.501 91.9831 558.781 101.24 565.341 108.237C572.047 115.235 580.939 118.733 592.019 118.733C598.579 118.733 604.847 117.494 610.824 115.016V76.312ZM743.239 118.515H729.244V157H677.638V3.93333H751.329C765.47 3.93333 777.788 6.26577 788.284 10.9307C798.78 15.5956 806.871 22.3013 812.556 31.048C818.241 39.7947 821.084 49.9991 821.084 61.6613C821.084 72.5947 818.606 82.1431 813.649 90.3067C808.693 98.4702 801.55 104.957 792.22 109.768L824.364 157H769.26L743.239 118.515ZM769.041 61.6613C769.041 55.976 767.292 51.6027 763.793 48.5413C760.294 45.3342 755.046 43.7307 748.049 43.7307H729.244V79.592H748.049C755.046 79.592 760.294 78.0613 763.793 75C767.292 71.7929 769.041 67.3467 769.041 61.6613ZM944.875 130.323H886.709L876.432 157H823.952L890.864 3.93333H941.595L1008.51 157H955.152L944.875 130.323ZM930.661 93.1493L915.792 54.664L900.923 93.1493H930.661ZM1153.41 157L1152.97 87.2453L1119.73 143.224H1096.99L1063.76 89.6507V157H1016.74V3.93333H1059.16L1109.02 85.496L1157.56 3.93333H1199.99L1200.42 157H1153.41ZM1362.04 157L1361.6 87.2453L1328.36 143.224H1305.62L1272.39 89.6507V157H1225.37V3.93333H1267.79L1317.65 85.496L1366.19 3.93333H1408.62L1409.05 157H1362.04Z" fill="#642BB0"/>
<path d="M111.57 10.9307L110.758 12.7583L111.57 10.9307ZM135.842 31.048L134.165 32.138H134.165L135.842 31.048ZM135.842 92.2747L134.165 91.1847H134.165L135.842 92.2747ZM111.57 112.392L110.758 110.564L111.57 112.392ZM52.5303 119.389V117.389H50.5303V119.389H52.5303ZM52.5303 157V159H54.5303V157H52.5303ZM0.924999 157H-1.075V159H0.924999V157ZM0.924999 3.93333V1.93333H-1.075V3.93333H0.924999ZM87.0797 75L88.3967 76.5052L88.4141 76.4899L88.4311 76.4743L87.0797 75ZM87.0797 48.5413L85.7282 50.0156L85.7453 50.0313L85.7627 50.0465L87.0797 48.5413ZM52.5303 43.7307V41.7307H50.5303V43.7307H52.5303ZM52.5303 79.592H50.5303V81.592H52.5303V79.592ZM74.6157 5.93333C88.5393 5.93333 100.57 8.23013 110.758 12.7583L112.383 9.10304C101.579 4.30143 88.9729 1.93333 74.6157 1.93333V5.93333ZM110.758 12.7583C120.938 17.2826 128.712 23.7481 134.165 32.138L137.519 29.958C131.602 20.8546 123.195 13.9085 112.383 9.10304L110.758 12.7583ZM134.165 32.138C139.616 40.5228 142.37 50.3389 142.37 61.6613H146.37C146.37 49.6594 143.44 39.0665 137.519 29.958L134.165 32.138ZM142.37 61.6613C142.37 72.9838 139.616 82.7999 134.165 91.1847L137.519 93.3646C143.44 84.2561 146.37 73.6633 146.37 61.6613H142.37ZM134.165 91.1847C128.712 99.5746 120.938 106.04 110.758 110.564L112.383 114.22C123.195 109.414 131.602 102.468 137.519 93.3646L134.165 91.1847ZM110.758 110.564C100.57 115.093 88.5393 117.389 74.6157 117.389V121.389C88.9729 121.389 101.579 119.021 112.383 114.22L110.758 110.564ZM74.6157 117.389H52.5303V121.389H74.6157V117.389ZM50.5303 119.389V157H54.5303V119.389H50.5303ZM52.5303 155H0.924999V159H52.5303V155ZM2.925 157V3.93333H-1.075V157H2.925ZM0.924999 5.93333H74.6157V1.93333H0.924999V5.93333ZM71.3357 81.592C78.5806 81.592 84.3878 80.013 88.3967 76.5052L85.7627 73.4948C82.7742 76.1097 78.0854 77.592 71.3357 77.592V81.592ZM88.4311 76.4743C92.4242 72.814 94.3277 67.7868 94.3277 61.6613H90.3277C90.3277 66.9065 88.7325 70.7718 85.7282 73.5257L88.4311 76.4743ZM94.3277 61.6613C94.3277 55.5391 92.4245 50.5606 88.3967 47.0362L85.7627 50.0465C88.7321 52.6448 90.3277 56.4129 90.3277 61.6613H94.3277ZM88.4311 47.067C84.4218 43.3918 78.6003 41.7307 71.3357 41.7307V45.7307C78.0657 45.7307 82.7402 47.2767 85.7282 50.0156L88.4311 47.067ZM71.3357 41.7307H52.5303V45.7307H71.3357V41.7307ZM50.5303 43.7307V79.592H54.5303V43.7307H50.5303ZM52.5303 81.592H71.3357V77.592H52.5303V81.592ZM226.895 118.515L228.552 117.394L227.957 116.515H226.895V118.515ZM212.9 118.515V116.515H210.9V118.515H212.9ZM212.9 157V159H214.9V157H212.9ZM161.295 157H159.295V159H161.295V157ZM161.295 3.93333V1.93333H159.295V3.93333H161.295ZM271.94 10.9307L271.128 12.7583L271.94 10.9307ZM296.212 31.048L294.535 32.138L296.212 31.048ZM297.305 90.3067L295.596 89.2687L297.305 90.3067ZM275.876 109.768L274.96 107.99L272.952 109.026L274.223 110.893L275.876 109.768ZM308.02 157V159H311.8L309.674 155.875L308.02 157ZM252.916 157L251.259 158.12L251.854 159H252.916V157ZM247.449 48.5413L246.098 50.0156L246.115 50.0313L246.132 50.0465L247.449 48.5413ZM212.9 43.7307V41.7307H210.9V43.7307H212.9ZM212.9 79.592H210.9V81.592H212.9V79.592ZM247.449 75L248.766 76.5052L248.784 76.4899L248.801 76.4743L247.449 75ZM226.895 116.515H212.9V120.515H226.895V116.515ZM210.9 118.515V157H214.9V118.515H210.9ZM212.9 155H161.295V159H212.9V155ZM163.295 157V3.93333H159.295V157H163.295ZM161.295 5.93333H234.985V1.93333H161.295V5.93333ZM234.985 5.93333C248.909 5.93333 260.939 8.23013 271.128 12.7583L272.752 9.10304C261.949 4.30143 249.343 1.93333 234.985 1.93333V5.93333ZM271.128 12.7583C281.307 17.2826 289.082 23.7481 294.535 32.138L297.889 29.958C291.972 20.8546 283.565 13.9085 272.752 9.10304L271.128 12.7583ZM294.535 32.138C299.985 40.5228 302.74 50.3389 302.74 61.6613H306.74C306.74 49.6594 303.81 39.0665 297.889 29.958L294.535 32.138ZM302.74 61.6613C302.74 72.2827 300.336 81.4612 295.596 89.2687L299.015 91.3446C304.188 82.825 306.74 72.9066 306.74 61.6613H302.74ZM295.596 89.2687C290.849 97.0866 283.995 103.331 274.96 107.99L276.793 111.546C286.416 106.583 293.849 99.8538 299.015 91.3446L295.596 89.2687ZM274.223 110.893L306.367 158.125L309.674 155.875L277.53 108.643L274.223 110.893ZM308.02 155H252.916V159H308.02V155ZM254.573 155.88L228.552 117.394L225.238 119.635L251.259 158.12L254.573 155.88ZM254.697 61.6613C254.697 55.5391 252.794 50.5606 248.766 47.0362L246.132 50.0465C249.102 52.6448 250.697 56.4129 250.697 61.6613H254.697ZM248.801 47.067C244.792 43.3918 238.97 41.7307 231.705 41.7307V45.7307C238.436 45.7307 243.11 47.2767 246.098 50.0156L248.801 47.067ZM231.705 41.7307H212.9V45.7307H231.705V41.7307ZM210.9 43.7307V79.592H214.9V43.7307H210.9ZM212.9 81.592H231.705V77.592H212.9V81.592ZM231.705 81.592C238.95 81.592 244.758 80.013 248.766 76.5052L246.132 73.4948C243.144 76.1097 238.455 77.592 231.705 77.592V81.592ZM248.801 76.4743C252.794 72.814 254.697 67.7868 254.697 61.6613H250.697C250.697 66.9065 249.102 70.7718 246.098 73.5257L248.801 76.4743ZM360.088 150.221L361.014 148.449L360.088 150.221ZM329.256 121.795L327.547 122.833L327.552 122.842L329.256 121.795ZM329.256 39.3573L330.96 40.4044L330.966 40.3953L329.256 39.3573ZM448.867 10.712L449.793 8.93918L448.867 10.712ZM479.699 39.3573L477.989 40.3953L477.995 40.4044L479.699 39.3573ZM479.699 121.795L481.403 122.842L481.409 122.833L479.699 121.795ZM448.867 150.221L449.793 151.994L448.867 150.221ZM421.752 114.141L422.781 115.856L422.788 115.852L422.795 115.848L421.752 114.141ZM434.216 100.803L435.977 101.751L435.982 101.742L435.987 101.732L434.216 100.803ZM434.216 60.3493L432.446 61.279L432.45 61.2883L432.455 61.2975L434.216 60.3493ZM421.752 47.0107L420.688 48.7039L420.716 48.7216L420.745 48.7382L421.752 47.0107ZM386.984 47.0107L388.013 48.7256L388.02 48.7215L388.027 48.7172L386.984 47.0107ZM374.739 60.3493L376.5 61.2975L376.505 61.2883L376.51 61.279L374.739 60.3493ZM374.739 100.803L372.968 101.732L372.973 101.742L372.978 101.751L374.739 100.803ZM386.984 114.141L385.92 115.835L385.948 115.852L385.977 115.869L386.984 114.141ZM404.478 158.499C388.29 158.499 373.817 155.135 361.014 148.449L359.163 151.994C372.599 159.011 387.719 162.499 404.478 162.499V158.499ZM361.014 148.449C348.2 141.757 338.198 132.526 330.96 120.748L327.552 122.842C335.184 135.262 345.737 144.983 359.163 151.994L361.014 148.449ZM330.966 120.757C323.734 108.846 320.104 95.4334 320.104 80.4667H316.104C316.104 96.1133 319.909 110.253 327.547 122.833L330.966 120.757ZM320.104 80.4667C320.104 65.4998 323.734 52.1644 330.96 40.4044L327.552 38.3103C319.909 50.7493 316.104 64.8202 316.104 80.4667H320.104ZM330.966 40.3953C338.205 28.4725 348.206 19.1734 361.014 12.4848L359.163 8.93918C345.73 15.9537 335.177 25.7515 327.547 38.3194L330.966 40.3953ZM361.014 12.4848C373.817 5.79873 388.29 2.43467 404.478 2.43467V-1.56533C387.719 -1.56533 372.599 1.92216 359.163 8.93918L361.014 12.4848ZM404.478 2.43467C420.665 2.43467 435.138 5.79873 447.941 12.4848L449.793 8.93918C436.356 1.92216 421.236 -1.56533 404.478 -1.56533V2.43467ZM447.941 12.4848C460.749 19.1734 470.751 28.4725 477.989 40.3953L481.409 38.3194C473.778 25.7515 463.225 15.9537 449.793 8.93918L447.941 12.4848ZM477.995 40.4044C485.221 52.1644 488.851 65.4998 488.851 80.4667H492.851C492.851 64.8202 489.046 50.7493 481.403 38.3103L477.995 40.4044ZM488.851 80.4667C488.851 95.4334 485.221 108.846 477.989 120.757L481.409 122.833C489.046 110.253 492.851 96.1133 492.851 80.4667H488.851ZM477.995 120.748C470.758 132.526 460.755 141.757 447.941 148.449L449.793 151.994C463.219 144.983 473.771 135.262 481.403 122.842L477.995 120.748ZM447.941 148.449C435.138 155.135 420.665 158.499 404.478 158.499V162.499C421.236 162.499 436.356 159.011 449.793 151.994L447.941 148.449ZM404.478 120.733C411.225 120.733 417.344 119.119 422.781 115.856L420.723 112.426C415.956 115.287 410.559 116.733 404.478 116.733V120.733ZM422.795 115.848C428.361 112.447 432.757 107.732 435.977 101.751L432.455 99.8545C429.553 105.244 425.64 109.422 420.71 112.435L422.795 115.848ZM435.987 101.732C439.223 95.5686 440.808 88.4607 440.808 80.4667H436.808C436.808 87.9251 435.332 94.3745 432.446 99.873L435.987 101.732ZM440.808 80.4667C440.808 72.4743 439.224 65.4301 435.977 59.4011L432.455 61.2975C435.332 66.6393 436.808 73.0066 436.808 80.4667H440.808ZM435.987 59.4197C432.767 53.2853 428.359 48.5494 422.76 45.2831L420.745 48.7382C425.641 51.5946 429.543 55.7512 432.446 61.279L435.987 59.4197ZM422.817 45.3174C417.375 41.8968 411.243 40.2 404.478 40.2V44.2C410.541 44.2 415.925 45.7103 420.688 48.7039L422.817 45.3174ZM404.478 40.2C397.712 40.2 391.517 41.8966 385.941 45.3041L388.027 48.7172C392.947 45.7105 398.415 44.2 404.478 44.2V40.2ZM385.955 45.2957C380.506 48.5655 376.181 53.2995 372.968 59.4197L376.51 61.279C379.419 55.737 383.259 51.5785 388.013 48.7256L385.955 45.2957ZM372.978 59.4011C369.732 65.4301 368.147 72.4743 368.147 80.4667H372.147C372.147 73.0066 373.624 66.6393 376.5 61.2975L372.978 59.4011ZM368.147 80.4667C368.147 88.4607 369.732 95.5686 372.968 101.732L376.51 99.873C373.623 94.3745 372.147 87.9251 372.147 80.4667H368.147ZM372.978 101.751C376.191 107.718 380.504 112.43 385.92 115.835L388.049 112.448C383.26 109.438 379.41 105.258 376.5 99.8545L372.978 101.751ZM385.977 115.869C391.548 119.119 397.73 120.733 404.478 120.733V116.733C398.397 116.733 392.917 115.287 387.992 112.414L385.977 115.869ZM610.824 76.312V74.312H608.824V76.312H610.824ZM655.651 76.312H657.651V74.312H655.651V76.312ZM655.651 141.037L656.79 142.681L657.651 142.084V141.037H655.651ZM624.163 155.469L623.622 153.544L624.163 155.469ZM545.005 150.44L544.071 152.209L544.079 152.213L544.087 152.217L545.005 150.44ZM514.392 122.013L512.673 123.036L512.68 123.048L512.688 123.06L514.392 122.013ZM514.392 39.1387L512.682 38.1007L512.679 38.1066L514.392 39.1387ZM545.224 10.712L546.134 12.4929L546.142 12.489L545.224 10.712ZM630.285 8.088L629.492 9.92393L629.505 9.92981L629.519 9.93548L630.285 8.088ZM660.024 29.9547L661.346 31.4555L662.793 30.1808L661.572 28.6882L660.024 29.9547ZM627.005 59.0373L625.487 60.3389L626.806 61.878L628.327 60.5382L627.005 59.0373ZM565.56 52.4773L566.989 53.8763L565.56 52.4773ZM565.341 108.237L563.882 109.605L563.89 109.613L563.897 109.621L565.341 108.237ZM610.824 115.016L611.59 116.863L612.824 116.352V115.016H610.824ZM610.824 78.312H655.651V74.312H610.824V78.312ZM653.651 76.312V141.037H657.651V76.312H653.651ZM654.511 139.394C645.677 145.52 635.389 150.243 623.622 153.544L624.703 157.395C636.843 153.99 647.547 149.091 656.79 142.681L654.511 139.394ZM623.622 153.544C611.831 156.851 600.277 158.499 588.957 158.499V162.499C600.67 162.499 612.587 160.793 624.703 157.395L623.622 153.544ZM588.957 158.499C572.911 158.499 558.582 155.206 545.924 148.663L544.087 152.217C557.377 159.086 572.349 162.499 588.957 162.499V158.499ZM545.939 148.671C533.271 141.981 523.337 132.75 516.096 120.966L512.688 123.06C520.316 135.475 530.791 145.196 544.071 152.209L545.939 148.671ZM516.11 120.99C509.021 109.08 505.459 95.5904 505.459 80.4667H501.459C501.459 96.2478 505.185 110.456 512.673 123.036L516.11 120.99ZM505.459 80.4667C505.459 65.3426 509.021 51.9298 516.105 40.1707L512.679 38.1066C505.185 50.5466 501.459 64.6858 501.459 80.4667H505.459ZM516.101 40.1766C523.338 28.2576 533.334 19.035 546.134 12.4929L544.314 8.93113C530.873 15.8006 520.315 25.529 512.682 38.1007L516.101 40.1766ZM546.142 12.489C559.093 5.79991 573.715 2.43467 590.051 2.43467V-1.56533C573.149 -1.56533 557.886 1.92098 544.306 8.93501L546.142 12.489ZM590.051 2.43467C604.838 2.43467 617.973 4.94652 629.492 9.92393L631.079 6.25206C618.982 1.02503 605.293 -1.56533 590.051 -1.56533V2.43467ZM629.519 9.93548C641.181 14.771 650.821 21.8656 658.476 31.2211L661.572 28.6882C653.482 18.8011 643.297 11.3179 631.051 6.24051L629.519 9.93548ZM658.702 28.4538L625.683 57.5365L628.327 60.5382L661.346 31.4555L658.702 28.4538ZM628.524 57.7357C618.571 46.1245 606.595 40.2 592.675 40.2V44.2C605.285 44.2 616.197 49.5004 625.487 60.3389L628.524 57.7357ZM592.675 40.2C580.874 40.2 571.282 43.7716 564.131 51.0784L566.989 53.8763C573.249 47.4799 581.734 44.2 592.675 44.2V40.2ZM564.131 51.0784C556.978 58.3863 553.501 68.2639 553.501 80.4667H557.501C557.501 69.0535 560.73 60.2715 566.989 53.8763L564.131 51.0784ZM553.501 80.4667C553.501 92.3832 556.907 102.165 563.882 109.605L566.8 106.869C560.655 100.315 557.501 91.5831 557.501 80.4667H553.501ZM563.897 109.621C571.035 117.07 580.48 120.733 592.019 120.733V116.733C581.399 116.733 573.059 113.4 566.785 106.854L563.897 109.621ZM592.019 120.733C598.838 120.733 605.367 119.444 611.59 116.863L610.058 113.169C604.327 115.545 598.319 116.733 592.019 116.733V120.733ZM612.824 115.016V76.312H608.824V115.016H612.824ZM743.239 118.515L744.895 117.394L744.3 116.515H743.239V118.515ZM729.244 118.515V116.515H727.244V118.515H729.244ZM729.244 157V159H731.244V157H729.244ZM677.638 157H675.638V159H677.638V157ZM677.638 3.93333V1.93333H675.638V3.93333H677.638ZM788.284 10.9307L787.472 12.7583L788.284 10.9307ZM812.556 31.048L810.879 32.138L812.556 31.048ZM813.649 90.3067L811.94 89.2687L813.649 90.3067ZM792.22 109.768L791.303 107.99L789.295 109.026L790.566 110.893L792.22 109.768ZM824.364 157V159H828.144L826.017 155.875L824.364 157ZM769.26 157L767.603 158.12L768.198 159H769.26V157ZM763.793 48.5413L762.442 50.0156L762.459 50.0313L762.476 50.0465L763.793 48.5413ZM729.244 43.7307V41.7307H727.244V43.7307H729.244ZM729.244 79.592H727.244V81.592H729.244V79.592ZM763.793 75L765.11 76.5052L765.128 76.4899L765.145 76.4743L763.793 75ZM743.239 116.515H729.244V120.515H743.239V116.515ZM727.244 118.515V157H731.244V118.515H727.244ZM729.244 155H677.638V159H729.244V155ZM679.638 157V3.93333H675.638V157H679.638ZM677.638 5.93333H751.329V1.93333H677.638V5.93333ZM751.329 5.93333C765.253 5.93333 777.283 8.23013 787.472 12.7583L789.096 9.10304C778.292 4.30143 765.686 1.93333 751.329 1.93333V5.93333ZM787.472 12.7583C797.651 17.2826 805.425 23.7481 810.879 32.138L814.233 29.958C808.315 20.8546 799.909 13.9085 789.096 9.10304L787.472 12.7583ZM810.879 32.138C816.329 40.5228 819.084 50.3389 819.084 61.6613H823.084C823.084 49.6594 820.153 39.0665 814.233 29.958L810.879 32.138ZM819.084 61.6613C819.084 72.2827 816.68 81.4612 811.94 89.2687L815.359 91.3446C820.531 82.825 823.084 72.9066 823.084 61.6613H819.084ZM811.94 89.2687C807.193 97.0866 800.339 103.331 791.303 107.99L793.136 111.546C802.76 106.583 810.192 99.8538 815.359 91.3446L811.94 89.2687ZM790.566 110.893L822.71 158.125L826.017 155.875L793.873 108.643L790.566 110.893ZM824.364 155H769.26V159H824.364V155ZM770.917 155.88L744.895 117.394L741.582 119.635L767.603 158.12L770.917 155.88ZM771.041 61.6613C771.041 55.5391 769.138 50.5606 765.11 47.0362L762.476 50.0465C765.446 52.6448 767.041 56.4129 767.041 61.6613H771.041ZM765.145 47.067C761.135 43.3918 755.314 41.7307 748.049 41.7307V45.7307C754.779 45.7307 759.454 47.2767 762.442 50.0156L765.145 47.067ZM748.049 41.7307H729.244V45.7307H748.049V41.7307ZM727.244 43.7307V79.592H731.244V43.7307H727.244ZM729.244 81.592H748.049V77.592H729.244V81.592ZM748.049 81.592C755.294 81.592 761.101 80.013 765.11 76.5052L762.476 73.4948C759.488 76.1097 754.799 77.592 748.049 77.592V81.592ZM765.145 76.4743C769.138 72.814 771.041 67.7868 771.041 61.6613H767.041C767.041 66.9065 765.446 70.7718 762.442 73.5257L765.145 76.4743ZM944.875 130.323L946.741 129.604L946.248 128.323H944.875V130.323ZM886.709 130.323V128.323H885.337L884.843 129.604L886.709 130.323ZM876.432 157V159H877.805L878.298 157.719L876.432 157ZM823.952 157L822.12 156.199L820.895 159H823.952V157ZM890.864 3.93333V1.93333H889.556L889.032 3.13224L890.864 3.93333ZM941.595 3.93333L943.427 3.13224L942.903 1.93333H941.595V3.93333ZM1008.51 157V159H1011.56L1010.34 156.199L1008.51 157ZM955.152 157L953.286 157.719L953.779 159H955.152V157ZM930.661 93.1493V95.1493H933.578L932.527 92.4285L930.661 93.1493ZM915.792 54.664L917.658 53.9432L915.792 49.1146L913.927 53.9432L915.792 54.664ZM900.923 93.1493L899.057 92.4285L898.006 95.1493H900.923V93.1493ZM944.875 128.323H886.709V132.323H944.875V128.323ZM884.843 129.604L874.566 156.281L878.298 157.719L888.576 131.042L884.843 129.604ZM876.432 155H823.952V159H876.432V155ZM825.785 157.801L892.697 4.73442L889.032 3.13224L822.12 156.199L825.785 157.801ZM890.864 5.93333H941.595V1.93333H890.864V5.93333ZM939.762 4.73442L1006.67 157.801L1010.34 156.199L943.427 3.13224L939.762 4.73442ZM1008.51 155H955.152V159H1008.51V155ZM957.018 156.281L946.741 129.604L943.008 131.042L953.286 157.719L957.018 156.281ZM932.527 92.4285L917.658 53.9432L913.927 55.3848L928.796 93.8701L932.527 92.4285ZM913.927 53.9432L899.057 92.4285L902.788 93.8701L917.658 55.3848L913.927 53.9432ZM900.923 95.1493H930.661V91.1493H900.923V95.1493ZM1153.41 157L1151.41 157.013L1151.42 159H1153.41V157ZM1152.97 87.2453L1154.97 87.2328L1154.93 80.0356L1151.25 86.2243L1152.97 87.2453ZM1119.73 143.224V145.224H1120.87L1121.45 144.245L1119.73 143.224ZM1096.99 143.224L1095.29 144.278L1095.88 145.224H1096.99V143.224ZM1063.76 89.6507L1065.46 88.5963L1061.76 82.6333V89.6507H1063.76ZM1063.76 157V159H1065.76V157H1063.76ZM1016.74 157H1014.74V159H1016.74V157ZM1016.74 3.93333V1.93333H1014.74V3.93333H1016.74ZM1059.16 3.93333L1060.87 2.89024L1060.29 1.93333H1059.16V3.93333ZM1109.02 85.496L1107.31 86.5391L1109.04 89.3681L1110.74 86.5189L1109.02 85.496ZM1157.56 3.93333V1.93333H1156.43L1155.85 2.91045L1157.56 3.93333ZM1199.99 3.93333L1201.99 3.92761L1201.98 1.93333H1199.99V3.93333ZM1200.42 157V159H1202.43L1202.42 156.994L1200.42 157ZM1155.41 156.987L1154.97 87.2328L1150.97 87.2579L1151.41 157.013L1155.41 156.987ZM1151.25 86.2243L1118.01 142.203L1121.45 144.245L1154.69 88.2664L1151.25 86.2243ZM1119.73 141.224H1096.99V145.224H1119.73V141.224ZM1098.69 142.17L1065.46 88.5963L1062.06 90.705L1095.29 144.278L1098.69 142.17ZM1061.76 89.6507V157H1065.76V89.6507H1061.76ZM1063.76 155H1016.74V159H1063.76V155ZM1018.74 157V3.93333H1014.74V157H1018.74ZM1016.74 5.93333H1059.16V1.93333H1016.74V5.93333ZM1057.46 4.97642L1107.31 86.5391L1110.73 84.4529L1060.87 2.89024L1057.46 4.97642ZM1110.74 86.5189L1159.28 4.95621L1155.85 2.91045L1107.3 84.4731L1110.74 86.5189ZM1157.56 5.93333H1199.99V1.93333H1157.56V5.93333ZM1197.99 3.93904L1198.42 157.006L1202.42 156.994L1201.99 3.92761L1197.99 3.93904ZM1200.42 155H1153.41V159H1200.42V155ZM1362.04 157L1360.04 157.013L1360.05 159H1362.04V157ZM1361.6 87.2453L1363.6 87.2328L1363.56 80.0356L1359.88 86.2243L1361.6 87.2453ZM1328.36 143.224V145.224H1329.5L1330.08 144.245L1328.36 143.224ZM1305.62 143.224L1303.92 144.278L1304.51 145.224H1305.62V143.224ZM1272.39 89.6507L1274.09 88.5963L1270.39 82.6333V89.6507H1272.39ZM1272.39 157V159H1274.39V157H1272.39ZM1225.37 157H1223.37V159H1225.37V157ZM1225.37 3.93333V1.93333H1223.37V3.93333H1225.37ZM1267.79 3.93333L1269.5 2.89024L1268.92 1.93333H1267.79V3.93333ZM1317.65 85.496L1315.94 86.5391L1317.67 89.3681L1319.37 86.5189L1317.65 85.496ZM1366.19 3.93333V1.93333H1365.06L1364.48 2.91045L1366.19 3.93333ZM1408.62 3.93333L1410.62 3.92761L1410.61 1.93333H1408.62V3.93333ZM1409.05 157V159H1411.06L1411.05 156.994L1409.05 157ZM1364.04 156.987L1363.6 87.2328L1359.6 87.2579L1360.04 157.013L1364.04 156.987ZM1359.88 86.2243L1326.65 142.203L1330.08 144.245L1363.32 88.2664L1359.88 86.2243ZM1328.36 141.224H1305.62V145.224H1328.36V141.224ZM1307.32 142.17L1274.09 88.5963L1270.69 90.705L1303.92 144.278L1307.32 142.17ZM1270.39 89.6507V157H1274.39V89.6507H1270.39ZM1272.39 155H1225.37V159H1272.39V155ZM1227.37 157V3.93333H1223.37V157H1227.37ZM1225.37 5.93333H1267.79V1.93333H1225.37V5.93333ZM1266.09 4.97642L1315.94 86.5391L1319.36 84.4529L1269.5 2.89024L1266.09 4.97642ZM1319.37 86.5189L1367.91 4.95621L1364.48 2.91045L1315.93 84.4731L1319.37 86.5189ZM1366.19 5.93333H1408.62V1.93333H1366.19V5.93333ZM1406.62 3.93904L1407.05 157.006L1411.05 156.994L1410.62 3.92761L1406.62 3.93904ZM1409.05 155H1362.04V159H1409.05V155Z" fill="url(#paint0_linear_97_15473)" mask="url(#path-1-outside-1_97_15473)"/>
<defs>
<linearGradient id="paint0_linear_97_15473" x1="710.785" y1="-158.412" x2="710.785" y2="253.573" gradientUnits="userSpaceOnUse">
<stop stop-color="#5C60C6"/>
<stop offset="1" stop-color="#5155B5" stop-opacity="0"/>
</linearGradient>
</defs>
</svg>
