<svg width="24" height="24" viewBox="0 0 24 24" fill="none" xmlns="http://www.w3.org/2000/svg">
<path d="M10.9177 15.6785C9.52231 15.533 8.26415 15.1893 7.18697 14.3468C7.05331 14.242 6.91532 14.141 6.79335 14.0239C6.32187 13.5711 6.27437 13.0525 6.64744 12.518C6.9666 12.0607 7.50236 11.9383 8.05923 12.2009C8.16707 12.2518 8.26981 12.3154 8.36821 12.3836C10.3757 13.763 13.1335 13.8011 15.1486 12.4456C15.3482 12.2926 15.5616 12.1678 15.8089 12.1041C16.2898 11.9806 16.7383 12.1572 16.9964 12.578C17.2912 13.0585 17.2875 13.5275 16.9242 13.9006C16.3669 14.4726 15.6968 14.8864 14.9521 15.1752C14.248 15.4481 13.4768 15.5856 12.7135 15.6768C12.8287 15.8022 12.883 15.8638 12.955 15.9362C13.9914 16.9776 15.0324 18.0146 16.0655 19.0592C16.4175 19.4151 16.491 19.8564 16.2972 20.2704C16.0853 20.7228 15.611 21.0205 15.1459 20.9886C14.8513 20.9683 14.6215 20.8216 14.4173 20.6159C13.6352 19.8289 12.8383 19.0563 12.072 18.2544C11.849 18.0212 11.7417 18.0653 11.5449 18.2678C10.758 19.0778 9.95834 19.8754 9.15395 20.6685C8.79275 21.0246 8.36293 21.0887 7.94405 20.8853C7.49878 20.6695 7.21544 20.2149 7.23731 19.7582C7.25239 19.4492 7.40433 19.2132 7.61641 19.0015C8.64213 17.9773 9.66501 16.9504 10.6883 15.9245C10.756 15.8563 10.8191 15.7839 10.9177 15.6785Z" fill="#051655"/>
<path d="M11.7677 12.1108C9.27836 12.1023 7.23711 10.0386 7.25163 7.54532C7.26596 5.02449 9.30853 2.99304 11.8224 3.00002C14.3413 3.0068 16.3632 5.06747 16.3505 7.61451C16.3377 10.1027 14.2823 12.1195 11.7677 12.1108ZM14.0301 7.55135C14.0258 6.31337 13.0398 5.32781 11.8043 5.32668C10.5584 5.32536 9.56359 6.32883 9.5732 7.57812C9.58244 8.81139 10.5769 9.78998 11.8158 9.78546C13.0509 9.78112 14.0342 8.78915 14.0301 7.55135Z" fill="#051655"/>
</svg>
