<svg width="24" height="24" viewBox="0 0 24 24" fill="none" xmlns="http://www.w3.org/2000/svg">
<path d="M20.9575 14.9545C20.3759 14.2569 19.6915 13.6615 19.0439 13.0293C18.4597 12.4595 18.4228 12.1289 18.8925 11.4712C19.405 10.7534 19.9563 10.0631 20.4735 9.34846C20.9563 8.68063 21.4498 8.01462 21.7039 7.21501C21.865 6.70629 21.7225 6.48159 21.2008 6.39252C21.111 6.37693 21.018 6.37612 20.9265 6.37612L17.8315 6.37248C17.4503 6.36681 17.2396 6.53301 17.1048 6.87087C16.9228 7.32756 16.7351 7.78385 16.5183 8.22455C16.0264 9.22376 15.477 10.1896 14.7068 11.0074C14.5369 11.1878 14.3491 11.4157 14.0652 11.3218C13.7102 11.1922 13.6055 10.6072 13.6114 10.4094L13.6084 6.83706C13.5395 6.32673 13.4264 6.09919 12.9197 6L9.70462 6.00061C9.27546 6.00061 9.06027 6.1664 8.83111 6.43483C8.69892 6.58989 8.65905 6.6905 8.93071 6.74192C9.46433 6.84314 9.76494 7.18849 9.8447 7.72352C9.97264 8.5784 9.96373 9.43672 9.89005 10.295C9.86839 10.5457 9.82527 10.7957 9.72587 11.0297C9.5704 11.3975 9.31938 11.4724 8.98962 11.2461C8.69103 11.0412 8.48131 10.7521 8.27604 10.4618C7.50497 9.37235 6.88977 8.19742 6.38814 6.96278C6.2432 6.60609 5.99319 6.38989 5.61525 6.38402C4.68668 6.36924 3.75792 6.36681 2.82935 6.38483C2.27063 6.39535 2.10403 6.66662 2.33157 7.17311C3.34293 9.42276 4.46866 11.6099 5.93813 13.6022C6.6926 14.6247 7.55882 15.5274 8.67787 16.167C9.94612 16.8922 11.3113 17.1104 12.7492 17.0432C13.4225 17.0116 13.6248 16.8365 13.6559 16.1654C13.677 15.7063 13.729 15.2498 13.9555 14.8373C14.1778 14.4324 14.5144 14.3553 14.9025 14.6071C15.0966 14.7332 15.2602 14.8937 15.4147 15.063C15.7936 15.4776 16.159 15.9047 16.5523 16.3053C17.0457 16.8073 17.6301 17.1039 18.3649 17.0434L21.2095 17.044C21.6679 17.014 21.9055 16.4521 21.6423 15.9405C21.4575 15.5822 21.215 15.2632 20.9575 14.9545Z" fill="#051655"/>
</svg>
