<svg width="24" height="24" viewBox="0 0 24 24" fill="none" xmlns="http://www.w3.org/2000/svg">
<path d="M11.6671 5.02447C11.7719 4.70201 12.2281 4.70201 12.3329 5.02447L13.7175 9.28602C13.7644 9.43023 13.8988 9.52786 14.0504 9.52786H18.5313C18.8703 9.52786 19.0113 9.96173 18.737 10.161L15.1119 12.7948C14.9892 12.8839 14.9379 13.0419 14.9847 13.1861L16.3694 17.4477C16.4742 17.7701 16.1051 18.0383 15.8308 17.839L12.2057 15.2052C12.0831 15.1161 11.9169 15.1161 11.7943 15.2052L8.16918 17.839C7.89488 18.0383 7.52581 17.7701 7.63059 17.4477L9.01525 13.1861C9.06211 13.0419 9.01078 12.8839 8.88811 12.7948L5.26301 10.161C4.98871 9.96173 5.12968 9.52786 5.46874 9.52786H9.9496C10.1012 9.52786 10.2356 9.43023 10.2825 9.28602L11.6671 5.02447Z" fill="#6673BD" stroke="#6673BD" stroke-width="1.5"/>
</svg>
