<svg width="24" height="24" viewBox="0 0 24 24" fill="none" xmlns="http://www.w3.org/2000/svg">
<path fill-rule="evenodd" clip-rule="evenodd" d="M12 3.75C7.89873 3.75 4.75 6.63916 4.75 10V17C4.75 17.4142 4.41421 17.75 4 17.75C3.58579 17.75 3.25 17.4142 3.25 17V10C3.25 5.62885 7.26471 2.25 12 2.25C16.7353 2.25 20.75 5.62885 20.75 10V17C20.75 17.4142 20.4142 17.75 20 17.75C19.5858 17.75 19.25 17.4142 19.25 17V10C19.25 6.63916 16.1013 3.75 12 3.75Z" fill="#051655"/>
<path d="M9 16.2778C9 14.8971 7.88071 13.7778 6.5 13.7778C5.11929 13.7778 4 14.8971 4 16.2778V17.5001C4 18.8808 5.11929 20.0001 6.5 20.0001C7.88071 20.0001 9 18.8808 9 17.5001V16.2778Z" fill="#051655"/>
<path fill-rule="evenodd" clip-rule="evenodd" d="M9.75 16.2778C9.75 14.4829 8.29492 13.0278 6.5 13.0278C4.70507 13.0278 3.25 14.4829 3.25 16.2778V17.5001C3.25 19.295 4.70508 20.7501 6.5 20.7501C8.29493 20.7501 9.75 19.295 9.75 17.5001V16.2778ZM6.5 14.5278C7.4665 14.5278 8.25 15.3113 8.25 16.2778V17.5001C8.25 18.4666 7.4665 19.2501 6.5 19.2501C5.5335 19.2501 4.75 18.4666 4.75 17.5001V16.2778C4.75 15.3113 5.5335 14.5278 6.5 14.5278Z" fill="#051655"/>
<path d="M15 16.2778C15 14.8971 16.1193 13.7778 17.5 13.7778C18.8807 13.7778 20 14.8971 20 16.2778V17.5001C20 18.8808 18.8807 20.0001 17.5 20.0001C16.1193 20.0001 15 18.8808 15 17.5001V16.2778Z" fill="#051655"/>
<path fill-rule="evenodd" clip-rule="evenodd" d="M14.25 16.2778C14.25 14.4829 15.7051 13.0278 17.5 13.0278C19.2949 13.0278 20.75 14.4829 20.75 16.2778V17.5001C20.75 19.295 19.2949 20.7501 17.5 20.7501C15.7051 20.7501 14.25 19.295 14.25 17.5001V16.2778ZM17.5 14.5278C16.5335 14.5278 15.75 15.3113 15.75 16.2778V17.5001C15.75 18.4666 16.5335 19.2501 17.5 19.2501C18.4665 19.2501 19.25 18.4666 19.25 17.5001V16.2778C19.25 15.3113 18.4665 14.5278 17.5 14.5278Z" fill="#051655"/>
<path fill-rule="evenodd" clip-rule="evenodd" d="M19.25 16C19.25 15.5858 19.5858 15.25 20 15.25H20.8C21.3247 15.25 21.75 15.6753 21.75 16.2V18.4667C21.75 18.9913 21.3247 19.4167 20.8 19.4167H20C19.5858 19.4167 19.25 19.0809 19.25 18.6667C19.25 18.2525 19.5858 17.9167 20 17.9167H20.25V16.75H20C19.5858 16.75 19.25 16.4142 19.25 16Z" fill="#051655"/>
<path fill-rule="evenodd" clip-rule="evenodd" d="M4.75 16C4.75 15.5858 4.41421 15.25 4 15.25H3.2C2.67533 15.25 2.25 15.6753 2.25 16.2V18.4667C2.25 18.9913 2.67533 19.4167 3.2 19.4167H4C4.41421 19.4167 4.75 19.0809 4.75 18.6667C4.75 18.2525 4.41421 17.9167 4 17.9167H3.75V16.75H4C4.41421 16.75 4.75 16.4142 4.75 16Z" fill="#051655"/>
</svg>
