<svg width="24" height="24" viewBox="0 0 24 24" fill="none" xmlns="http://www.w3.org/2000/svg">
<path d="M4 11.5V8.5C4 7.11929 5.11929 6 6.5 6H7.5H8.375M18 8.75V8.5C18 7.11929 16.8807 6 15.5 6H14.5" stroke="#6673BD" stroke-width="1.5"/>
<path d="M7 8.5L8.38604 4.34189C8.4541 4.13771 8.64516 4 8.86038 4H14.3371C14.6693 4 14.9092 4.31795 14.8179 4.63736L14 7.5L13.5 9" stroke="#6673BD" stroke-width="1.5" stroke-linecap="round"/>
<path d="M6.8 8.25C4.83939 8.25 3.25 9.83939 3.25 11.8V12.25H6.5C7.74264 12.25 8.75 13.2574 8.75 14.5C8.75 15.7426 7.74264 16.75 6.5 16.75H3.25V17.2C3.25 19.1606 4.83939 20.75 6.8 20.75H17.2C19.1606 20.75 20.75 19.1606 20.75 17.2V11.8C20.75 9.83939 19.1606 8.25 17.2 8.25H6.8Z" fill="#6673BD"/>
<path d="M4.75 15.25V13.75H6.5C6.91421 13.75 7.25 14.0858 7.25 14.5C7.25 14.9142 6.91421 15.25 6.5 15.25H4.75Z" fill="#6673BD"/>
</svg>
