<svg width="24" height="25" viewBox="0 0 24 25" fill="none" xmlns="http://www.w3.org/2000/svg">
<path fill-rule="evenodd" clip-rule="evenodd" d="M12 5.80005C7.73348 5.80005 4.52551 8.26218 1.93212 11.4562C1.43799 12.0648 1.43799 12.9353 1.93212 13.5439C4.52551 16.7379 7.73348 19.2 12 19.2C16.2666 19.2 19.4746 16.7379 22.068 13.5439C22.5621 12.9353 22.5621 12.0648 22.068 11.4562C19.4746 8.26218 16.2666 5.80005 12 5.80005ZM10.2001 12.5C10.2001 11.5059 11.006 10.7 12.0001 10.7C12.9942 10.7 13.8001 11.5059 13.8001 12.5C13.8001 13.4941 12.9942 14.3 12.0001 14.3C11.006 14.3 10.2001 13.4941 10.2001 12.5ZM12.0001 9.3C10.2328 9.3 8.80012 10.7327 8.80012 12.5C8.80012 14.2673 10.2328 15.7 12.0001 15.7C13.7674 15.7 15.2001 14.2673 15.2001 12.5C15.2001 10.7327 13.7674 9.3 12.0001 9.3Z" fill="#6673BD"/>
</svg>
